<?xml version="1.0" encoding="UTF-8" standalone="no"?>
<!DOCTYPE svg PUBLIC "-//W3C//DTD SVG 1.1//EN" "http://www.w3.org/Graphics/SVG/1.1/DTD/svg11.dtd">
<svg width="100%" height="100%" viewBox="0 0 1199 674" version="1.1" xmlns="http://www.w3.org/2000/svg" xmlns:xlink="http://www.w3.org/1999/xlink" xml:space="preserve" xmlns:serif="http://www.serif.com/" style="fill-rule:evenodd;clip-rule:evenodd;">
    <g transform="matrix(1,0,0,1,-266,-201)">
        <rect x="641" y="221" width="133" height="49" style="fill:white;stroke:black;stroke-width:2px;"/>
        <g id="a" transform="matrix(1,0,0,1,652.109,259.672)">
            <g id="j" transform="matrix(0.0195312,0,0,0.0195312,0,0)">
                <path d="M420,-744C418,-410 597,-176 939,-176C1082,-176 1228,-213 1376,-286L1376,-59C1225,12 1072,37 863,37C604,37 411,-36 284,-182C157,-328 93,-514 93,-740C93,-967 157,-1154 284,-1299C411,-1444 610,-1517 882,-1517C1043,-1517 1203,-1498 1362,-1460L1362,-1219C1201,-1273 1095,-1309 905,-1314C568,-1324 422,-1064 420,-744" style="fill-rule:nonzero;"/>
            </g>
            <g id="k" transform="matrix(0.0195312,0,0,0.0195312,28.4961,0)">
                <path d="M1221,-549C1221,-195 1018,25 653,25C289,25 86,-195 86,-549C86,-903 289,-1123 653,-1123C1018,-1123 1221,-903 1221,-549ZM401,-549C401,-353 469,-160 653,-160C838,-160 906,-353 906,-549C906,-745 838,-938 653,-938C470,-938 401,-744 401,-549" style="fill-rule:nonzero;"/>
            </g>
            <g id="l" transform="matrix(0.0195312,0,0,0.0195312,54.043,0)">
                <path d="M185,0L185,-1579L481,-1579L481,0L185,0" style="fill-rule:nonzero;"/>
            </g>
            <g id="k1" serif:id="k" transform="matrix(0.0195312,0,0,0.0195312,67.0508,0)">
                <path d="M1221,-549C1221,-195 1018,25 653,25C289,25 86,-195 86,-549C86,-903 289,-1123 653,-1123C1018,-1123 1221,-903 1221,-549ZM401,-549C401,-353 469,-160 653,-160C838,-160 906,-353 906,-549C906,-745 838,-938 653,-938C470,-938 401,-744 401,-549" style="fill-rule:nonzero;"/>
            </g>
            <g id="m" transform="matrix(0.0195312,0,0,0.0195312,92.5977,0)">
                <path d="M886,-853C704,-920 552,-826 481,-697L481,0L185,0L185,-1098L481,-1098L481,-891C548,-1026 687,-1147 886,-1117L886,-853" style="fill-rule:nonzero;"/>
            </g>
        </g>
        <rect x="976" y="221" width="249" height="49" style="fill:white;stroke:black;stroke-width:2px;"/>
        <g id="b" transform="matrix(1,0,0,1,987.199,259.672)">
            <g id="j1" serif:id="j" transform="matrix(0.0195312,0,0,0.0195312,0,0)">
                <path d="M420,-744C418,-410 597,-176 939,-176C1082,-176 1228,-213 1376,-286L1376,-59C1225,12 1072,37 863,37C604,37 411,-36 284,-182C157,-328 93,-514 93,-740C93,-967 157,-1154 284,-1299C411,-1444 610,-1517 882,-1517C1043,-1517 1203,-1498 1362,-1460L1362,-1219C1201,-1273 1095,-1309 905,-1314C568,-1324 422,-1064 420,-744" style="fill-rule:nonzero;"/>
            </g>
            <g id="k2" serif:id="k" transform="matrix(0.0195312,0,0,0.0195312,28.4961,0)">
                <path d="M1221,-549C1221,-195 1018,25 653,25C289,25 86,-195 86,-549C86,-903 289,-1123 653,-1123C1018,-1123 1221,-903 1221,-549ZM401,-549C401,-353 469,-160 653,-160C838,-160 906,-353 906,-549C906,-745 838,-938 653,-938C470,-938 401,-744 401,-549" style="fill-rule:nonzero;"/>
            </g>
            <g id="l1" serif:id="l" transform="matrix(0.0195312,0,0,0.0195312,54.043,0)">
                <path d="M185,0L185,-1579L481,-1579L481,0L185,0" style="fill-rule:nonzero;"/>
            </g>
            <g id="k3" serif:id="k" transform="matrix(0.0195312,0,0,0.0195312,67.0508,0)">
                <path d="M1221,-549C1221,-195 1018,25 653,25C289,25 86,-195 86,-549C86,-903 289,-1123 653,-1123C1018,-1123 1221,-903 1221,-549ZM401,-549C401,-353 469,-160 653,-160C838,-160 906,-353 906,-549C906,-745 838,-938 653,-938C470,-938 401,-744 401,-549" style="fill-rule:nonzero;"/>
            </g>
            <g id="m1" serif:id="m" transform="matrix(0.0195312,0,0,0.0195312,92.5977,0)">
                <path d="M886,-853C704,-920 552,-826 481,-697L481,0L185,0L185,-1098L481,-1098L481,-891C548,-1026 687,-1147 886,-1117L886,-853" style="fill-rule:nonzero;"/>
            </g>
        </g>
        <g id="c" transform="matrix(1,0,0,1,1110.75,259.672)">
            <g id="n" transform="matrix(0.0195312,0,0,0.0195312,0,0)">
                <path d="M400,-552C400,-337 505,-171 721,-171C810,-171 901,-190 995,-229L995,-24C709,58 382,46 228,-142C136,-255 86,-389 86,-550C87,-899 307,-1123 677,-1123C766,-1123 869,-1109 986,-1080L986,-866C865,-905 768,-925 696,-925C495,-925 400,-736 400,-552" style="fill-rule:nonzero;"/>
            </g>
            <g id="l2" serif:id="l" transform="matrix(0.0195312,0,0,0.0195312,21.2891,0)">
                <path d="M185,0L185,-1579L481,-1579L481,0L185,0" style="fill-rule:nonzero;"/>
            </g>
            <g id="o" transform="matrix(0.0195312,0,0,0.0195312,34.2969,0)">
                <path d="M1136,-3C969,47 777,40 736,-118L723,-118C632,-30 563,19 406,25C220,32 82,-112 82,-291C82,-399 127,-488 214,-562C310,-644 503,-677 723,-670L723,-770C727,-901 645,-941 525,-941C412,-941 296,-908 178,-843L178,-1047C428,-1147 797,-1168 950,-988C988,-942 1007,-872 1007,-780L1007,-294C1003,-185 1040,-157 1129,-169L1136,-3ZM510,-176C603,-179 664,-224 723,-277L723,-500C536,-510 375,-473 366,-320C361,-240 433,-173 510,-176" style="fill-rule:nonzero;"/>
            </g>
            <g id="p" transform="matrix(0.0195312,0,0,0.0195312,57.8125,0)">
                <path d="M637,-938C536,-938 453,-908 453,-825C453,-720 586,-701 675,-664C815,-606 911,-559 954,-507C1062,-375 1029,-189 900,-80C734,61 400,40 156,-35L156,-252C303,-191 428,-160 532,-160C627,-160 714,-201 714,-284C714,-403 560,-420 464,-464C363,-510 284,-551 235,-601C186,-650 161,-715 161,-794C161,-889 197,-969 272,-1030C416,-1148 693,-1140 932,-1084L932,-876C813,-917 715,-938 637,-938" style="fill-rule:nonzero;"/>
            </g>
            <g id="p1" serif:id="p" transform="matrix(0.0195312,0,0,0.0195312,80.4297,0)">
                <path d="M637,-938C536,-938 453,-908 453,-825C453,-720 586,-701 675,-664C815,-606 911,-559 954,-507C1062,-375 1029,-189 900,-80C734,61 400,40 156,-35L156,-252C303,-191 428,-160 532,-160C627,-160 714,-201 714,-284C714,-403 560,-420 464,-464C363,-510 284,-551 235,-601C186,-650 161,-715 161,-794C161,-889 197,-969 272,-1030C416,-1148 693,-1140 932,-1084L932,-876C813,-917 715,-938 637,-938" style="fill-rule:nonzero;"/>
            </g>
        </g>
        <path d="M956.5,245.5L776,245.5" style="fill:none;fill-rule:nonzero;stroke:black;stroke-width:2px;"/>
        <path d="M971.76,245.5L957.5,250.14L957.5,240.86L971.76,245.5Z" style="fill-rule:nonzero;stroke:black;stroke-width:2px;"/>
        <rect x="775" y="244.5" width="1.03" height="2"/>
        <path d="M621.8,260.86L438.98,293.62" style="fill:none;fill-rule:nonzero;stroke:black;stroke-width:2px;"/>
        <path d="M636.8,258.17L623.6,265.25L621.95,256.12L636.8,258.17Z" style="fill-rule:nonzero;stroke:black;stroke-width:2px;"/>
        <path d="M439.2,294.6L438,294.8L438,292.78L438.83,292.63L439.2,294.6Z" style="fill-rule:nonzero;"/>
        <rect x="286" y="284" width="151" height="47" style="fill:white;stroke:black;stroke-width:2px;"/>
        <g id="d" transform="matrix(1,0,0,1,298.082,320.523)">
            <g id="o1" serif:id="o" transform="matrix(0.0184462,0,0,0.0184462,0,0)">
                <path d="M1136,-3C969,47 777,40 736,-118L723,-118C632,-30 563,19 406,25C220,32 82,-112 82,-291C82,-399 127,-488 214,-562C310,-644 503,-677 723,-670L723,-770C727,-901 645,-941 525,-941C412,-941 296,-908 178,-843L178,-1047C428,-1147 797,-1168 950,-988C988,-942 1007,-872 1007,-780L1007,-294C1003,-185 1040,-157 1129,-169L1136,-3ZM510,-176C603,-179 664,-224 723,-277L723,-500C536,-510 375,-473 366,-320C361,-240 433,-173 510,-176" style="fill-rule:nonzero;"/>
            </g>
            <g id="j2" serif:id="j" transform="matrix(0.0184462,0,0,0.0184462,22.2092,0)">
                <path d="M420,-744C418,-410 597,-176 939,-176C1082,-176 1228,-213 1376,-286L1376,-59C1225,12 1072,37 863,37C604,37 411,-36 284,-182C157,-328 93,-514 93,-740C93,-967 157,-1154 284,-1299C411,-1444 610,-1517 882,-1517C1043,-1517 1203,-1498 1362,-1460L1362,-1219C1201,-1273 1095,-1309 905,-1314C568,-1324 422,-1064 420,-744" style="fill-rule:nonzero;"/>
            </g>
            <g id="k4" serif:id="k" transform="matrix(0.0184462,0,0,0.0184462,49.1222,0)">
                <path d="M1221,-549C1221,-195 1018,25 653,25C289,25 86,-195 86,-549C86,-903 289,-1123 653,-1123C1018,-1123 1221,-903 1221,-549ZM401,-549C401,-353 469,-160 653,-160C838,-160 906,-353 906,-549C906,-745 838,-938 653,-938C470,-938 401,-744 401,-549" style="fill-rule:nonzero;"/>
            </g>
            <g id="l3" serif:id="l" transform="matrix(0.0184462,0,0,0.0184462,73.2498,0)">
                <path d="M185,0L185,-1579L481,-1579L481,0L185,0" style="fill-rule:nonzero;"/>
            </g>
            <g id="k5" serif:id="k" transform="matrix(0.0184462,0,0,0.0184462,85.5349,0)">
                <path d="M1221,-549C1221,-195 1018,25 653,25C289,25 86,-195 86,-549C86,-903 289,-1123 653,-1123C1018,-1123 1221,-903 1221,-549ZM401,-549C401,-353 469,-160 653,-160C838,-160 906,-353 906,-549C906,-745 838,-938 653,-938C470,-938 401,-744 401,-549" style="fill-rule:nonzero;"/>
            </g>
            <g id="m2" serif:id="m" transform="matrix(0.0184462,0,0,0.0184462,109.663,0)">
                <path d="M886,-853C704,-920 552,-826 481,-697L481,0L185,0L185,-1098L481,-1098L481,-891C548,-1026 687,-1147 886,-1117L886,-853" style="fill-rule:nonzero;"/>
            </g>
            <path d="M-1.9,2.77L128.72,2.77L128.72,4.6L-1.88,4.6L-1.9,2.77Z" style="fill-rule:nonzero;"/>
        </g>
        <path d="M398.57,578.43L690.53,286.47" style="fill:none;fill-rule:nonzero;stroke:black;stroke-width:7px;"/>
        <g transform="matrix(1,0,0,1,5,-5)">
            <path d="M386,591L392.82,577.63L399.37,584.18L386,591Z" style="fill-rule:nonzero;stroke:black;stroke-width:7px;"/>
        </g>
        <g transform="matrix(0.860909,0,0,1.03027,245.516,-8.7028)">
            <path d="M1193.6,790.1L1134.4,287.48" style="fill:none;fill-rule:nonzero;stroke:black;stroke-width:7px;"/>
        </g>
        <g transform="matrix(1,0,0,1,80.0977,12.0617)">
            <path d="M1195.68,807.75L1189.4,794.13L1198.6,793.03L1195.68,807.75Z" style="fill-rule:nonzero;stroke:black;stroke-width:7px;"/>
        </g>
        <rect x="1275" y="305" width="170" height="95" style="fill:white;stroke:black;stroke-width:2px;"/>
        <g id="e" transform="matrix(1,0,0,1,1334.95,330.781)">
            <g id="q" transform="matrix(0.0130208,0,0,0.0130208,0,0)">
                <path d="M185,0L185,-1480L481,-1480L481,-762L1047,-1480L1303,-1480L790,-816L1427,0L1042,0L481,-728L481,0L185,0" style="fill-rule:nonzero;"/>
            </g>
            <g id="r" transform="matrix(0.0130208,0,0,0.0130208,18.9323,0)">
                <path d="M679,25C304,25 86,-196 86,-557C86,-891 271,-1123 616,-1123C757,-1123 869,-1078 953,-989C1037,-900 1079,-733 1079,-490L398,-490C410,-346 461,-268 558,-214C604,-188 666,-176 743,-176C842,-176 954,-199 1079,-245L1079,-37C938,4 805,25 679,25ZM394,-657L788,-657C788,-758 771,-829 738,-873C671,-964 529,-955 464,-866C428,-817 403,-749 394,-657" style="fill-rule:nonzero;"/>
            </g>
            <g id="s" transform="matrix(0.0130208,0,0,0.0130208,34.5573,0)">
                <path d="M189,395L438,0L31,-1098L349,-1098L621,-364L944,-1098L1169,-1098L491,395L189,395" style="fill-rule:nonzero;"/>
            </g>
        </g>
        <g id="h" transform="matrix(1,0,0,1,1297.38,370.977)">
            <g id="t" transform="matrix(0.0108507,0,0,0.0108507,0,0)">
                <path d="M179,0L397,-1098L694,-1098L475,0L179,0ZM434,-1283L486,-1542L782,-1542L730,-1283L434,-1283" style="fill-rule:nonzero;"/>
            </g>
            <g id="u" transform="matrix(0.0108507,0,0,0.0108507,7.03125,0)">
                <path d="M1140,-1123C1259,-1123 1334,-1037 1334,-904C1334,-864 1329,-820 1320,-773L1166,0L870,0L1019,-753C1030,-794 1025,-851 982,-851C935,-851 868,-796 780,-687C692,-578 614,-470 548,-364L475,0L179,0L397,-1098L693,-1098L603,-642C682,-789 767,-906 860,-993C953,-1080 1046,-1123 1140,-1123" style="fill-rule:nonzero;"/>
            </g>
            <g id="v" transform="matrix(0.0108507,0,0,0.0108507,21.4844,0)">
                <path d="M968,-309C968,-90 765,25 516,25C395,25 268,1 133,-48L175,-260C315,-193 433,-160 528,-160C627,-160 719,-248 664,-342C612,-431 394,-604 360,-684C303,-819 340,-919 440,-1021C563,-1147 887,-1143 1084,-1076L1043,-872C943,-916 854,-938 776,-938C660,-938 578,-851 638,-760C700,-665 872,-550 928,-452C953,-408 968,-362 968,-309" style="fill-rule:nonzero;"/>
            </g>
            <g id="w" transform="matrix(0.0108507,0,0,0.0108507,32.7257,0)">
                <path d="M556,-280C554,-163 691,-163 781,-204L742,-10C674,9 608,19 543,19C361,19 250,-64 250,-208C250,-243 256,-293 269,-358L379,-913L231,-913L268,-1098L416,-1098L453,-1283L757,-1323L712,-1098L940,-1098L903,-913L675,-913L569,-377C560,-336 556,-303 556,-280" style="fill-rule:nonzero;"/>
            </g>
            <g id="x" transform="matrix(0.0108507,0,0,0.0108507,41.8294,0)">
                <path d="M581,-1012C739,-1113 878,-1151 1064,-1098L1360,-1098L1141,0L845,0L936,-456C865,-320 780,-206 682,-114C584,-22 490,25 400,25C263,25 168,-120 168,-246C168,-534 397,-894 581,-1012ZM471,-322C472,-284 488,-241 530,-241C583,-241 658,-297 754,-409C850,-521 927,-624 988,-719L1025,-901C917,-959 800,-948 706,-861C649,-808 593,-726 544,-608C495,-490 471,-395 471,-322" style="fill-rule:nonzero;"/>
            </g>
            <g id="u1" serif:id="u" transform="matrix(0.0108507,0,0,0.0108507,56.0872,0)">
                <path d="M1140,-1123C1259,-1123 1334,-1037 1334,-904C1334,-864 1329,-820 1320,-773L1166,0L870,0L1019,-753C1030,-794 1025,-851 982,-851C935,-851 868,-796 780,-687C692,-578 614,-470 548,-364L475,0L179,0L397,-1098L693,-1098L603,-642C682,-789 767,-906 860,-993C953,-1080 1046,-1123 1140,-1123" style="fill-rule:nonzero;"/>
            </g>
            <g id="y" transform="matrix(0.0108507,0,0,0.0108507,70.5404,0)">
                <path d="M485,-396C485,-225 613,-162 775,-204C871,-229 958,-256 1040,-306L994,-72C840,-7 694,25 557,25C336,25 166,-118 170,-344C176,-636 348,-894 547,-1014C749,-1136 928,-1154 1168,-1073L1127,-864C946,-949 839,-973 690,-870C581,-794 485,-577 485,-396" style="fill-rule:nonzero;"/>
            </g>
            <g id="z" transform="matrix(0.0108507,0,0,0.0108507,82.1723,0)">
                <path d="M464,-389C468,-150 679,-145 884,-212C972,-241 1065,-279 1160,-334L1114,-104C952,-26 776,25 580,25C337,25 170,-108 170,-345C170,-629 350,-902 537,-1018C646,-1086 758,-1123 878,-1123C1040,-1123 1158,-1038 1159,-889C1159,-809 1132,-733 1078,-660C964,-507 729,-400 464,-389ZM881,-827C880,-882 843,-925 782,-925C731,-925 677,-895 618,-836C559,-777 515,-690 486,-573C619,-573 718,-601 783,-656C848,-711 881,-768 881,-827" style="fill-rule:nonzero;"/>
            </g>
        </g>
        <g id="i" transform="matrix(1,0,0,1,1399.53,370.977)">
            <g id="A" transform="matrix(0.0108507,0,0,0.0108507,0,0)">
                <path d="M888,-1123C1132,-1123 1307,-985 1307,-756C1307,-477 1126,-189 944,-76C839,-11 720,25 583,25C348,25 169,-116 170,-342C171,-622 351,-910 536,-1022C643,-1087 759,-1123 888,-1123ZM530,-660C465,-495 430,-167 646,-167C813,-167 891,-299 947,-440C1012,-607 1049,-931 827,-931C667,-931 585,-798 530,-660" style="fill-rule:nonzero;"/>
            </g>
            <g id="B" transform="matrix(0.0108507,0,0,0.0108507,13.6502,0)">
                <path d="M125,395L385,-913L231,-913L268,-1098L422,-1098C457,-1293 579,-1461 732,-1542C889,-1625 1032,-1617 1230,-1564L1191,-1368C1114,-1402 1040,-1419 971,-1419C845,-1419 765,-1333 731,-1161L718,-1098L1008,-1098L971,-913L681,-913L421,395L125,395" style="fill-rule:nonzero;"/>
            </g>
        </g>
        <path d="M1390.62,385L1316,385" style="fill:none;fill-rule:nonzero;stroke:black;stroke-width:2px;"/>
        <path d="M1405.88,385L1391.62,389.64L1391.62,380.36L1405.88,385Z" style="fill-rule:nonzero;stroke:black;stroke-width:2px;"/>
        <path d="M1316.03,385L1315,385" style="fill:none;fill-rule:nonzero;stroke:black;stroke-width:2px;"/>
    </g>
</svg>
