<svg xmlns="http://www.w3.org/2000/svg" xmlns:xlink="http://www.w3.org/1999/xlink" xmlns:lucid="lucid" width="1361" height="674"><g transform="translate(-266 -201)" lucid:page-tab-id="eFxVeX5PwXvK9"><path d="M641 221h133v49H641z" stroke="#000" stroke-width="2" fill="#fff"/><use xlink:href="#a" transform="matrix(1,0,0,1,641,221) translate(11.109375 38.671875)"/><path d="M976 221h249v49H976z" stroke="#000" stroke-width="2" fill="#fff"/><use xlink:href="#b" transform="matrix(1,0,0,1,976,221) translate(11.19921875 38.671875)"/><use xlink:href="#c" transform="matrix(1,0,0,1,976,221) translate(134.75390625 38.671875)"/><path d="M956.5 245.5H776" stroke="#000" stroke-width="2" fill="none"/><path d="M971.76 245.5l-14.26 4.64v-9.28z" stroke="#000" stroke-width="2"/><path d="M776.03 246.5H775v-2h1.03z"/><path d="M621.8 260.86l-182.82 32.76" stroke="#000" stroke-width="2" fill="none"/><path d="M636.8 258.17l-13.2 7.08-1.65-9.13z" stroke="#000" stroke-width="2"/><path d="M439.2 294.6l-1.2.2v-2.02l.83-.15z"/><path d="M286 284h151v47H286z" stroke="#000" stroke-width="2" fill="#fff"/><use xlink:href="#d" transform="matrix(1,0,0,1,286,284) translate(12.08203125 36.5234375)"/><path d="M398.57 578.43l291.96-291.96" stroke="#000" stroke-width="7" fill="none"/><path d="M386 591l6.82-13.37 6.55 6.55z" stroke="#000" stroke-width="7"/><path d="M690.46 286.54L693 284M1193.6 790.1l-59.2-502.62" stroke="#000" stroke-width="7" fill="none"/><path d="M1195.68 807.75l-6.28-13.62 9.2-1.1z" stroke="#000" stroke-width="7"/><path d="M1134.42 287.57L1134 284" stroke="#000" stroke-width="7" fill="none"/><path d="M1418 378h189v126h-189z" stroke="#000" stroke-width="2" fill="#fff"/><path d="M1575.06 473H1449" stroke="#000" stroke-width="2" fill="#fff" fill-opacity="0"/><path d="M1437 433h149v29h-149z" stroke="#000" stroke-opacity="0" stroke-width="2" fill="#fff"/><path d="M1464 394h73v33h-73z" stroke="#000" stroke-opacity="0" stroke-width="2" fill="#fff" fill-opacity="0"/><use xlink:href="#e" transform="matrix(1,0,0,1,1436.9945,432.999) translate(12.689887152777771 23.3984375)"/><use xlink:href="#f" transform="matrix(1,0,0,1,1464.0026,394.002) translate(11.447916666666664 26.578125)"/><defs><path d="M420-744c-2 334 177 568 519 568 143 0 289-37 437-110v227c-151 71-304 96-513 96-259 0-452-73-579-219S93-514 93-740c0-227 64-414 191-559s326-218 598-218c161 0 321 19 480 57v241c-161-54-267-90-457-95-337-10-483 250-485 570" id="g"/><path d="M1221-549c0 354-203 574-568 574C289 25 86-195 86-549s203-574 567-574c365 0 568 220 568 574zm-820 0c0 196 68 389 252 389 185 0 253-193 253-389s-68-389-253-389c-183 0-252 194-252 389" id="h"/><path d="M185 0v-1579h296V0H185" id="i"/><path d="M886-853c-182-67-334 27-405 156V0H185v-1098h296v207c67-135 206-256 405-226v264" id="j"/><g id="a"><use transform="matrix(0.01953125,0,0,0.01953125,0,0)" xlink:href="#g"/><use transform="matrix(0.01953125,0,0,0.01953125,28.49609375,0)" xlink:href="#h"/><use transform="matrix(0.01953125,0,0,0.01953125,54.04296875,0)" xlink:href="#i"/><use transform="matrix(0.01953125,0,0,0.01953125,67.05078125,0)" xlink:href="#h"/><use transform="matrix(0.01953125,0,0,0.01953125,92.59765625,0)" xlink:href="#j"/></g><g id="b"><use transform="matrix(0.01953125,0,0,0.01953125,0,0)" xlink:href="#g"/><use transform="matrix(0.01953125,0,0,0.01953125,28.49609375,0)" xlink:href="#h"/><use transform="matrix(0.01953125,0,0,0.01953125,54.04296875,0)" xlink:href="#i"/><use transform="matrix(0.01953125,0,0,0.01953125,67.05078125,0)" xlink:href="#h"/><use transform="matrix(0.01953125,0,0,0.01953125,92.59765625,0)" xlink:href="#j"/></g><path d="M400-552c0 215 105 381 321 381 89 0 180-19 274-58v205C709 58 382 46 228-142 136-255 86-389 86-550c1-349 221-573 591-573 89 0 192 14 309 43v214c-121-39-218-59-290-59-201 0-296 189-296 373" id="k"/><path d="M1136-3C969 47 777 40 736-118h-13C632-30 563 19 406 25 220 32 82-112 82-291c0-108 45-197 132-271 96-82 289-115 509-108v-100c4-131-78-171-198-171-113 0-229 33-347 98v-204c250-100 619-121 772 59 38 46 57 116 57 208v486c-4 109 33 137 122 125zM510-176c93-3 154-48 213-101v-223c-187-10-348 27-357 180-5 80 67 147 144 144" id="l"/><path d="M637-938c-101 0-184 30-184 113 0 105 133 124 222 161 140 58 236 105 279 157 108 132 75 318-54 427C734 61 400 40 156-35v-217c147 61 272 92 376 92 95 0 182-41 182-124 0-119-154-136-250-180-101-46-180-87-229-137-49-49-74-114-74-193 0-95 36-175 111-236 144-118 421-110 660-54v208c-119-41-217-62-295-62" id="m"/><g id="c"><use transform="matrix(0.01953125,0,0,0.01953125,0,0)" xlink:href="#k"/><use transform="matrix(0.01953125,0,0,0.01953125,21.2890625,0)" xlink:href="#i"/><use transform="matrix(0.01953125,0,0,0.01953125,34.296875,0)" xlink:href="#l"/><use transform="matrix(0.01953125,0,0,0.01953125,57.8125,0)" xlink:href="#m"/><use transform="matrix(0.01953125,0,0,0.01953125,80.4296875,0)" xlink:href="#m"/></g><g id="d"><use transform="matrix(0.018446180555555556,0,0,0.018446180555555556,0,0)" xlink:href="#l"/><use transform="matrix(0.018446180555555556,0,0,0.018446180555555556,22.20920138888889,0)" xlink:href="#g"/><use transform="matrix(0.018446180555555556,0,0,0.018446180555555556,49.12217881944444,0)" xlink:href="#h"/><use transform="matrix(0.018446180555555556,0,0,0.018446180555555556,73.24978298611111,0)" xlink:href="#i"/><use transform="matrix(0.018446180555555556,0,0,0.018446180555555556,85.53493923611111,0)" xlink:href="#h"/><use transform="matrix(0.018446180555555556,0,0,0.018446180555555556,109.66254340277779,0)" xlink:href="#j"/><path d="M-1.9 2.77h130.62V4.6H-1.88z"/></g><path d="M179 0l218-1098h297L475 0H179zm255-1283l52-259h296l-52 259H434" id="n"/><path d="M1140-1123c119 0 194 86 194 219 0 40-5 84-14 131L1166 0H870l149-753c11-41 6-98-37-98-47 0-114 55-202 164S614-470 548-364L475 0H179l218-1098h296l-90 456c79-147 164-264 257-351s186-130 280-130" id="o"/><path d="M968-309C968-90 765 25 516 25 395 25 268 1 133-48l42-212c140 67 258 100 353 100 99 0 191-88 136-182-52-89-270-262-304-342-57-135-20-235 80-337 123-126 447-122 644-55l-41 204c-100-44-189-66-267-66-116 0-198 87-138 178 62 95 234 210 290 308 25 44 40 90 40 143" id="p"/><path d="M556-280c-2 117 135 117 225 76L742-10C674 9 608 19 543 19c-182 0-293-83-293-227 0-35 6-85 19-150l110-555H231l37-185h148l37-185 304-40-45 225h228l-37 185H675L569-377c-9 41-13 74-13 97" id="q"/><path d="M581-1012c158-101 297-139 483-86h296L1141 0H845l91-456c-71 136-156 250-254 342S490 25 400 25c-137 0-232-145-232-271 0-288 229-648 413-766zM471-322c1 38 17 81 59 81 53 0 128-56 224-168s173-215 234-310l37-182c-108-58-225-47-319 40-57 53-113 135-162 253s-73 213-73 286" id="r"/><path d="M485-396c0 171 128 234 290 192 96-25 183-52 265-102L994-72C840-7 694 25 557 25c-221 0-391-143-387-369 6-292 178-550 377-670 202-122 381-140 621-59l-41 209c-181-85-288-109-437-6-109 76-205 293-205 474" id="s"/><path d="M464-389c4 239 215 244 420 177 88-29 181-67 276-122l-46 230C952-26 776 25 580 25c-243 0-410-133-410-370 0-284 180-557 367-673 109-68 221-105 341-105 162 0 280 85 281 234 0 80-27 156-81 229-114 153-349 260-614 271zm417-438c-1-55-38-98-99-98-51 0-105 30-164 89S515-690 486-573c133 0 232-28 297-83s98-112 98-171" id="t"/><path d="M193-537l37-185h444l-37 185H193" id="u"/><path d="M888-1123c244 0 419 138 419 367 0 279-181 567-363 680C839-11 720 25 583 25c-235 0-414-141-413-367 1-280 181-568 366-680 107-65 223-101 352-101zM530-660c-65 165-100 493 116 493 167 0 245-132 301-273 65-167 102-491-120-491-160 0-242 133-297 271" id="v"/><path d="M125 395L385-913H231l37-185h154c35-195 157-363 310-444 157-83 300-75 498-22l-39 196c-77-34-151-51-220-51-126 0-206 86-240 258l-13 63h290l-37 185H681L421 395H125" id="w"/><g id="e"><use transform="matrix(0.010850694444444444,0,0,0.010850694444444444,0,0)" xlink:href="#n"/><use transform="matrix(0.010850694444444444,0,0,0.010850694444444444,7.03125,0)" xlink:href="#o"/><use transform="matrix(0.010850694444444444,0,0,0.010850694444444444,21.484375,0)" xlink:href="#p"/><use transform="matrix(0.010850694444444444,0,0,0.010850694444444444,32.72569444444444,0)" xlink:href="#q"/><use transform="matrix(0.010850694444444444,0,0,0.010850694444444444,41.82942708333333,0)" xlink:href="#r"/><use transform="matrix(0.010850694444444444,0,0,0.010850694444444444,56.08723958333333,0)" xlink:href="#o"/><use transform="matrix(0.010850694444444444,0,0,0.010850694444444444,70.54036458333333,0)" xlink:href="#s"/><use transform="matrix(0.010850694444444444,0,0,0.010850694444444444,82.17230902777777,0)" xlink:href="#t"/><use transform="matrix(0.010850694444444444,0,0,0.010850694444444444,94.83506944444444,0)" xlink:href="#u"/><use transform="matrix(0.010850694444444444,0,0,0.010850694444444444,101.52994791666666,0)" xlink:href="#v"/><use transform="matrix(0.010850694444444444,0,0,0.010850694444444444,115.1801215277778,0)" xlink:href="#w"/></g><path d="M185 0v-1480h296v718l566-718h256L790-816 1427 0h-385L481-728V0H185" id="x"/><path d="M679 25C304 25 86-196 86-557c0-334 185-566 530-566 141 0 253 45 337 134s126 256 126 499H398c12 144 63 222 160 276 46 26 108 38 185 38 99 0 211-23 336-69v208C938 4 805 25 679 25zM394-657h394c0-101-17-172-50-216-67-91-209-82-274 7-36 49-61 117-70 209" id="y"/><path d="M189 395L438 0 31-1098h318l272 734 323-734h225L491 395H189" id="z"/><g id="f"><use transform="matrix(0.013020833333333334,0,0,0.013020833333333334,0,0)" xlink:href="#x"/><use transform="matrix(0.013020833333333334,0,0,0.013020833333333334,18.932291666666668,0)" xlink:href="#y"/><use transform="matrix(0.013020833333333334,0,0,0.013020833333333334,34.55729166666667,0)" xlink:href="#z"/></g></defs></g></svg>