<svg xmlns="http://www.w3.org/2000/svg" xmlns:xlink="http://www.w3.org/1999/xlink" xmlns:lucid="lucid" width="1735" height="672.81"><g transform="translate(-5 -327.85575522594445)" lucid:page-tab-id="lnCkuOsLKYn4q"><path d="M299.64 879.95l-1.6 1.22-44.1-57.53v-3.3zm-62.55-81.6v3.3L154.87 694.4l1.6-1.2z" fill="#010101"/><path d="M299.95 882l-20.12-8.1.75-1.86 16.98 6.84-2.2-18.18 2-.24zM156.48 693.2l-1.58 1.22-1.1-1.42h2.53z" fill="#010101"/><use xlink:href="#a" transform="matrix(1,0,0,1,237.0903891370094,795.2940366268158) translate(0.005000000000000782 25.78125)"/><path d="M25 655h231v38H25z" stroke="#000" stroke-opacity="0" stroke-width="2" fill="#fff" fill-opacity="0"/><use xlink:href="#b" transform="matrix(1,0,0,1,25,655) translate(12.117838541666657 30.7578125)"/><use xlink:href="#c" transform="matrix(1,0,0,1,25,655) translate(166.24544270833334 30.7578125)"/><path d="M365.6 881.82l.3.7-.3.7-.7.3-.7-.3-.3-.7.3-.7.7-.3zm7.2-3.45l.28.7-.3.72-.7.28-.7-.3-.3-.7.3-.7.7-.3zm7.44-2.8l.3.7-.3.7-.7.3-.7-.3-.3-.7.3-.7.7-.3zm7.63-2.32l.3.7-.3.7-.7.3-.72-.3-.3-.7.3-.7.7-.3zm7.73-1.94l.3.72-.3.7-.7.3-.72-.3-.3-.7.3-.7.7-.3zm7.8-1.52l.3.7-.3.72-.7.3-.7-.3-.3-.7.3-.72.7-.3zm7.87-1.37l.3.72-.3.7-.7.3-.72-.3-.3-.7.3-.7.7-.3zm7.85-1.35l.3.7-.3.7-.7.3-.72-.3-.3-.7.3-.7.7-.3zm7.85-1.37l.3.7-.3.7-.7.3-.7-.3-.3-.7.3-.7.7-.3zm7.85-1.37l.3.72-.3.7-.7.3-.7-.3-.3-.7.3-.7.7-.3zm7.85-1.35l.3.7-.3.7-.7.3-.7-.3-.3-.7.3-.7.7-.3zm7.85-1.4l.3.72-.3.7-.7.3-.7-.3-.3-.7.3-.7.7-.3zm7.83-1.52l.3.7-.3.72-.7.3-.72-.3-.3-.7.3-.72.7-.3zm7.82-1.53l.3.7-.3.72-.7.3-.72-.3-.3-.7.3-.72.7-.3zm7.77-1.76l.3.7-.3.7-.7.3-.72-.3-.3-.7.3-.7.7-.3zm7.74-1.9l.3.7-.3.7-.7.3-.72-.3-.3-.7.3-.7.7-.3zm7.66-2.2l.3.7-.3.72-.7.3-.72-.3-.3-.7.3-.72.7-.3zm7.58-2.46l.3.7-.3.7-.7.3-.72-.3-.3-.7.3-.7.7-.3zm7.48-2.75l.3.7-.3.7-.7.3-.72-.3-.3-.7.3-.7.7-.3zm7.35-3.07l.3.7-.3.72-.7.3-.7-.3-.3-.7.3-.72.7-.3zm7.2-3.43l.3.7-.3.72-.7.3-.72-.3-.3-.7.3-.72.7-.3zm7-3.82l.28.7-.3.72-.7.3-.7-.3-.3-.7.3-.7.7-.3zm6.76-4.18l.3.7-.3.7-.7.3-.7-.3-.3-.7.3-.7.7-.3zm6.52-4.6l.3.7-.3.7-.7.3-.7-.3-.3-.7.3-.7.7-.3zm6.2-5l.3.72-.3.7-.7.3-.7-.3-.3-.7.3-.7.7-.3zm5.9-5.37l.3.7-.3.72-.7.3-.72-.3-.3-.7.3-.72.7-.3zm5.52-5.73l.3.7-.3.7-.7.3-.7-.3-.3-.7.3-.7.7-.3zm5.15-6.1l.28.72-.3.7-.7.3-.7-.3-.3-.7.3-.7.7-.3zm4.76-6.37l.3.7-.3.7-.7.3-.72-.3-.3-.7.3-.7.7-.3zm4.38-6.66l.3.7-.3.7-.7.3-.72-.3-.3-.7.3-.7.7-.3zm3.98-6.9l.3.7-.3.7-.7.3-.72-.3-.3-.7.3-.7.7-.3zm3.62-7.1l.3.7-.3.7-.7.3-.72-.3-.3-.7.3-.7.7-.3zm3.26-7.28l.3.7-.3.72-.7.3-.7-.3-.3-.7.3-.72.7-.3zm2.92-7.4l.3.7-.3.7-.7.3-.7-.3-.3-.7.3-.7.7-.3zm2.6-7.55l.28.7-.3.7-.7.3-.7-.3-.3-.7.3-.7.7-.3zm2.2-7.65l.3.7-.3.7-.7.3-.7-.3-.3-.7.3-.7.7-.3zm1.86-7.75l.3.7-.3.7-.7.3-.7-.3-.3-.7.3-.7.7-.3zm1.46-7.84l.3.7-.3.7-.7.3-.72-.3-.3-.7.3-.7.7-.3zm1.04-7.9l.3.7-.3.7-.7.3-.7-.3-.3-.7.3-.7.7-.3zm.7-7.94l.28.7-.3.7-.7.3-.7-.3-.3-.7.3-.7.7-.3zm.34-7.97l.3.7-.3.7-.7.3-.7-.3-.3-.7.3-.7.7-.3zm.04-7.97l.3.7-.3.72-.7.3-.72-.3-.3-.7.3-.72.7-.3zm-.26-7.96l.3.7-.3.7-.7.3-.7-.3-.3-.7.3-.7.7-.3zm-.57-7.95l.3.7-.3.7-.7.3-.7-.3-.3-.7.3-.7.7-.3zm-.84-7.93l.3.7-.3.72-.7.3-.72-.3-.3-.7.3-.72.7-.3zm-1.05-7.9l.3.7-.3.72-.7.3-.7-.3-.3-.7.3-.72.7-.3zm-1.23-7.87l.3.7-.3.7-.7.3-.72-.3-.3-.7.3-.7.7-.3zm-1.52-7.83l.3.7-.3.72-.7.3-.7-.3-.3-.7.3-.72.7-.3zm-1.57-7.8l.3.7-.3.7-.7.3-.72-.3-.28-.7.3-.7.7-.3zm-1.9-7.75l.3.7-.3.7-.7.3-.7-.3-.3-.7.3-.7.7-.3zm-1.9-7.74l.3.7-.3.7-.7.3-.7-.3-.3-.7.3-.7.7-.3zm-2.14-7.68l.28.7-.3.72-.7.3-.7-.3-.3-.7.3-.72.7-.3zm-2.23-7.65l.3.7-.3.7-.7.3-.7-.3-.3-.7.3-.7.7-.3zm-2.22-7.66l.3.7-.3.72-.7.3-.7-.3-.3-.7.3-.72.7-.3zm-2.63-7.52l.3.7-.3.72-.7.3-.7-.3-.3-.7.3-.72.7-.3zm-2.67-7.5l.3.7-.3.7-.7.3-.7-.3-.3-.7.3-.7.7-.3zm-2.67-7.52l.3.7-.3.72-.7.3-.7-.3-.3-.7.3-.72.7-.3zm-13.34-37.55l.3.7-.3.72-.7.3-.7-.3-.3-.7.3-.72.7-.3zm-2.67-7.5l.3.7-.3.7-.7.3-.7-.3-.3-.7.3-.7.7-.3zm-2.66-7.52l.3.7-.3.72-.7.3-.7-.3-.3-.7.3-.72.7-.3zm-2.66-7.5l.3.7-.3.7-.7.3-.72-.3-.3-.7.3-.7.7-.3zm-2.67-7.52l.3.72-.3.7-.7.3-.7-.3-.3-.7.3-.7.7-.3zm-2.64-7.5l.3.7-.3.7-.7.3-.7-.3-.3-.7.3-.7.7-.3zm-2.55-7.56l.3.7-.3.7-.7.3-.7-.3-.3-.7.3-.7.7-.3zm-2.55-7.55l.3.7-.3.7-.7.3-.7-.3-.3-.7.3-.7.7-.3zm-2.55-7.56l.3.7-.3.7-.7.3-.7-.3-.3-.7.3-.7.7-.3zm-2.52-7.56l.3.7-.3.7-.7.3-.72-.3-.3-.7.3-.7.7-.3zm-2.22-7.66l.3.7-.3.72-.7.3-.7-.3-.3-.7.3-.72.7-.3zm-2.22-7.65l.3.7-.3.7-.7.3-.7-.3-.3-.7.3-.7.7-.3zm-1.97-7.72l.3.7-.3.7-.7.3-.7-.3-.3-.7.3-.7.7-.3zm-1.86-7.75l.28.7-.3.7-.7.3-.7-.3-.3-.7.3-.7.7-.3zm-1.58-7.82l.3.7-.3.72-.7.3-.7-.3-.3-.7.3-.72.7-.3zm-1.3-7.86l.28.7-.3.72-.7.3-.7-.3-.3-.7.3-.72.7-.3zm-1.03-7.9l.28.7-.3.7-.7.3-.7-.3-.3-.7.3-.7.7-.3zm-.68-7.94l.3.7-.3.7-.7.3-.7-.3-.3-.7.3-.7.7-.3zm-.22-7.97l.3.72-.3.7-.7.3-.7-.3-.3-.7.3-.7.7-.3zm.26-7.95l.3.7-.3.7-.7.3-.7-.3-.3-.7.3-.7.7-.3zm.83-7.92l.3.7-.3.7-.7.3-.72-.3-.3-.7.3-.7.7-.3zm1.45-7.84l.3.7-.3.7-.7.3-.7-.3-.3-.7.3-.7.7-.3zm189.44-2.1l.28.7-.3.7-.7.3-.7-.3-.3-.7.3-.7.7-.3zm-7.87-1.28l.3.7-.3.7-.7.3-.7-.3-.3-.7.3-.7.7-.3zm-7.67-2.14l.3.7-.3.7-.7.3-.72-.3-.3-.7.3-.7.7-.3zm-171.76-2.16l.3.7-.3.72-.7.3-.7-.3-.3-.7.3-.72.7-.3zm164.23-.47l.3.7-.3.7-.7.3-.7-.3-.3-.7.3-.7.7-.3zm-7.38-3l.3.72-.3.7-.7.3-.72-.3-.3-.7.3-.7.7-.3zm-7.35-3.1l.3.72-.3.7-.7.3-.7-.3-.3-.7.3-.7.7-.3zm-146.66-.87l.3.7-.3.7-.7.3-.7-.3-.3-.7.3-.7.7-.3zm139.37-2.33l.3.7-.3.7-.7.3-.7-.3-.3-.7.3-.7.7-.3zm-7.28-3.22l.3.7-.3.7-.7.3-.72-.3-.3-.7.3-.7.7-.3zm-128.58-1.6l.3.7-.3.7-.7.3-.72-.3-.3-.7.3-.7.7-.3zm121.3-1.62l.28.72-.3.7-.7.3-.7-.3-.3-.7.3-.7.7-.3zm-7.3-3.2l.3.7-.3.7-.7.3-.72-.3-.3-.7.3-.7.7-.3zm-109.7-1.88l.3.7-.3.7-.7.3-.72-.3-.3-.7.3-.7.7-.3zm102.4-1.34l.3.7-.3.72-.7.3-.7-.3-.3-.7.3-.72.7-.3zm-7.3-3.2l.3.7-.3.7-.7.3-.7-.3-.3-.7.3-.7.7-.3zm-89.9-1.5l.3.72-.3.7-.7.3-.7-.3-.3-.7.3-.7.7-.3zm82.62-1.73l.3.7-.3.7-.7.3-.72-.3-.3-.7.3-.7.7-.3zm-7.45-2.83l.3.7-.3.72-.7.3-.7-.3-.3-.7.3-.72.7-.3zm-69.03-.5l.3.7-.3.7-.7.3-.72-.3-.3-.7.3-.7.7-.3zm61.5-2.06l.3.7-.3.72-.7.3-.72-.3-.3-.7.3-.72.7-.3zm-54.56-1.83l.3.7-.3.7-.7.3-.7-.3-.3-.7.3-.7.7-.3zm46.9-.4l.3.7-.3.7-.7.3-.7-.3-.3-.7.3-.7.7-.3zm-7.74-1.85l.3.7-.3.7-.7.3-.7-.3-.3-.7.3-.7.7-.3zm-31.62-.32l.3.7-.3.7-.7.3-.7-.3-.3-.7.3-.7.7-.3zm23.76-.96l.3.7-.3.7-.7.3-.72-.3-.3-.7.3-.7.7-.3zm-15.9-.38l.3.7-.3.72-.7.3-.72-.3-.3-.7.3-.72.7-.3zm7.96-.24l.3.7-.3.7-.7.3-.72-.3-.3-.7.3-.7.7-.3z" fill="#010101"/><path d="M713 385l-20.35 7.5-.7-1.87 17.18-6.34-13.83-12 1.3-1.52zM364.63 882h-.87l.66-.37z" fill="#010101"/><use xlink:href="#d" transform="matrix(1,0,0,1,553.4557079080869,550.3691005268406) translate(0.005000000000000782 25.78125)"/><path d="M1374 820h273.34l72.66 27.93V953h-346z" stroke="#000" stroke-width="2" fill="#fff"/><path d="M1643.88 820c10.38 0 6.92 4 6.92 26.6 58.82 0 69.2-1.33 69.2 2.66 0-4 0-2.66-34.6-15.96s-31.14-13.3-41.52-13.3zM1710 868h-124M1710 904h-124" stroke="#000" stroke-width="2" fill="#fff"/><path d="M1710 939.98h-124" fill="#fff"/><path d="M1711 939.98c0 .55-.45 1-1 1s-1-.45-1-1 .45-1 1-1 1 .45 1 1zm-7.75 0c0 .55-.45 1-1 1s-1-.45-1-1 .45-1 1-1 1 .45 1 1zm-7.75 0c0 .55-.45 1-1 1s-1-.45-1-1 .45-1 1-1 1 .45 1 1zm-7.75 0c0 .55-.45 1-1 1s-1-.45-1-1 .45-1 1-1 1 .45 1 1zm-7.75 0c0 .55-.45 1-1 1s-1-.45-1-1 .45-1 1-1 1 .45 1 1zm-7.75 0c0 .55-.45 1-1 1s-1-.45-1-1 .45-1 1-1 1 .45 1 1zm-7.75 0c0 .55-.45 1-1 1s-1-.45-1-1 .45-1 1-1 1 .45 1 1zm-7.75 0c0 .55-.45 1-1 1s-1-.45-1-1 .45-1 1-1 1 .45 1 1zm-7.75 0c0 .55-.45 1-1 1s-1-.45-1-1 .45-1 1-1 1 .45 1 1zm-7.75 0c0 .55-.45 1-1 1-.56 0-1-.45-1-1s.44-1 1-1c.55 0 1 .45 1 1zm-7.75 0c0 .55-.45 1-1 1-.56 0-1-.45-1-1s.44-1 1-1c.55 0 1 .45 1 1zm-7.75 0c0 .55-.45 1-1 1-.56 0-1-.45-1-1s.44-1 1-1c.55 0 1 .45 1 1zm-7.75 0c0 .55-.45 1-1 1-.56 0-1-.45-1-1s.44-1 1-1c.55 0 1 .45 1 1zm-7.75 0c0 .55-.45 1-1 1-.56 0-1-.45-1-1s.44-1 1-1c.55 0 1 .45 1 1zm-7.75 0c0 .55-.45 1-1 1-.56 0-1-.45-1-1s.44-1 1-1c.55 0 1 .45 1 1zm-7.76 0c0 .55-.44 1-1 1-.55 0-1-.45-1-1s.45-1 1-1c.56 0 1 .45 1 1z"/><use xlink:href="#e" transform="matrix(1,0,0,1,1374,820) translate(148.1953125 25.78125)"/><use xlink:href="#f" transform="matrix(1,0,0,1,1374,820) translate(11 57.1875)"/><use xlink:href="#g" transform="matrix(1,0,0,1,1374,820) translate(11 88.59375)"/><use xlink:href="#h" transform="matrix(1,0,0,1,1374,820) translate(132.58854166666669 88.59375)"/><use xlink:href="#i" transform="matrix(1,0,0,1,1374,820) translate(11 120)"/><path d="M741 488h238v49H741z" stroke="#000" stroke-width="2" fill="#fff"/><use xlink:href="#j" transform="matrix(1,0,0,1,741,488) translate(52.59375 38.671875)"/><path d="M687 614h347v49H687z" stroke="#000" stroke-width="2" fill="#fff"/><use xlink:href="#k" transform="matrix(1,0,0,1,687,614) translate(13.59765625 38.671875)"/><path d="M860 448.5V487" stroke="#000" stroke-width="2" fill="none"/><path d="M860 433.24l4.64 14.26h-9.28z" stroke="#000" stroke-width="2" fill="#fff"/><path d="M861 487h-2v-.03h2z"/><path d="M860.17 556.5l.22 55.5" stroke="#000" stroke-width="2" fill="none"/><path d="M860.1 541.24l4.7 14.24-9.26.04z" stroke="#000" stroke-width="2" fill="#fff"/><path d="M861.4 613h-2v-1.02h2z"/><path d="M687 740h347v49H687z" stroke="#000" stroke-width="2" fill="#fff"/><use xlink:href="#l" transform="matrix(1,0,0,1,687,740) translate(39.291015625 38.671875)"/><path d="M752.15 803.82l-.07.17-.64 1.64-.6 1.86-.58 2.2-.58 2.8-.67 4.42-1.87 14.9-.7 3.35-.73 2.75-.8 2.43-.84 2.22-.94 2.08-1.02 2-1.14 1.94-1.26 1.9-1.4 1.9-1.6 1.93-1.8 1.96-2.06 2-2.38 2.07-2.78 2.2-3.3 2.3-3.96 2.47-4.85 2.67-6.07 2.93-7.77 3.25-10.26 3.65L681 883l-11.08 2.87-11.68 2.5-12.43 2.13-13.36 1.7-14.6 1.26-16.25.7-18.7.04-22.9-.94-34.18-2.87-79.35-8.24-13.08-.54h-9.34l-7.1.32" stroke="#000" stroke-width="2" fill="none"/><path d="M761.92 792.46l-5.78 13.84-7.03-6.04z" stroke="#000" stroke-width="2"/><path d="M417 882h-4.03l-.06-.8 4.03-.27z"/><path d="M215 883h209v49H215z" stroke="#000" stroke-width="2" fill="#fff"/><use xlink:href="#m" transform="matrix(1,0,0,1,215,883) translate(11.8046875 39.6171875)"/><path d="M860.5 682.5V738" stroke="#000" stroke-width="2" fill="none"/><path d="M860.5 667.24l4.64 14.26h-9.28z" stroke="#000" stroke-width="2" fill="#fff"/><path d="M861.5 739h-2v-1.03h2z"/><path d="M1173.96 568.95l7.84 32.84 5.47 28 3.73 24.58 2.4 22 1.33 19.9.45 18.2-.28 16.77-.92 15.56-1.47 14.53-1.95 13.63-2.4 12.86-2.8 12.17-3.2 11.58-3.55 11.07-3.9 10.6-4.26 10.23-4.6 9.86-4.95 9.56-5.32 9.3-5.7 9.04-6.1 8.85-6.54 8.66-7 8.52-7.5 8.4-1.5 1.6-8.37 8.48-8.1 7.54-7.86 6.75-7.7 6.07-7.63 5.5-7.56 4.98-7.55 4.54-7.6 4.15-7.72 3.78-7.88 3.47-8.1 3.17-8.4 2.9-8.8 2.6-9.33 2.37-10 2.07-10.9 1.8-12.1 1.48-13.85 1.1-16.52.62-21.32-.1-130.08-9.22-46.5-2.2L713 979l-25.2.13-35.5-1-29.26-2.04-24.94-2.82-22.02-3.42-20.28-4.02-19.92-4.84-74.92-23.72-15.36-4.45-11.53-2.8-8.48-1.7.38-1.95 8.53 1.7 11.6 2.82 15.44 4.46 74.88 23.7 19.8 4.82 20.2 4 21.95 3.42 24.85 2.8 29.17 2.04 35.4 1L713 977l34.4.15 46.57 2.2L924 988.57l21.2.1 16.46-.62 13.76-1.1 12.03-1.46 10.8-1.8 9.92-2.06 9.24-2.34 8.74-2.6 8.32-2.86 8.03-3.14 7.78-3.43 7.64-3.76 7.54-4.1 7.5-4.5 7.48-4.93 7.55-5.45 7.64-6.02 7.8-6.7 8.04-7.48 8.3-8.43 1.5-1.58 7.44-8.34 6.95-8.45 6.48-8.6 6.06-8.8 5.66-8.97 5.28-9.22 4.9-9.48 4.57-9.8 4.23-10.13 3.88-10.53 3.53-11 3.17-11.5 2.8-12.1 2.37-12.76 1.95-13.55 1.46-14.45.92-15.47.28-16.7-.45-18.1-1.32-19.83-2.4-21.9-3.7-24.52-5.45-27.92-7.83-32.74-4.9-17.2h2.1zM1063.12 428.1l6 .37 5.26.55 4.75.7 4.34.82 4 .94 3.77 1.04 3.53 1.15 3.36 1.24 3.2 1.35 3.07 1.45 2.97 1.54 2.87 1.66 2.8 1.77 2.73 1.9 2.68 2.03 2.64 2.18 2.6 2.34 2.58 2.53 2.56 2.73 2.56 2.96 2.56 3.22 2.56 3.52 2.58 3.87 2.6 4.27 2.6 4.75 2.63 5.3 2.65 5.95 2.68 6.75 2.7 7.7 5.1 16.2h-2.1l-4.9-15.56-2.67-7.63-2.66-6.67-2.62-5.9-2.6-5.2-2.57-4.67-2.54-4.2-2.52-3.8-2.5-3.46-2.52-3.16-2.5-2.88-2.5-2.67-2.54-2.47-2.54-2.3-2.57-2.1-2.6-2-2.67-1.84-2.73-1.73-2.8-1.6-2.9-1.5-2.98-1.42-3.13-1.3-3.28-1.22-3.46-1.12-3.67-1.02-3.95-.92-4.26-.8-4.67-.7-5.2-.53-5.9-.37-6.94-.13-8.7.2-13 .85-39.8 3.53-6.4.15-4.77-.1-3.82-.23-3.2-.33-2.77-.4-2.43-.47-2.17-.5-1.96-.55-1.8-.58-.68-.25.7-1.9.63.25 1.7.55 1.9.53 2.1.48 2.34.46 2.68.4 3.12.32 3.74.23 4.7.1 6.28-.15 39.77-3.53 13.05-.85 8.8-.2z" fill="#010101"/><path d="M445.2 921.97l-17.35 5.85 13.48 12.4-1.36 1.46L424 927l20.56-6.92zM965.3 429.42l-.7 1.87-.95-.36.7-1.88z" fill="#010101"/><use xlink:href="#n" transform="matrix(1,0,0,1,1155.2779022833197,520.8557120711432) translate(0.005000000000000782 25.78125)"/><path d="M438.22 879.32l.3.7-.3.7-.7.3-.7-.3-.3-.7.3-.7.7-.3zm7.8-1.92l.28.7-.3.72-.7.3-.7-.3-.3-.7.3-.72.7-.3zm7.88-1.4l.3.7-.3.7-.7.3-.7-.3-.3-.7.3-.7.7-.3zm7.98-.84l.3.7-.3.7-.7.3-.72-.3-.3-.7.3-.7.7-.3zm8-.6l.3.7-.3.7-.7.3-.72-.3-.3-.7.3-.7.7-.3zm8-.62l.3.7-.3.7-.7.3-.72-.3-.3-.7.3-.7.7-.3zm8-.6l.3.7-.3.7-.7.3-.72-.3-.3-.7.3-.7.7-.3zm8-.62l.3.7-.3.7-.7.3-.72-.3-.3-.7.3-.7.7-.3zm8-.6l.3.7-.3.7-.7.3-.72-.3-.3-.7.3-.7.7-.3zm8-.63l.3.7-.3.7-.7.3-.72-.3-.3-.7.3-.7.7-.3zm8-.62l.28.7-.3.72-.7.3-.7-.3-.3-.7.3-.72.7-.3zm8-.6l.28.7-.3.7-.7.3-.7-.3-.3-.7.3-.7.7-.3zm7.97-.9l.3.72-.3.7-.7.3-.72-.3-.3-.7.3-.7.7-.3zm7.96-.93l.3.7-.3.72-.7.3-.7-.3-.3-.7.3-.72.7-.3zm7.93-1.26l.3.7-.3.7-.7.3-.7-.3-.3-.7.3-.7.7-.3zm7.9-1.5l.28.7-.28.7-.7.3-.72-.3-.3-.7.3-.7.7-.3zm7.8-1.8l.3.72-.3.7-.7.3-.7-.3-.3-.7.3-.7.7-.3zm7.74-2.1l.3.7-.3.7-.7.3-.7-.3-.3-.7.3-.7.7-.3zm7.63-2.5l.3.7-.3.72-.7.3-.72-.3-.3-.7.3-.7.7-.3zm7.46-2.94l.3.7-.3.7-.7.3-.72-.3-.3-.7.3-.7.7-.3zm7.28-3.37l.3.7-.3.7-.7.3-.72-.3-.3-.7.3-.7.7-.3zm7.02-3.87l.3.7-.3.7-.7.3-.7-.3-.3-.7.3-.7.7-.3zm6.75-4.35l.3.7-.3.72-.7.3-.7-.3-.3-.7.3-.72.7-.3zm6.4-4.83l.3.7-.3.7-.7.3-.7-.3-.3-.7.3-.7.7-.3zm6-5.32l.3.7-.3.72-.7.3-.7-.3-.3-.7.3-.72.7-.3zm5.58-5.78l.3.7-.3.72-.7.3-.72-.3-.3-.7.3-.72.7-.3zm5.1-6.18l.3.7-.3.7-.7.3-.7-.3-.3-.7.3-.7.7-.3zm4.64-6.54l.3.7-.3.7-.7.3-.72-.3-.3-.7.3-.7.7-.3zm4.18-6.85l.3.7-.3.72-.7.3-.7-.3-.3-.7.3-.72.7-.3zm3.7-7.12l.28.7-.3.7-.7.3-.7-.3-.3-.7.3-.7.7-.3zm3.27-7.32l.3.7-.3.72-.7.3-.7-.3-.3-.7.3-.72.7-.3zm2.87-7.5l.3.72-.3.7-.7.3-.7-.3-.3-.7.3-.7.7-.3zm2.38-7.65l.3.7-.3.7-.7.3-.7-.3-.3-.7.3-.7.7-.3zm1.96-7.8l.3.72-.3.7-.7.3-.7-.3-.3-.7.3-.7.7-.3zm1.48-7.87l.3.7-.3.7-.7.3-.7-.3-.3-.7.3-.7.7-.3zm1.04-7.95l.3.7-.3.7-.7.3-.7-.3-.3-.7.3-.7.7-.3zm.65-8l.3.7-.3.72-.7.3-.72-.3-.3-.7.3-.72.7-.3zm.25-8.02l.3.7-.3.72-.7.3-.7-.3-.3-.7.3-.72.7-.3zm-.1-8.02l.28.7-.3.72-.7.3-.7-.3-.3-.7.3-.72.7-.3zm-.46-8l.3.7-.3.7-.7.3-.7-.3-.3-.7.3-.7.7-.3zm-.76-8l.3.72-.3.7-.7.3-.72-.3-.3-.7.3-.7.7-.3zm-1.03-7.95l.3.7-.3.7-.7.3-.72-.3-.3-.7.3-.7.7-.3zm-1.25-7.93l.3.7-.3.7-.7.3-.7-.3-.3-.7.3-.7.7-.3zm-1.5-7.88l.3.7-.3.7-.7.3-.7-.3-.3-.7.3-.7.7-.3zm-1.72-7.84l.3.7-.3.7-.7.3-.72-.3-.3-.7.3-.7.7-.3zm-1.83-7.8l.3.7-.3.7-.7.3-.72-.3-.3-.7.3-.7.7-.3zm-2.1-7.76l.3.7-.3.72-.7.3-.7-.3-.3-.7.3-.72.7-.3zm-2.16-7.73l.3.7-.3.72-.7.28-.72-.3-.3-.7.3-.7.7-.3zm-2.4-7.65l.3.7-.3.7-.7.3-.7-.3-.3-.7.3-.7.7-.3zm-13.47-37.78l.3.7-.3.7-.7.3-.72-.3-.28-.7.3-.7.7-.3zm-2.7-7.56l.3.7-.3.72-.7.3-.72-.3-.28-.7.3-.72.7-.3zm-2.7-7.55l.3.7-.3.7-.7.3-.7-.3-.3-.7.3-.7.7-.3zm-2.7-7.56l.3.7-.3.72-.7.28-.7-.3-.3-.7.3-.7.7-.3zm-2.7-7.55l.3.7-.3.7-.7.3-.7-.3-.3-.7.3-.7.7-.3zm-2.7-7.56l.3.7-.3.72-.7.3-.7-.3-.3-.7.3-.72.7-.3zm-2.7-7.55l.3.7-.3.72-.7.3-.7-.3-.3-.7.3-.7.7-.3zm-2.7-7.55l.3.7-.3.7-.7.3-.7-.3-.3-.7.3-.7.7-.3zm-2.68-7.56l.3.7-.3.7-.7.3-.72-.3-.3-.7.3-.7.7-.3zm-2.7-7.56l.3.7-.3.7-.7.3-.7-.3-.3-.7.3-.7.7-.3zm-2.54-7.6l.3.7-.3.7-.7.3-.7-.3-.3-.7.3-.7.7-.3zm-2.48-7.64l.3.7-.3.72-.7.3-.7-.3-.3-.7.3-.72.7-.3zm-2.5-7.62l.3.7-.3.7-.7.3-.7-.3-.3-.7.3-.7.7-.3zm-2.25-7.7l.3.7-.3.7-.7.3-.7-.3-.3-.7.3-.7.7-.3zm-2.16-7.73l.3.7-.3.72-.7.3-.7-.3-.3-.7.3-.72.7-.3zm-1.9-7.78l.28.7-.3.7-.7.3-.7-.3-.3-.7.3-.7.7-.3zm-1.76-7.83l.3.7-.3.7-.7.3-.72-.3-.3-.7.3-.7.7-.3zm-1.5-7.88l.3.7-.3.7-.7.3-.7-.3-.3-.7.3-.7.7-.3zm-1.16-7.94l.3.7-.3.7-.7.3-.72-.3-.3-.7.3-.7.7-.3zm-.8-7.98l.3.7-.3.7-.7.3-.7-.3-.3-.7.3-.7.7-.3zm-.37-8.02l.3.7-.3.72-.7.3-.7-.3-.3-.7.3-.72.7-.3zm.08-8.02l.3.7-.3.72-.7.3-.72-.3-.3-.7.3-.72.7-.3zm.66-8l.3.72-.3.7-.7.3-.72-.3-.3-.7.3-.7.7-.3zm1.28-7.9l.3.7-.3.7-.7.3-.72-.3-.3-.7.3-.7.7-.3zm1.77-7.83l.28.7-.3.7-.7.3-.7-.3-.3-.7.3-.7.7-.3zm2.38-7.66l.3.72-.3.7-.7.3-.72-.3-.3-.7.3-.7.7-.3zm119.43-5.06l.3.7-.3.72-.7.3-.7-.3-.3-.7.3-.72.7-.3zm-7.98-.45l.3.7-.3.7-.7.3-.7-.3-.3-.7.3-.7.7-.3zm-108.28-1.85l.3.7-.3.7-.7.3-.7-.3-.3-.7.3-.7.7-.3zm100.5-.06l.28.7-.3.7-.7.3-.7-.3-.3-.7.3-.7.7-.3zm-7.6-2.57l.28.7-.3.7-.7.3-.7-.3-.3-.7.3-.7.7-.3zM681 409.8l.3.7-.3.7-.7.3-.7-.3-.3-.7.3-.7.7-.3zm-81.2-1.4l.3.72-.3.7-.7.3-.72-.3-.3-.7.3-.7.7-.3zm73.7-1.47l.3.7-.3.7-.7.3-.7-.3-.3-.7.3-.7.7-.3zm-7.48-2.87l.3.7-.3.72-.7.3-.72-.3-.3-.7.3-.72.7-.3zm-60.83-1.57l.3.7-.3.7-.7.3-.7-.3-.3-.7.3-.7.7-.3zm53.34-1.3l.3.7-.3.7-.7.3-.7-.3-.3-.7.3-.7.7-.3zm-7.55-2.7l.28.72-.3.7-.7.3-.7-.3-.3-.7.3-.7.7-.3zm-39.15-.47l.3.7-.3.7-.7.3-.72-.3-.3-.7.3-.7.7-.3zm31.4-1.63l.3.7-.3.7-.7.3-.7-.3-.3-.7.3-.7.7-.3zm-23.85-1l.3.7-.3.7-.7.3-.7-.3-.3-.7.3-.7.7-.3zm15.96-.43l.3.7-.3.72-.7.28-.7-.3-.3-.7.3-.7.7-.3zm-8-.48l.3.7-.3.7-.7.3-.7-.3-.3-.7.3-.7.7-.3z" fill="#010101"/><path d="M713 418l-19.58 9.34-.86-1.8 16.53-7.9-14.88-10.68 1.17-1.62zM430.33 883.53l-.94.4-.8-1.85.96-.4z" fill="#010101"/><use xlink:href="#o" transform="matrix(1,0,0,1,628.3552012882626,621.6580453414863) translate(0.005000000000000782 25.78125)"/><path d="M1107 663h500v38h-500z" stroke="#000" stroke-opacity="0" stroke-width="2" fill="#fff"/><use xlink:href="#p" transform="matrix(1,0,0,1,1107,663) translate(11.273871527777771 30.7578125)"/><use xlink:href="#q" transform="matrix(1,0,0,1,1107,663) translate(80.04340277777777 30.7578125)"/><use xlink:href="#r" transform="matrix(1,0,0,1,1107,663) translate(416.21961805555554 30.7578125)"/><path d="M713 397h295v33H713z" stroke="#000" stroke-width="2" fill="#fff"/><g><use xlink:href="#s" transform="matrix(1,0,0,1,713,397) translate(11 25.78125)"/></g><path d="M713 348h295v49H713z" stroke="#000" stroke-width="2" fill="#fff"/><g><use xlink:href="#t" transform="matrix(1,0,0,1,713,348) translate(80.654296875 38.671875)"/></g><defs><path d="M536 0v-1332H302v-124l432-37V0H536" id="u"/><use transform="matrix(0.013020833333333334,0,0,0.013020833333333334,0,0)" xlink:href="#u" id="a"/><path d="M1136-3C969 47 777 40 736-118h-13C632-30 563 19 406 25 220 32 82-112 82-291c0-108 45-197 132-271 96-82 289-115 509-108v-100c4-131-78-171-198-171-113 0-229 33-347 98v-204c250-100 619-121 772 59 38 46 57 116 57 208v486c-4 109 33 137 122 125zM510-176c93-3 154-48 213-101v-223c-187-10-348 27-357 180-5 80 67 147 144 144" id="v"/><path d="M855-1123c191 0 317 129 317 347V0H876v-703c-1-102-8-140-62-171-63-37-126-14-190 24-44 26-92 80-143 159V0H185v-1098h296v207c86-139 191-232 374-232" id="w"/><path d="M185 0v-1480h925v203H493v413h506v204H493v450h664V0H185" id="x"/><path d="M185 0v-1579h296V0H185" id="y"/><path d="M185 0v-1098h296V0H185zm0-1283v-247h296v247H185" id="z"/><path d="M794 25c-155-3-225-51-313-136v506H185v-1493h296v207c68-137 172-230 359-232 286-3 425 245 425 544 0 317-161 611-471 604zm-61-916c-116 0-192 88-252 169v435c69 75 118 116 230 120 173 6 239-210 239-387 0-180-57-337-217-337" id="A"/><path d="M637-938c-101 0-184 30-184 113 0 105 133 124 222 161 140 58 236 105 279 157 108 132 75 318-54 427C734 61 400 40 156-35v-217c147 61 272 92 376 92 95 0 182-41 182-124 0-119-154-136-250-180-101-46-180-87-229-137-49-49-74-114-74-193 0-95 36-175 111-236 144-118 421-110 660-54v208c-119-41-217-62-295-62" id="B"/><path d="M679 25C304 25 86-196 86-557c0-334 185-566 530-566 141 0 253 45 337 134s126 256 126 499H398c12 144 63 222 160 276 46 26 108 38 185 38 99 0 211-23 336-69v208C938 4 805 25 679 25zM394-657h394c0-101-17-172-50-216-67-91-209-82-274 7-36 49-61 117-70 209" id="C"/><g id="b"><use transform="matrix(0.015190972222222224,0,0,0.015190972222222224,0,0)" xlink:href="#v"/><use transform="matrix(0.015190972222222224,0,0,0.015190972222222224,18.289930555555557,0)" xlink:href="#w"/><use transform="matrix(0.015190972222222224,0,0,0.015190972222222224,38.72178819444444,0)" xlink:href="#x"/><use transform="matrix(0.015190972222222224,0,0,0.015190972222222224,57.40668402777778,0)" xlink:href="#y"/><use transform="matrix(0.015190972222222224,0,0,0.015190972222222224,67.52387152777779,0)" xlink:href="#y"/><use transform="matrix(0.015190972222222224,0,0,0.015190972222222224,77.64105902777779,0)" xlink:href="#z"/><use transform="matrix(0.015190972222222224,0,0,0.015190972222222224,87.75824652777779,0)" xlink:href="#A"/><use transform="matrix(0.015190972222222224,0,0,0.015190972222222224,108.37239583333334,0)" xlink:href="#B"/><use transform="matrix(0.015190972222222224,0,0,0.015190972222222224,125.96354166666669,0)" xlink:href="#C"/></g><path d="M665-1419c-128 0-154 80-153 231v90h278v185H512V0H216v-913H65v-185h151v-79c-3-293 131-427 405-427 87 0 177 13 270 38v200c-84-35-159-53-226-53" id="D"/><path d="M1221-549c0 354-203 574-568 574C289 25 86-195 86-549s203-574 567-574c365 0 568 220 568 574zm-820 0c0 196 68 389 252 389 185 0 253-193 253-389s-68-389-253-389c-183 0-252 194-252 389" id="E"/><g id="c"><use transform="matrix(0.015190972222222224,0,0,0.015190972222222224,0,0)" xlink:href="#D"/><use transform="matrix(0.015190972222222224,0,0,0.015190972222222224,12.897135416666668,0)" xlink:href="#E"/><use transform="matrix(0.015190972222222224,0,0,0.015190972222222224,32.766927083333336,0)" xlink:href="#E"/></g><path d="M599-1517c263 0 459 164 459 409 0 76-21 146-50 215-30 71-208 236-326 336-101 85-247 229-274 384h643V0H170v-173c57-134 172-281 348-438 92-82 240-212 284-303 30-61 47-124 47-189 2-166-113-270-280-266-165 4-237 51-362 119v-174c131-62 262-93 392-93" id="F"/><use transform="matrix(0.013020833333333334,0,0,0.013020833333333334,0,0)" xlink:href="#F" id="d"/><path d="M179 0l295-1480h308L641-774l614-706h270L931-800 1419 0h-357L632-728 487 0H179" id="G"/><path d="M464-389c4 239 215 244 420 177 88-29 181-67 276-122l-46 230C952-26 776 25 580 25c-243 0-410-133-410-370 0-284 180-557 367-673 109-68 221-105 341-105 162 0 280 85 281 234 0 80-27 156-81 229-114 153-349 260-614 271zm417-438c-1-55-38-98-99-98-51 0-105 30-164 89S515-690 486-573c133 0 232-28 297-83s98-112 98-171" id="H"/><path d="M139 395L451 0 256-1098h301l132 742 480-742h244L437 395H139" id="I"/><g id="e"><use transform="matrix(0.013020833333333334,0,0,0.013020833333333334,0,0)" xlink:href="#G"/><use transform="matrix(0.013020833333333334,0,0,0.013020833333333334,18.6328125,0)" xlink:href="#H"/><use transform="matrix(0.013020833333333334,0,0,0.013020833333333334,33.828125,0)" xlink:href="#I"/></g><path d="M197 0v-1086h197V0H197zm0-1283v-197h197v197H197" id="J"/><path d="M775-1110c188-4 310 134 310 330V0H888v-716c-1-128-8-167-76-204-78-43-151-17-234 25-57 29-118 94-184 192V0H197v-1086h197v204c83-121 205-225 381-228" id="K"/><path d="M887-302C887-87 709 25 485 25c-90 0-199-21-328-63v-181c129 64 241 96 336 96 135 0 250-124 169-245-32-48-171-101-244-132-88-38-153-79-194-128-41-48-61-107-61-177 0-195 155-305 376-305 66 0 180 15 266 33v164c-110-33-198-49-263-49-141 0-241 112-157 217 33 42 142 84 207 111 127 54 208 107 243 160s52 110 52 172" id="L"/><path d="M402-336c1 145 47 211 184 213 26 0 58-4 95-13V0C427 83 205-38 205-300v-638H69v-148h136v-197l197-19v216h284v148H402v602" id="M"/><path d="M933 25c-98 0-155-61-176-163C660-52 566 25 416 25 256 25 103-92 103-273c0-107 47-194 138-265 97-75 272-109 487-104v-131c5-142-67-189-197-189-102 0-213 32-334 96v-163c133-54 258-81 375-81 222 0 353 88 353 337v492c1 92 4 123 49 154 26 18 54 18 93 11l14 109c-45 21-94 32-148 32zM472-136c110-4 183-51 256-109v-281c-202-17-420 47-428 221-4 91 83 172 172 169" id="N"/><path d="M333-543c0 224 128 410 340 409 90 0 183-23 278-69v170C714 35 539 61 355-54c-150-94-244-263-244-495 0-330 189-561 544-561 85 0 180 12 284 35v165c-111-33-202-49-272-49-223 0-334 200-334 416" id="O"/><path d="M691-125c135 0 167-19 302-66v156C861 5 748 25 654 25 224 25-11-445 175-839c77-162 195-272 411-272 302 0 432 251 411 599H312c19 178 69 275 184 344 50 30 116 43 195 43zm109-535c4-188-68-303-226-303-173 0-238 125-253 303h479" id="P"/><path d="M111-543v-148h444v148H111" id="Q"/><path d="M1147-543c0 335-173 568-518 568-343 0-518-233-518-568s174-567 518-567c343 0 518 232 518 567zm-826 0c0 239 91 420 308 420 218 0 309-181 309-420 0-240-91-419-309-419-217 0-308 179-308 419" id="R"/><path d="M600-1456c-133 0-173 56-168 219v151h271v148H432V0H234v-938H80v-148h154c-1-122-2-267 34-340 51-104 157-178 319-178 67 0 142 11 226 33v156c-89-27-160-41-213-41" id="S"/><g id="f"><use transform="matrix(0.013020833333333334,0,0,0.013020833333333334,0,0)" xlink:href="#J"/><use transform="matrix(0.013020833333333334,0,0,0.013020833333333334,7.708333333333334,0)" xlink:href="#K"/><use transform="matrix(0.013020833333333334,0,0,0.013020833333333334,24.2578125,0)" xlink:href="#L"/><use transform="matrix(0.013020833333333334,0,0,0.013020833333333334,37.8515625,0)" xlink:href="#M"/><use transform="matrix(0.013020833333333334,0,0,0.013020833333333334,47.825520833333336,0)" xlink:href="#N"/><use transform="matrix(0.013020833333333334,0,0,0.013020833333333334,62.552083333333336,0)" xlink:href="#K"/><use transform="matrix(0.013020833333333334,0,0,0.013020833333333334,79.1015625,0)" xlink:href="#O"/><use transform="matrix(0.013020833333333334,0,0,0.013020833333333334,92.76041666666667,0)" xlink:href="#P"/><use transform="matrix(0.013020833333333334,0,0,0.013020833333333334,107.6171875,0)" xlink:href="#Q"/><use transform="matrix(0.013020833333333334,0,0,0.013020833333333334,116.2890625,0)" xlink:href="#R"/><use transform="matrix(0.013020833333333334,0,0,0.013020833333333334,132.66927083333334,0)" xlink:href="#S"/></g><path d="M863-759c18-191-163-226-293-144-48 30-107 87-176 175V0H197v-1086h197v204c73-112 192-229 370-228 102 0 165 36 220 88 29 28 54 75 77 140 72-114 188-228 364-229 77 0 147 24 209 72s93 131 93 249V0h-198v-759c16-190-161-225-293-143-49 31-108 87-175 174V0H863v-759" id="T"/><path d="M581-1110c158 0 231 53 313 148v-124h198v790c0 230-22 386-58 472-82 193-310 265-590 237-106-11-144-19-243-52l23-171c114 54 227 81 338 81 242 0 327-127 332-353v-171C838-139 713-25 538-25c-149 0-257-54-325-161S111-414 111-550c0-312 157-560 470-560zm-9 913c150-4 238-83 322-179v-451c-74-76-154-135-283-135-202 0-293 180-290 411 3 193 62 359 251 354" id="U"/><g id="g"><use transform="matrix(0.013020833333333334,0,0,0.013020833333333334,0,0)" xlink:href="#T"/><use transform="matrix(0.013020833333333334,0,0,0.013020833333333334,24.895833333333336,0)" xlink:href="#P"/><use transform="matrix(0.013020833333333334,0,0,0.013020833333333334,39.75260416666667,0)" xlink:href="#L"/><use transform="matrix(0.013020833333333334,0,0,0.013020833333333334,53.34635416666667,0)" xlink:href="#L"/><use transform="matrix(0.013020833333333334,0,0,0.013020833333333334,66.94010416666667,0)" xlink:href="#N"/><use transform="matrix(0.013020833333333334,0,0,0.013020833333333334,81.66666666666667,0)" xlink:href="#U"/><use transform="matrix(0.013020833333333334,0,0,0.013020833333333334,98.29427083333334,0)" xlink:href="#P"/></g><path d="M574-1110c159 3 241 51 320 148v-617h198V0H894v-204C823-70 718 23 532 25c-281 3-421-241-421-534 0-314 161-607 463-601zm-1 962c148 0 235-84 321-179v-500c-115-93-139-135-290-135-212 0-283 208-283 433 0 208 59 381 252 381" id="V"/><g id="h"><use transform="matrix(0.013020833333333334,0,0,0.013020833333333334,0,0)" xlink:href="#L"/><use transform="matrix(0.013020833333333334,0,0,0.013020833333333334,13.59375,0)" xlink:href="#P"/><use transform="matrix(0.013020833333333334,0,0,0.013020833333333334,28.450520833333336,0)" xlink:href="#K"/><use transform="matrix(0.013020833333333334,0,0,0.013020833333333334,45,0)" xlink:href="#V"/></g><path d="M197 0v-1579h197V0H197" id="W"/><path d="M197 0v-1579h197v1020l460-527h212L627-579 1157 0H905L394-557V0H197" id="X"/><path d="M495 25c-188 4-310-134-310-331v-780h197v716c1 129 8 167 76 205 78 44 151 17 234-25 57-29 118-94 184-192v-704h197V0H876v-204C792-82 673 22 495 25" id="Y"/><path d="M757-1110c282-4 424 242 421 534-2 220-76 421-210 518C854 25 747 41 582 9 523-3 461-46 394-123v518H197v-1481h197v204c72-134 176-226 363-228zm-41 172c-149 0-235 83-322 179v500c113 94 140 136 290 136 212 0 284-210 284-433 0-207-60-382-252-382" id="Z"/><g id="i"><use transform="matrix(0.013020833333333334,0,0,0.013020833333333334,0,0)" xlink:href="#W"/><use transform="matrix(0.013020833333333334,0,0,0.013020833333333334,7.708333333333334,0)" xlink:href="#R"/><use transform="matrix(0.013020833333333334,0,0,0.013020833333333334,24.08854166666667,0)" xlink:href="#R"/><use transform="matrix(0.013020833333333334,0,0,0.013020833333333334,40.46875000000001,0)" xlink:href="#X"/><use transform="matrix(0.013020833333333334,0,0,0.013020833333333334,56.0546875,0)" xlink:href="#Y"/><use transform="matrix(0.013020833333333334,0,0,0.013020833333333334,72.60416666666667,0)" xlink:href="#Z"/></g><path d="M185 0v-1480h408L949-439l367-1041h358V0h-284v-1117L1029-99H781L427-1132V0H185" id="aa"/><path d="M886-853c-182-67-334 27-405 156V0H185v-1098h296v207c67-135 206-256 405-226v264" id="ab"/><path d="M855-1123c191 0 317 129 317 347V0H876v-703c-1-102-8-140-62-171-63-37-126-14-190 24-44 26-92 80-143 159V0H185v-1579h296v688c86-139 191-232 374-232" id="ac"/><g id="j"><use transform="matrix(0.01953125,0,0,0.01953125,0,0)" xlink:href="#aa"/><use transform="matrix(0.01953125,0,0,0.01953125,36.30859375,0)" xlink:href="#E"/><use transform="matrix(0.01953125,0,0,0.01953125,61.85546875,0)" xlink:href="#ab"/><use transform="matrix(0.01953125,0,0,0.01953125,80.0390625,0)" xlink:href="#A"/><use transform="matrix(0.01953125,0,0,0.01953125,106.54296875,0)" xlink:href="#ac"/></g><path d="M185 0v-1480h503c223 0 326 36 406 160s61 268-28 382c-52 68-144 123-277 165 186 45 295 104 371 235 63 110 59 253-8 358C1069-49 966 1 734 0H185zm363-864c170 6 283-90 283-239 0-80-32-125-94-153-34-16-161-23-256-21v413h67zm334 461c0-160-170-270-347-263h-54v456c236 1 401 6 401-193" id="ad"/><path d="M563-1123c156 3 224 51 313 136v-592h297V0H876v-207C808-69 705 23 517 25 231 28 93-220 93-519c0-318 161-610 470-604zm61 916c116 0 194-89 252-169v-435c-68-75-117-117-229-120-174-5-239 206-239 387-1 177 56 337 216 337" id="ae"/><g id="k"><use transform="matrix(0.01953125,0,0,0.01953125,0,0)" xlink:href="#ad"/><use transform="matrix(0.01953125,0,0,0.01953125,25.1953125,0)" xlink:href="#E"/><use transform="matrix(0.01953125,0,0,0.01953125,50.7421875,0)" xlink:href="#ab"/><use transform="matrix(0.01953125,0,0,0.01953125,68.92578125,0)" xlink:href="#ae"/><use transform="matrix(0.01953125,0,0,0.01953125,95.4296875,0)" xlink:href="#C"/><use transform="matrix(0.01953125,0,0,0.01953125,118.8671875,0)" xlink:href="#ab"/><use transform="matrix(0.01953125,0,0,0.01953125,137.05078125,0)" xlink:href="#C"/><use transform="matrix(0.01953125,0,0,0.01953125,160.48828125,0)" xlink:href="#ae"/><use transform="matrix(0.01953125,0,0,0.01953125,186.9921875,0)" xlink:href="#aa"/><use transform="matrix(0.01953125,0,0,0.01953125,223.30078125,0)" xlink:href="#E"/><use transform="matrix(0.01953125,0,0,0.01953125,248.84765625,0)" xlink:href="#ab"/><use transform="matrix(0.01953125,0,0,0.01953125,267.03125,0)" xlink:href="#A"/><use transform="matrix(0.01953125,0,0,0.01953125,293.53515625,0)" xlink:href="#ac"/></g><g id="l"><use transform="matrix(0.01953125,0,0,0.01953125,0,0)" xlink:href="#x"/><use transform="matrix(0.01953125,0,0,0.01953125,24.0234375,0)" xlink:href="#y"/><use transform="matrix(0.01953125,0,0,0.01953125,37.03125,0)" xlink:href="#y"/><use transform="matrix(0.01953125,0,0,0.01953125,50.0390625,0)" xlink:href="#z"/><use transform="matrix(0.01953125,0,0,0.01953125,63.046875,0)" xlink:href="#A"/><use transform="matrix(0.01953125,0,0,0.01953125,89.55078125,0)" xlink:href="#B"/><use transform="matrix(0.01953125,0,0,0.01953125,112.16796875,0)" xlink:href="#C"/><use transform="matrix(0.01953125,0,0,0.01953125,135.60546875,0)" xlink:href="#aa"/><use transform="matrix(0.01953125,0,0,0.01953125,171.9140625,0)" xlink:href="#E"/><use transform="matrix(0.01953125,0,0,0.01953125,197.4609375,0)" xlink:href="#ab"/><use transform="matrix(0.01953125,0,0,0.01953125,215.64453125,0)" xlink:href="#A"/><use transform="matrix(0.01953125,0,0,0.01953125,242.1484375,0)" xlink:href="#ac"/></g><g id="m"><use transform="matrix(0.01953125,0,0,0.01953125,0,0)" xlink:href="#v"/><use transform="matrix(0.01953125,0,0,0.01953125,23.515625,0)" xlink:href="#w"/><use transform="matrix(0.01953125,0,0,0.01953125,49.78515625,0)" xlink:href="#x"/><use transform="matrix(0.01953125,0,0,0.01953125,73.80859375,0)" xlink:href="#y"/><use transform="matrix(0.01953125,0,0,0.01953125,86.81640625,0)" xlink:href="#y"/><use transform="matrix(0.01953125,0,0,0.01953125,99.82421875,0)" xlink:href="#z"/><use transform="matrix(0.01953125,0,0,0.01953125,112.83203125,0)" xlink:href="#A"/><use transform="matrix(0.01953125,0,0,0.01953125,139.3359375,0)" xlink:href="#B"/><use transform="matrix(0.01953125,0,0,0.01953125,161.953125,0)" xlink:href="#C"/><path d="M-2 2.93h189.4v1.95H-2z"/></g><path d="M228-1458c140-47 191-59 337-59 157 0 270 34 346 94 109 86 146 262 79 401-52 108-143 174-277 220 172 41 263 89 322 220 77 172 32 353-83 482C807 63 488 63 208-11v-184c141 56 251 84 332 84 179 0 320-120 320-296 0-85-34-156-92-220-65-71-238-99-423-92v-133c170 4 332-21 393-88 55-60 86-125 86-202 0-150-108-227-272-227-97 0-205 28-324 83v-172" id="af"/><use transform="matrix(0.013020833333333334,0,0,0.013020833333333334,0,0)" xlink:href="#af" id="n"/><path d="M771 0v-419H105v-149l666-912h185v900h198v161H956V0H771zM298-580h486v-658" id="ag"/><use transform="matrix(0.013020833333333334,0,0,0.013020833333333334,0,0)" xlink:href="#ag" id="o"/><g id="p"><use transform="matrix(0.015190972222222224,0,0,0.015190972222222224,0,0)" xlink:href="#B"/><use transform="matrix(0.015190972222222224,0,0,0.015190972222222224,17.591145833333336,0)" xlink:href="#C"/><use transform="matrix(0.015190972222222224,0,0,0.015190972222222224,35.8203125,0)" xlink:href="#y"/><use transform="matrix(0.015190972222222224,0,0,0.015190972222222224,45.9375,0)" xlink:href="#D"/></g><path d="M185 0v-1480h271l686 1011v-1011h247V0h-276L432-1011V0H185" id="ah"/><path d="M495-374c0 144 39 202 165 202 25 0 56-5 91-14V-6C541 64 312 11 239-128c-25-48-40-116-40-207v-578H76v-185h123v-185l296-34v219h235v185H495v539" id="ai"/><path d="M173-1480h308v907c0 164 29 271 83 326 99 103 329 107 426 1 50-54 77-154 77-305v-929h268v909c1 319-65 437-251 544-152 87-464 85-625 5-197-98-286-232-286-552v-906" id="aj"/><path d="M105 0v-296h296V0H105zm0-802v-296h296v296H105" id="ak"/><g id="q"><use transform="matrix(0.015190972222222224,0,0,0.015190972222222224,0,0)" xlink:href="#ae"/><use transform="matrix(0.015190972222222224,0,0,0.015190972222222224,20.614149305555557,0)" xlink:href="#E"/><use transform="matrix(0.015190972222222224,0,0,0.015190972222222224,40.48394097222223,0)" xlink:href="#C"/><use transform="matrix(0.015190972222222224,0,0,0.015190972222222224,58.7131076388889,0)" xlink:href="#B"/><use transform="matrix(0.015190972222222224,0,0,0.015190972222222224,76.30425347222223,0)" xlink:href="#ah"/><use transform="matrix(0.015190972222222224,0,0,0.015190972222222224,100.21484375,0)" xlink:href="#E"/><use transform="matrix(0.015190972222222224,0,0,0.015190972222222224,120.08463541666667,0)" xlink:href="#ai"/><use transform="matrix(0.015190972222222224,0,0,0.015190972222222224,132.69314236111111,0)" xlink:href="#aj"/><use transform="matrix(0.015190972222222224,0,0,0.015190972222222224,155.60112847222223,0)" xlink:href="#w"/><use transform="matrix(0.015190972222222224,0,0,0.015190972222222224,176.03298611111111,0)" xlink:href="#ae"/><use transform="matrix(0.015190972222222224,0,0,0.015190972222222224,196.64713541666669,0)" xlink:href="#C"/><use transform="matrix(0.015190972222222224,0,0,0.015190972222222224,214.87630208333334,0)" xlink:href="#ab"/><use transform="matrix(0.015190972222222224,0,0,0.015190972222222224,229.01909722222223,0)" xlink:href="#B"/><use transform="matrix(0.015190972222222224,0,0,0.015190972222222224,246.61024305555557,0)" xlink:href="#ai"/><use transform="matrix(0.015190972222222224,0,0,0.015190972222222224,259.21875,0)" xlink:href="#v"/><use transform="matrix(0.015190972222222224,0,0,0.015190972222222224,277.50868055555554,0)" xlink:href="#w"/><use transform="matrix(0.015190972222222224,0,0,0.015190972222222224,297.94053819444446,0)" xlink:href="#ae"/><use transform="matrix(0.015190972222222224,0,0,0.015190972222222224,318.5546875,0)" xlink:href="#ak"/></g><path d="M185 0l107-426H18l29-148h282l83-333H114l29-148h306l107-425h152l-106 425h262l106-425h153l-106 425h273l-29 148H980l-84 333h299l-30 148H859L753 0H600l107-426H444L338 0H185zm296-574h263l83-333H565" id="al"/><g id="r"><use transform="matrix(0.015190972222222224,0,0,0.015190972222222224,0,0)" xlink:href="#al"/><use transform="matrix(0.015190972222222224,0,0,0.015190972222222224,19.869791666666668,0)" xlink:href="#D"/><use transform="matrix(0.015190972222222224,0,0,0.015190972222222224,32.766927083333336,0)" xlink:href="#E"/><use transform="matrix(0.015190972222222224,0,0,0.015190972222222224,52.63671875,0)" xlink:href="#E"/></g><path d="M191 0v-1480h206l745 1143v-1143h180V0h-205L371-1143V0H191" id="am"/><path d="M389-546c-2 292 91 426 345 426 252 0 323-134 323-419v-941h184v938c1 297-61 410-227 516-136 87-461 80-597-2-171-104-239-230-238-520v-932h210v934" id="an"/><path d="M707-938c-160 0-242 101-313 222V0H197v-1086h197v204c70-138 200-250 403-223v184c-33-11-63-17-90-17" id="ao"/><path d="M225 0v-197h197V0H225zm0-888v-198h197v198H225" id="ap"/><g id="s"><use transform="matrix(0.013020833333333334,0,0,0.013020833333333334,0,0)" xlink:href="#V"/><use transform="matrix(0.013020833333333334,0,0,0.013020833333333334,16.783854166666668,0)" xlink:href="#R"/><use transform="matrix(0.013020833333333334,0,0,0.013020833333333334,33.1640625,0)" xlink:href="#P"/><use transform="matrix(0.013020833333333334,0,0,0.013020833333333334,48.020833333333336,0)" xlink:href="#L"/><use transform="matrix(0.013020833333333334,0,0,0.013020833333333334,61.614583333333336,0)" xlink:href="#am"/><use transform="matrix(0.013020833333333334,0,0,0.013020833333333334,81.31510416666667,0)" xlink:href="#R"/><use transform="matrix(0.013020833333333334,0,0,0.013020833333333334,97.6953125,0)" xlink:href="#M"/><use transform="matrix(0.013020833333333334,0,0,0.013020833333333334,107.66927083333334,0)" xlink:href="#an"/><use transform="matrix(0.013020833333333334,0,0,0.013020833333333334,126.14583333333334,0)" xlink:href="#K"/><use transform="matrix(0.013020833333333334,0,0,0.013020833333333334,142.6953125,0)" xlink:href="#V"/><use transform="matrix(0.013020833333333334,0,0,0.013020833333333334,159.47916666666666,0)" xlink:href="#P"/><use transform="matrix(0.013020833333333334,0,0,0.013020833333333334,174.3359375,0)" xlink:href="#ao"/><use transform="matrix(0.013020833333333334,0,0,0.013020833333333334,185.24739583333334,0)" xlink:href="#L"/><use transform="matrix(0.013020833333333334,0,0,0.013020833333333334,198.84114583333334,0)" xlink:href="#M"/><use transform="matrix(0.013020833333333334,0,0,0.013020833333333334,208.81510416666669,0)" xlink:href="#N"/><use transform="matrix(0.013020833333333334,0,0,0.013020833333333334,223.54166666666669,0)" xlink:href="#K"/><use transform="matrix(0.013020833333333334,0,0,0.013020833333333334,240.09114583333334,0)" xlink:href="#V"/><use transform="matrix(0.013020833333333334,0,0,0.013020833333333334,256.875,0)" xlink:href="#ap"/></g><path d="M1594-740c0 477-269 777-750 777S93-263 93-740s271-777 751-777c479 0 750 301 750 777zM844-167c143 0 247-60 318-175 138-223 138-576 0-798-72-115-176-174-318-174-143 0-247 59-319 174-138 222-139 575-1 798 71 115 177 175 320 175" id="aq"/><path d="M795 25c-153-3-233-51-314-136L426 0H185v-1579h296v688c68-137 172-230 359-232 286-3 425 245 425 544 0 317-161 610-470 604zm-62-916c-116 0-192 88-252 169v435c69 75 118 116 230 120 173 6 239-210 239-387 0-180-57-337-217-337" id="ar"/><path d="M43 234c123 0 158-66 158-234v-1098h296V-20c0 220-48 322-183 392-136 70-321 63-493 1V175c86 39 160 59 222 59zm158-1517v-247h296v247H201" id="as"/><path d="M400-552c0 215 105 381 321 381 89 0 180-19 274-58v205C709 58 382 46 228-142 136-255 86-389 86-550c1-349 221-573 591-573 89 0 192 14 309 43v214c-121-39-218-59-290-59-201 0-296 189-296 373" id="at"/><g id="t"><use transform="matrix(0.01953125,0,0,0.01953125,0,0)" xlink:href="#aq"/><use transform="matrix(0.01953125,0,0,0.01953125,32.9296875,0)" xlink:href="#ar"/><use transform="matrix(0.01953125,0,0,0.01953125,59.43359375,0)" xlink:href="#as"/><use transform="matrix(0.01953125,0,0,0.01953125,72.75390625,0)" xlink:href="#C"/><use transform="matrix(0.01953125,0,0,0.01953125,96.19140625,0)" xlink:href="#at"/><use transform="matrix(0.01953125,0,0,0.01953125,117.48046875,0)" xlink:href="#ai"/></g></defs></g></svg>