<svg xmlns="http://www.w3.org/2000/svg" xmlns:xlink="http://www.w3.org/1999/xlink" xmlns:lucid="lucid" width="1549" height="702"><g transform="translate(-5 -328)" lucid:page-tab-id="lnCkuOsLKYn4q"><path d="M1150 835h280l35 35v140h-315z" stroke="#000" stroke-width="2" fill="#fff"/><path d="M1430 835.95V870h34.05" stroke="#000" stroke-width="2" fill="#fff"/><use xlink:href="#a" transform="matrix(1,0,0,1,1167.5,856) translate(115.1953125 25.78125)"/><use xlink:href="#b" transform="matrix(1,0,0,1,1167.5,856) translate(0 52.890625)"/><use xlink:href="#c" transform="matrix(1,0,0,1,1167.5,856) translate(0 79.0625)"/><use xlink:href="#d" transform="matrix(1,0,0,1,1167.5,856) translate(101.32378472222223 79.0625)"/><use xlink:href="#e" transform="matrix(1,0,0,1,1167.5,856) translate(0 105.234375)"/><use xlink:href="#f" transform="matrix(1,0,0,1,1167.5,856) translate(0 131.40625)"/><path d="M299.64 879.95l-1.6 1.22-44.1-57.53v-3.3zm-62.55-81.6v3.3L154.87 694.4l1.6-1.2z" fill="#010101"/><path d="M299.95 882l-20.12-8.1.75-1.86 16.98 6.84-2.2-18.18 2-.24zM156.48 693.2l-1.58 1.22-1.1-1.42h2.53z" fill="#010101"/><use xlink:href="#g" transform="matrix(1,0,0,1,237.0903891370094,795.2940366268158) translate(0.005000000000000782 25.78125)"/><path d="M25 655h231v38H25z" stroke="#000" stroke-opacity="0" stroke-width="2" fill="#fff" fill-opacity="0"/><use xlink:href="#h" transform="matrix(1,0,0,1,25,655) translate(12.117838541666657 30.7578125)"/><use xlink:href="#i" transform="matrix(1,0,0,1,25,655) translate(166.24544270833334 30.7578125)"/><path d="M365.6 881.82l.3.7-.3.7-.7.3-.7-.3-.3-.7.3-.7.7-.3zm7.2-3.46l.3.7-.3.72-.7.3-.7-.3-.3-.7.3-.72.7-.3zm7.5-2.8l.28.7-.3.7-.7.3-.7-.3-.3-.7.3-.7.7-.3zm7.64-2.33l.3.7-.3.7-.7.3-.7-.3-.3-.7.3-.7.7-.3zm7.76-1.94l.3.7-.3.7-.7.3-.72-.3-.3-.7.3-.7.7-.3zm7.84-1.54l.3.7-.3.7-.7.3-.7-.3-.3-.7.3-.7.7-.3zm7.88-1.37l.3.7-.3.7-.7.3-.72-.3-.3-.7.3-.7.7-.3zm7.88-1.38l.3.7-.3.7-.7.3-.72-.3-.3-.7.3-.7.7-.3zm7.87-1.37l.3.7-.3.7-.7.3-.7-.3-.3-.7.3-.7.7-.3zm7.88-1.38l.3.7-.3.72-.7.28-.7-.3-.3-.7.3-.7.7-.3zm7.88-1.37l.3.7-.3.72-.7.3-.72-.3-.28-.7.3-.72.7-.3zm7.87-1.4l.3.72-.3.7-.7.3-.7-.3-.3-.7.3-.7.7-.3zm7.85-1.53l.3.7-.3.72-.7.28-.72-.3-.3-.7.3-.7.7-.3zm7.84-1.53l.3.7-.3.7-.7.3-.72-.3-.3-.7.3-.7.7-.3zm7.8-1.8l.28.72-.3.7-.7.3-.7-.3-.3-.7.3-.7.7-.3zm7.74-1.9l.3.7-.3.7-.7.3-.7-.3-.3-.7.3-.7.7-.3zm7.7-2.2l.3.7-.3.7-.7.3-.72-.3-.3-.7.3-.7.7-.3zm7.6-2.5l.28.7-.3.72-.7.3-.7-.3-.3-.7.3-.72.7-.3zm7.5-2.77l.28.7-.3.7-.7.3-.7-.3-.3-.7.3-.7.7-.3zm7.36-3.1l.3.7-.3.72-.7.28-.72-.3-.3-.7.3-.7.7-.3zm7.2-3.48l.3.7-.3.7-.7.3-.72-.3-.3-.7.3-.7.7-.3zm7-3.86l.3.7-.3.7-.7.3-.7-.3-.3-.7.3-.7.7-.3zm6.8-4.23l.28.72-.3.7-.7.3-.7-.3-.3-.7.3-.7.7-.3zm6.5-4.64l.28.7-.3.72-.7.3-.7-.3-.3-.7.3-.72.7-.3zm6.2-5.02l.3.7-.3.7-.7.3-.7-.3-.3-.7.3-.7.7-.3zm5.87-5.44l.3.7-.3.72-.7.3-.72-.3-.3-.7.3-.72.7-.3zm5.53-5.77l.3.7-.3.7-.7.3-.72-.3-.3-.7.3-.7.7-.3zm5.12-6.14l.3.7-.3.7-.7.3-.72-.3-.3-.7.3-.7.7-.3zm4.75-6.43l.3.7-.3.7-.7.3-.7-.3-.3-.7.3-.7.7-.3zm4.35-6.7l.3.7-.3.7-.7.3-.72-.3-.3-.7.3-.7.7-.3zm3.96-6.96l.3.72-.3.7-.7.3-.7-.3-.3-.7.3-.7.7-.3zm3.6-7.12l.3.7-.3.7-.7.3-.7-.3-.3-.7.3-.7.7-.3zm3.25-7.3l.3.7-.3.7-.7.3-.7-.3-.3-.7.3-.7.7-.3zm2.88-7.47l.3.72-.3.7-.7.3-.7-.3-.3-.7.3-.7.7-.3zm2.58-7.56l.3.7-.3.72-.7.3-.7-.3-.3-.7.3-.72.7-.3zm2.23-7.67l.3.7-.3.7-.7.3-.7-.3-.3-.7.3-.7.7-.3zm1.98-7.75l.3.7-.3.7-.7.3-.7-.3-.3-.7.3-.7.7-.3zm1.65-7.83l.3.7-.3.7-.7.3-.72-.3-.28-.7.3-.7.7-.3zm1.3-7.9l.3.7-.3.72-.7.3-.7-.3-.3-.7.3-.7.7-.3zm.94-7.93l.3.7-.3.7-.7.3-.7-.3-.3-.7.3-.7.7-.3zm.58-7.97l.3.7-.3.7-.7.3-.72-.3-.3-.7.3-.7.7-.3zm.2-8l.28.7-.3.72-.7.3-.7-.3-.3-.7.3-.72.7-.3zm-.2-8l.3.72-.3.7-.7.3-.72-.3-.3-.7.3-.7.7-.3zm-.63-7.96l.3.7-.3.72-.7.3-.72-.3-.3-.7.3-.72.7-.3zm-1-7.93l.3.72-.3.7-.7.3-.72-.3-.3-.7.3-.7.7-.3zm-1.37-7.87l.3.7-.3.72-.7.3-.7-.3-.3-.7.3-.72.7-.3zm-1.7-7.8l.28.7-.3.7-.7.3-.7-.3-.3-.7.3-.7.7-.3zm-2.05-7.73l.3.7-.3.7-.7.3-.7-.3-.3-.7.3-.7.7-.3zm-2.32-7.65l.3.7-.3.7-.7.3-.72-.3-.3-.7.3-.7.7-.3zm-15.16-36.98l.3.7-.3.72-.7.28-.7-.3-.3-.7.3-.7.7-.3zm-3.14-7.35l.3.7-.3.72-.7.3-.72-.3-.3-.7.3-.72.7-.3zm-3.15-7.35l.3.7-.3.72-.7.28-.7-.3-.3-.7.3-.7.7-.3zm-3.14-7.35l.28.7-.3.72-.7.3-.7-.3-.3-.7.3-.72.7-.3zm-3.16-7.35l.3.7-.3.72-.7.28-.7-.3-.3-.7.3-.7.7-.3zm-3.08-7.38l.3.7-.3.7-.7.3-.7-.3-.3-.7.3-.7.7-.3zm-2.86-7.47l.3.7-.3.7-.7.3-.7-.3-.3-.7.3-.7.7-.3zm-2.58-7.57l.3.7-.3.7-.7.3-.7-.3-.3-.7.3-.7.7-.3zm-2.27-7.67l.3.7-.3.7-.7.3-.72-.3-.3-.7.3-.7.7-.3zm-1.83-7.8l.3.72-.3.7-.7.3-.7-.3-.3-.7.3-.7.7-.3zm-1.4-7.86l.3.7-.3.7-.7.3-.7-.3-.3-.7.3-.7.7-.3zm-.82-7.95l.3.7-.3.7-.7.3-.7-.3-.3-.7.3-.7.7-.3zm-.26-8l.3.7-.3.72-.7.3-.72-.3-.3-.7.3-.72.7-.3zm.35-7.98l.28.7-.3.7-.7.3-.7-.3-.3-.7.3-.7.7-.3zm.95-7.94l.3.7-.3.72-.7.3-.7-.3-.3-.7.3-.72.7-.3zm1.6-7.83l.28.7-.3.7-.7.3-.7-.3-.3-.7.3-.7.7-.3zm2.14-7.7l.28.7-.3.7-.7.3-.7-.3-.3-.7.3-.7.7-.3zm2.62-7.55l.3.7-.3.7-.7.3-.72-.3-.3-.7.3-.7.7-.3zm2.97-7.42l.28.7-.3.7-.7.3-.7-.3-.3-.7.3-.7.7-.3zm3.3-7.28l.3.7-.3.72-.7.3-.7-.3-.3-.7.3-.72.7-.3zm3.67-7.1l.3.7-.3.72-.7.3-.7-.3-.3-.7.3-.72.7-.3zm4.05-6.9l.3.7-.3.72-.7.3-.72-.3-.3-.7.3-.7.7-.3zm4.44-6.64l.3.7-.3.72-.7.3-.7-.3-.3-.7.3-.72.7-.3zm4.8-6.4l.3.72-.3.7-.7.3-.7-.3-.3-.7.3-.7.7-.3zm5.2-6.06l.3.7-.3.7-.7.3-.7-.3-.3-.7.3-.7.7-.3zm5.55-5.76l.3.7-.3.7-.7.3-.7-.3-.3-.7.3-.7.7-.3zm5.9-5.4l.3.72-.3.7-.7.3-.7-.3-.3-.7.3-.7.7-.3zm6.23-5l.3.7-.3.7-.7.3-.72-.3-.28-.7.3-.7.7-.3zm6.52-4.64l.3.7-.3.72-.7.3-.72-.3-.3-.7.3-.72.7-.3zm6.8-4.2l.28.7-.3.7-.7.3-.7-.3-.3-.7.3-.7.7-.3zm7-3.85l.3.7-.3.7-.7.3-.7-.3-.3-.7.3-.7.7-.3zm7.24-3.4l.28.72-.3.7-.7.3-.7-.3-.3-.7.3-.7.7-.3zm7.4-3l.3.7-.3.7-.7.3-.72-.3-.3-.7.3-.7.7-.3zm7.54-2.65l.3.7-.3.7-.7.3-.7-.3-.3-.7.3-.7.7-.3zm7.66-2.28l.3.7-.3.72-.7.3-.7-.3-.3-.7.3-.72.7-.3zm7.77-1.9l.3.7-.3.7-.7.3-.72-.3-.3-.7.3-.7.7-.3zm7.84-1.58l.3.7-.3.72-.7.3-.7-.3-.3-.7.3-.72.7-.3zm7.9-1.24l.3.7-.3.7-.7.3-.7-.3-.3-.7.3-.7.7-.3zm7.95-.93l.3.7-.3.7-.7.3-.72-.3-.3-.7.3-.7.7-.3zm7.97-.64l.3.7-.3.7-.7.3-.72-.3-.3-.7.3-.7.7-.3zm7.98-.4l.3.72-.3.7-.7.3-.7-.3-.3-.7.3-.7.7-.3zm16-.06l.28.7-.3.72-.7.28-.7-.3-.3-.7.3-.7.7-.3zm-8-.1l.3.72-.3.7-.7.3-.72-.3-.3-.7.3-.72.7-.3z" fill="#010101"/><path d="M713 385l-18.7 11-1-1.73 15.77-9.28-15.74-9.37 1.02-1.72zM364.63 882h-.87l.66-.37z" fill="#010101"/><use xlink:href="#j" transform="matrix(1,0,0,1,570.3235259908012,610.9914075803529) translate(0.005000000000000782 25.78125)"/><path d="M741 488h238v49H741z" stroke="#000" stroke-width="2" fill="#fff"/><use xlink:href="#k" transform="matrix(1,0,0,1,741,488) translate(52.59375 38.671875)"/><path d="M687 614h347v49H687z" stroke="#000" stroke-width="2" fill="#fff"/><use xlink:href="#l" transform="matrix(1,0,0,1,687,614) translate(13.59765625 38.671875)"/><path d="M860 448.5V487" stroke="#000" stroke-width="2" fill="none"/><path d="M860 433.24l4.64 14.26h-9.28z" stroke="#000" stroke-width="2" fill="#fff"/><path d="M861 487h-2v-.03h2z"/><path d="M860.17 556.5l.22 55.5" stroke="#000" stroke-width="2" fill="none"/><path d="M860.1 541.24l4.7 14.24-9.26.04z" stroke="#000" stroke-width="2" fill="#fff"/><path d="M861.4 613h-2v-1.02h2z"/><path d="M687 740h347v49H687z" stroke="#000" stroke-width="2" fill="#fff"/><use xlink:href="#m" transform="matrix(1,0,0,1,687,740) translate(39.291015625 38.671875)"/><path d="M752.15 803.82l-.07.17-.64 1.64-.6 1.86-.58 2.2-.58 2.8-.67 4.42-1.87 14.9-.7 3.35-.73 2.75-.8 2.43-.84 2.22-.94 2.08-1.02 2-1.14 1.94-1.26 1.9-1.4 1.9-1.6 1.93-1.8 1.96-2.06 2-2.38 2.07-2.78 2.2-3.3 2.3-3.96 2.47-4.85 2.67-6.07 2.93-7.77 3.25-10.26 3.65L681 883l-11.08 2.87-11.68 2.5-12.43 2.13-13.36 1.7-14.6 1.26-16.25.7-18.7.04-22.9-.94-34.18-2.87-79.35-8.24-13.08-.54h-9.34l-7.1.32" stroke="#000" stroke-width="2" fill="none"/><path d="M761.92 792.46l-5.78 13.84-7.03-6.04z" stroke="#000" stroke-width="2"/><path d="M417 882h-4.03l-.06-.8 4.03-.27z"/><path d="M215 883h209v49H215z" stroke="#000" stroke-width="2" fill="#fff"/><use xlink:href="#n" transform="matrix(1,0,0,1,215,883) translate(11.8046875 39.6171875)"/><path d="M860.5 682.5V738" stroke="#000" stroke-width="2" fill="none"/><path d="M860.5 667.24l4.64 14.26h-9.28z" stroke="#000" stroke-width="2" fill="#fff"/><path d="M861.5 739h-2v-1.03h2z"/><path d="M1094.98 616.7l2.63 13.53 1.85 12.13 1.22 11.1.68 10.32.24 9.72-.17 9.28-.53 8.95-.88 8.72-1.24 8.6-1.6 8.52-1.97 8.56-2.37 8.66-2.85 8.85-3.37 9.16-3.97 9.57-4.72 10.1-5.6 10.85-6.78 11.82-8.27 13.12-10.32 14.93-13.23 17.53-17.7 21.52-25.34 28.27-.64.68-3.84 3.9-4.34 4.03-4.92 4.22-5.6 4.4-6.4 4.6-7.35 4.85-8.47 5.08-9.78 5.33-11.37 5.6-13.22 5.8-15.4 6.03-17.86 6.14-20.57 6.1-23.28 5.9-25.6 5.32-26.9 4.44-26.64 3.27-24.5 2-20.96.8-25.23.13-35.5-1-29.26-2.04-24.94-2.82-22.02-3.42-20.28-4.02-19.92-4.84-74.92-23.72-15.36-4.45-11.53-2.8-8.48-1.7.38-1.95 8.53 1.7 11.6 2.82 15.44 4.46 74.88 23.7 19.8 4.82 20.2 4 21.95 3.42 24.85 2.8 29.17 2.04 35.4 1L713 977l20.9-.8 24.4-1.98 26.54-3.26 26.84-4.43 25.5-5.32 23.2-5.85 20.5-6.1 17.8-6.1 15.3-6 13.15-5.78 11.3-5.54 9.7-5.3 8.4-5.02 7.28-4.78 6.33-4.57 5.55-4.35 4.86-4.16 4.3-4 3.78-3.83.6-.63 25.3-28.22 17.65-21.46L1045.3 822l10.28-14.86 8.22-13.05 6.73-11.73 5.6-10.77 4.67-10.04 3.95-9.48 3.34-9.08 2.8-8.78 2.37-8.58 1.96-8.48 1.58-8.45 1.23-8.5.88-8.63.54-8.87.15-9.2-.24-9.63-.7-10.23-1.2-11.02-1.82-12.05-2.62-13.44-1.2-5h2.07zM965.44 429.52l1.32.62 1.68.88 2.18 1.26 2.9 1.84 3.92 2.73 5.33 4.05 7.2 5.95 9.3 8.4 11.16 10.9L1022.5 479l11.76 13.6 10.6 13.34 9 12.38 7.44 11.14 6 9.9 4.8 8.7 3.83 7.68 3.04 6.8 2.4 6 1.87 5.4 2.15 6.8h-2.1l-1.96-6.18-1.85-5.3-2.38-5.95-3-6.7-3.78-7.6-4.77-8.65-5.96-9.8-7.37-11.1-8.97-12.3-10.54-13.27-11.72-13.55-12-12.78-11.1-10.86-9.24-8.33-7.13-5.9-5.27-4-3.84-2.68-2.83-1.8-2.12-1.23-1.6-.84-1.26-.58-.1-.04.8-1.83z" fill="#010101"/><path d="M445.2 921.97l-17.35 5.85 13.48 12.4-1.36 1.46L424 927l20.56-6.92zM965.32 429.45l-.73 1.86-.97-.37.74-1.86z" fill="#010101"/><use xlink:href="#o" transform="matrix(1,0,0,1,1080.449700151438,580.7370586568258) translate(0.005000000000000782 25.78125)"/><path d="M438.23 879.3l.3.72-.3.7-.7.3-.7-.3-.3-.7.3-.7.7-.3zm7.8-1.9l.3.7-.3.7-.7.3-.7-.3-.3-.7.3-.7.7-.3zm7.92-1.4l.3.7-.3.7-.7.3-.7-.3-.3-.7.3-.7.7-.3zm8-.85l.28.7-.3.72-.7.3-.7-.3-.3-.7.3-.72.7-.3zm8-.6l.3.7-.3.7-.7.3-.7-.3-.3-.7.3-.7.7-.3zm8.02-.62l.3.7-.3.7-.7.3-.7-.3-.3-.7.3-.7.7-.3zm8.02-.6l.28.7-.3.7-.7.3-.7-.3-.3-.7.3-.7.7-.3zm8-.62l.3.7-.3.72-.7.3-.7-.3-.3-.7.3-.7.7-.3zm8.02-.6l.3.7-.3.7-.7.3-.72-.3-.3-.7.3-.7.7-.3zm8-.62l.3.7-.3.72-.7.3-.7-.3-.3-.7.3-.72.7-.3zm8.03-.6l.3.7-.3.7-.7.3-.72-.3-.3-.7.3-.7.7-.3zm8-.62l.3.7-.3.7-.7.3-.7-.3-.3-.7.3-.7.7-.3zm8-.9l.3.72-.3.7-.7.3-.7-.3-.3-.7.3-.7.7-.3zm8-.94l.28.7-.3.7-.7.3-.7-.3-.3-.7.3-.7.7-.3zm7.92-1.27l.3.7-.3.72-.7.3-.7-.3-.3-.7.3-.72.7-.3zm7.9-1.5l.3.7-.3.7-.7.3-.72-.3-.3-.7.3-.7.7-.3zm7.83-1.8l.3.7-.3.7-.7.3-.7-.3-.3-.7.3-.7.7-.3zm7.75-2.14l.3.72-.3.7-.7.3-.7-.3-.3-.7.3-.7.7-.3zm7.64-2.5l.28.7-.3.72-.7.3-.7-.3-.3-.7.3-.7.7-.3zm7.45-2.97l.3.7-.3.72-.7.3-.7-.3-.3-.7.3-.72.7-.3zm7.3-3.38l.3.7-.3.7-.7.3-.72-.3-.3-.7.3-.7.7-.3zm7.02-3.9l.3.7-.3.7-.7.3-.7-.3-.3-.7.3-.7.7-.3zm6.74-4.38l.3.7-.3.7-.7.3-.7-.3-.3-.7.3-.7.7-.3zm6.4-4.87l.3.7-.3.7-.7.3-.7-.3-.3-.7.3-.7.7-.3zm6-5.35l.3.7-.3.72-.7.3-.7-.3-.3-.7.3-.72.7-.3zm5.56-5.8l.3.7-.3.7-.7.3-.72-.3-.3-.7.3-.7.7-.3zm5.1-6.23l.28.7-.3.72-.7.3-.7-.3-.3-.7.3-.72.7-.3zm4.6-6.57l.3.7-.3.7-.7.3-.7-.3-.3-.7.3-.7.7-.3zm4.17-6.88l.3.7-.3.72-.7.28-.7-.3-.3-.7.3-.7.7-.3zm3.67-7.15l.3.7-.3.72-.7.3-.7-.3-.3-.7.3-.72.7-.3zm3.27-7.34l.3.7-.3.72-.7.3-.7-.3-.3-.7.3-.72.7-.3zm2.84-7.52l.3.7-.3.72-.7.3-.7-.3-.3-.7.3-.72.7-.3zm2.43-7.66l.3.7-.3.7-.7.3-.7-.3-.3-.7.3-.7.7-.3zm2.03-7.78l.3.7-.3.72-.7.3-.7-.3-.3-.7.3-.72.7-.3zm1.62-7.87l.3.7-.3.7-.7.3-.7-.3-.3-.7.3-.7.7-.3zm1.12-7.96l.3.7-.3.7-.7.3-.72-.3-.3-.7.3-.7.7-.3zm.66-8.02l.3.7-.3.7-.7.3-.7-.3-.3-.7.3-.7.7-.3zm.18-8.03l.3.7-.3.7-.7.3-.72-.3-.3-.7.3-.7.7-.3zm-.32-8.04l.3.72-.3.7-.7.3-.7-.3-.3-.7.3-.7.7-.3zm-.74-8l.3.72-.3.7-.7.3-.72-.3-.3-.7.3-.7.7-.3zm-1.24-7.93l.3.7-.3.7-.7.3-.72-.3-.3-.7.3-.7.7-.3zm-1.64-7.87l.3.7-.3.72-.7.3-.72-.3-.3-.7.3-.72.7-.3zm-2.02-7.78l.3.7-.3.72-.7.3-.7-.3-.3-.7.3-.72.7-.3zm-2.35-7.68l.3.7-.3.7-.7.3-.72-.3-.28-.7.3-.7.7-.3zM634.6 655h-.07l.03-.02zm-2.9-6.94l.3.7-.3.7-.7.3-.7-.3-.3-.7.3-.7.7-.3zm-3.54-7.2l.3.7-.3.7-.7.3-.7-.3-.3-.7.3-.7.7-.3zm-3.55-7.23l.3.7-.3.72-.7.3-.7-.3-.3-.7.3-.72.7-.3zm-3.54-7.2l.3.7-.3.7-.7.3-.7-.3-.3-.7.3-.7.7-.3zm-3.54-7.22l.3.7-.3.72-.7.3-.72-.3-.3-.7.3-.7.7-.3zm-3.44-7.26l.3.7-.3.7-.7.3-.72-.3-.3-.7.3-.7.7-.3zm-3.44-7.27l.3.7-.3.72-.7.28-.7-.3-.3-.7.3-.7.7-.3zm-3.23-7.35l.3.7-.3.7-.7.3-.7-.3-.3-.7.3-.7.7-.3zm-3.05-7.44l.3.7-.3.72-.7.3-.7-.3-.3-.7.3-.72.7-.3zm-2.78-7.54l.3.7-.3.72-.7.3-.72-.3-.3-.7.3-.72.7-.3zm-2.45-7.65l.3.7-.3.7-.7.3-.72-.3-.3-.7.3-.7.7-.3zm-2.07-7.78l.3.7-.3.7-.7.3-.72-.3-.3-.7.3-.7.7-.3zm-1.67-7.86l.3.7-.3.7-.7.3-.7-.3-.3-.7.3-.7.7-.3zm-1.17-7.95l.3.7-.3.72-.7.3-.7-.3-.3-.7.3-.7.7-.3zm-.65-8l.3.7-.3.7-.7.3-.7-.3-.3-.7.3-.7.7-.3zm-.07-8.04l.3.7-.3.7-.7.3-.7-.3-.3-.7.3-.7.7-.3zm.5-8.02l.3.7-.3.7-.7.3-.7-.3-.3-.7.3-.7.7-.3zm1.1-7.96l.3.7-.3.7-.7.3-.72-.3-.3-.7.3-.7.7-.3zm1.56-7.9l.3.72-.3.7-.7.3-.7-.3-.3-.7.3-.7.7-.3zm1.92-7.8l.3.7-.3.72-.7.3-.72-.3-.3-.7.3-.7.7-.3zm2.3-7.7l.3.72-.3.7-.7.3-.7-.3-.3-.7.3-.7.7-.3zm2.75-7.54l.3.7-.3.7-.7.3-.7-.3-.3-.7.3-.7.7-.3zm3.23-7.37l.3.7-.3.72-.7.28-.7-.3-.3-.7.3-.7.7-.3zm3.72-7.12l.3.7-.3.7-.7.3-.72-.3-.3-.7.3-.7.7-.3zm4.22-6.84l.3.72-.3.7-.7.3-.7-.3-.3-.7.3-.7.7-.3zm4.75-6.47l.3.7-.3.7-.7.3-.72-.3-.3-.7.3-.7.7-.3zm5.26-6.08l.3.7-.3.72-.7.3-.7-.3-.3-.7.3-.72.7-.3zm5.76-5.6l.3.7-.3.7-.7.3-.72-.3-.3-.7.3-.7.7-.3zm6.2-5.1l.3.7-.3.7-.7.3-.7-.3-.3-.7.3-.7.7-.3zm6.6-4.58l.3.7-.3.7-.7.3-.7-.3-.3-.7.3-.7.7-.3zm6.96-4.04l.3.7-.3.72-.7.3-.7-.3-.3-.7.3-.72.7-.3zm7.24-3.5l.3.7-.3.72-.7.3-.72-.3-.3-.7.3-.72.7-.3zm7.44-3.03l.3.7-.3.72-.7.3-.7-.3-.3-.7.3-.72.7-.3zm7.63-2.54l.3.7-.3.72-.7.3-.7-.3-.3-.7.3-.72.7-.3zm7.75-2.14l.3.7-.3.7-.7.3-.7-.3-.3-.7.3-.7.7-.3zm7.86-1.7l.3.72-.3.7-.7.3-.7-.3-.3-.7.3-.7.7-.3zm7.9-1.45l.3.7-.3.7-.7.3-.7-.3-.3-.7.3-.7.7-.3zm7.92-1.47l.3.7-.3.7-.7.3-.72-.3-.3-.7.3-.7.7-.3zm7.9-1.47l.3.7-.3.7-.7.3-.72-.3-.3-.7.3-.7.7-.3z" fill="#010101"/><path d="M713 418l-16.34 14.27-1.3-1.5 13.78-12.05-17.2-6.28.68-1.88zM430.33 883.53l-.94.4-.8-1.85.96-.4z" fill="#010101"/><use xlink:href="#p" transform="matrix(1,0,0,1,633.2150176565223,654.9897371935336) translate(0.005000000000000782 25.78125)"/><path d="M1034 682.5h500v38h-500z" stroke="#000" stroke-opacity="0" stroke-width="2" fill="#fff"/><use xlink:href="#q" transform="matrix(1,0,0,1,1034,682.5) translate(11.273871527777771 30.7578125)"/><use xlink:href="#r" transform="matrix(1,0,0,1,1034,682.5) translate(80.04340277777777 30.7578125)"/><use xlink:href="#s" transform="matrix(1,0,0,1,1034,682.5) translate(416.21961805555554 30.7578125)"/><path d="M713 397h295v33H713z" stroke="#000" stroke-width="2" fill="#fff"/><use xlink:href="#t" transform="matrix(1,0,0,1,713,397) translate(11 25.78125)"/><path d="M713 348h295v49H713z" stroke="#000" stroke-width="2" fill="#fff"/><use xlink:href="#u" transform="matrix(1,0,0,1,713,348) translate(80.654296875 38.671875)"/><path d="M1441.18 956.07c0 .55-.45 1-1 1-.56 0-1-.45-1-1 0-.56.44-1 1-1 .55 0 1 .44 1 1zm-7.86 0c0 .55-.45 1-1 1s-1-.45-1-1c0-.56.45-1 1-1s1 .44 1 1zm-7.86 0c0 .55-.45 1-1 1s-1-.45-1-1c0-.56.45-1 1-1s1 .44 1 1zm-7.86 0c0 .55-.45 1-1 1s-1-.45-1-1c0-.56.45-1 1-1s1 .44 1 1zm-7.86 0c0 .55-.44 1-1 1-.55 0-1-.45-1-1 0-.56.45-1 1-1 .56 0 1 .44 1 1zm-7.86 0c0 .55-.44 1-1 1-.55 0-1-.45-1-1 0-.56.45-1 1-1 .56 0 1 .44 1 1zm-7.85 0c0 .55-.45 1-1 1-.56 0-1-.45-1-1 0-.56.44-1 1-1 .55 0 1 .44 1 1zm-7.86 0c0 .55-.45 1-1 1s-1-.45-1-1c0-.56.45-1 1-1s1 .44 1 1zm-7.86 0c0 .55-.44 1-1 1-.54 0-1-.45-1-1 0-.56.46-1 1-1 .56 0 1 .44 1 1zm-7.85 0c0 .55-.45 1-1 1s-1-.45-1-1c0-.56.45-1 1-1s1 .44 1 1zm-7.86 0c0 .55-.45 1-1 1-.56 0-1-.45-1-1 0-.56.44-1 1-1 .55 0 1 .44 1 1zm-7.87 0c0 .55-.44 1-1 1-.55 0-1-.45-1-1 0-.56.45-1 1-1 .56 0 1 .44 1 1zm-7.85 0c0 .55-.45 1-1 1-.56 0-1-.45-1-1 0-.56.44-1 1-1 .55 0 1 .44 1 1zm-7.86 0c0 .55-.45 1-1 1s-1-.45-1-1c0-.56.45-1 1-1s1 .44 1 1z" fill="#010101"/><path d="M1422.82 966.25l17.2-10.18-17.2-10.2M1330.18 956.07h-1.02" stroke="#010101" stroke-width="2" fill="none"/><path d="M1423.5 979.9h-93.34" stroke="#000" stroke-width="2" fill="none"/><path d="M1438.76 979.9l-14.27 4.63v-9.27z" stroke="#000" stroke-width="2" fill="#fff"/><path d="M1330.18 979.9h-1.02" stroke="#000" stroke-width="2" fill="none"/><path d="M1442.35 926.84h-110.02M1425 937.02l17.2-10.18-17.2-10.18M1332.36 926.84h-1.03" stroke="#010101" stroke-width="2" fill="none"/><path d="M1425.96 900.77h-93.34" stroke="#000" stroke-width="2" fill="none"/><path d="M1441.22 900.77l-14.26 4.64v-9.26z" stroke="#000" stroke-width="2"/><path d="M1332.65 900.77h-1.03" stroke="#000" stroke-width="2" fill="none"/><defs><path d="M179 0l295-1480h308L641-774l614-706h270L931-800 1419 0h-357L632-728 487 0H179" id="v"/><path d="M464-389c4 239 215 244 420 177 88-29 181-67 276-122l-46 230C952-26 776 25 580 25c-243 0-410-133-410-370 0-284 180-557 367-673 109-68 221-105 341-105 162 0 280 85 281 234 0 80-27 156-81 229-114 153-349 260-614 271zm417-438c-1-55-38-98-99-98-51 0-105 30-164 89S515-690 486-573c133 0 232-28 297-83s98-112 98-171" id="w"/><path d="M139 395L451 0 256-1098h301l132 742 480-742h244L437 395H139" id="x"/><g id="a"><use transform="matrix(0.013020833333333334,0,0,0.013020833333333334,0,0)" xlink:href="#v"/><use transform="matrix(0.013020833333333334,0,0,0.013020833333333334,18.6328125,0)" xlink:href="#w"/><use transform="matrix(0.013020833333333334,0,0,0.013020833333333334,33.828125,0)" xlink:href="#x"/></g><path d="M197 0v-1086h197V0H197zm0-1283v-197h197v197H197" id="y"/><path d="M775-1110c188-4 310 134 310 330V0H888v-716c-1-128-8-167-76-204-78-43-151-17-234 25-57 29-118 94-184 192V0H197v-1086h197v204c83-121 205-225 381-228" id="z"/><path d="M887-302C887-87 709 25 485 25c-90 0-199-21-328-63v-181c129 64 241 96 336 96 135 0 250-124 169-245-32-48-171-101-244-132-88-38-153-79-194-128-41-48-61-107-61-177 0-195 155-305 376-305 66 0 180 15 266 33v164c-110-33-198-49-263-49-141 0-241 112-157 217 33 42 142 84 207 111 127 54 208 107 243 160s52 110 52 172" id="A"/><path d="M402-336c1 145 47 211 184 213 26 0 58-4 95-13V0C427 83 205-38 205-300v-638H69v-148h136v-197l197-19v216h284v148H402v602" id="B"/><path d="M933 25c-98 0-155-61-176-163C660-52 566 25 416 25 256 25 103-92 103-273c0-107 47-194 138-265 97-75 272-109 487-104v-131c5-142-67-189-197-189-102 0-213 32-334 96v-163c133-54 258-81 375-81 222 0 353 88 353 337v492c1 92 4 123 49 154 26 18 54 18 93 11l14 109c-45 21-94 32-148 32zM472-136c110-4 183-51 256-109v-281c-202-17-420 47-428 221-4 91 83 172 172 169" id="C"/><path d="M333-543c0 224 128 410 340 409 90 0 183-23 278-69v170C714 35 539 61 355-54c-150-94-244-263-244-495 0-330 189-561 544-561 85 0 180 12 284 35v165c-111-33-202-49-272-49-223 0-334 200-334 416" id="D"/><path d="M691-125c135 0 167-19 302-66v156C861 5 748 25 654 25 224 25-11-445 175-839c77-162 195-272 411-272 302 0 432 251 411 599H312c19 178 69 275 184 344 50 30 116 43 195 43zm109-535c4-188-68-303-226-303-173 0-238 125-253 303h479" id="E"/><path d="M111-543v-148h444v148H111" id="F"/><path d="M1147-543c0 335-173 568-518 568-343 0-518-233-518-568s174-567 518-567c343 0 518 232 518 567zm-826 0c0 239 91 420 308 420 218 0 309-181 309-420 0-240-91-419-309-419-217 0-308 179-308 419" id="G"/><path d="M600-1456c-133 0-173 56-168 219v151h271v148H432V0H234v-938H80v-148h154c-1-122-2-267 34-340 51-104 157-178 319-178 67 0 142 11 226 33v156c-89-27-160-41-213-41" id="H"/><g id="b"><use transform="matrix(0.010850694444444444,0,0,0.010850694444444444,0,0)" xlink:href="#y"/><use transform="matrix(0.010850694444444444,0,0,0.010850694444444444,6.423611111111111,0)" xlink:href="#z"/><use transform="matrix(0.010850694444444444,0,0,0.010850694444444444,20.21484375,0)" xlink:href="#A"/><use transform="matrix(0.010850694444444444,0,0,0.010850694444444444,31.54296875,0)" xlink:href="#B"/><use transform="matrix(0.010850694444444444,0,0,0.010850694444444444,39.85460069444444,0)" xlink:href="#C"/><use transform="matrix(0.010850694444444444,0,0,0.010850694444444444,52.12673611111111,0)" xlink:href="#z"/><use transform="matrix(0.010850694444444444,0,0,0.010850694444444444,65.91796875,0)" xlink:href="#D"/><use transform="matrix(0.010850694444444444,0,0,0.010850694444444444,77.30034722222223,0)" xlink:href="#E"/><use transform="matrix(0.010850694444444444,0,0,0.010850694444444444,89.68098958333334,0)" xlink:href="#F"/><use transform="matrix(0.010850694444444444,0,0,0.010850694444444444,96.90755208333334,0)" xlink:href="#G"/><use transform="matrix(0.010850694444444444,0,0,0.010850694444444444,110.55772569444446,0)" xlink:href="#H"/></g><path d="M863-759c18-191-163-226-293-144-48 30-107 87-176 175V0H197v-1086h197v204c73-112 192-229 370-228 102 0 165 36 220 88 29 28 54 75 77 140 72-114 188-228 364-229 77 0 147 24 209 72s93 131 93 249V0h-198v-759c16-190-161-225-293-143-49 31-108 87-175 174V0H863v-759" id="I"/><path d="M581-1110c158 0 231 53 313 148v-124h198v790c0 230-22 386-58 472-82 193-310 265-590 237-106-11-144-19-243-52l23-171c114 54 227 81 338 81 242 0 327-127 332-353v-171C838-139 713-25 538-25c-149 0-257-54-325-161S111-414 111-550c0-312 157-560 470-560zm-9 913c150-4 238-83 322-179v-451c-74-76-154-135-283-135-202 0-293 180-290 411 3 193 62 359 251 354" id="J"/><g id="c"><use transform="matrix(0.010850694444444444,0,0,0.010850694444444444,0,0)" xlink:href="#I"/><use transform="matrix(0.010850694444444444,0,0,0.010850694444444444,20.74652777777778,0)" xlink:href="#E"/><use transform="matrix(0.010850694444444444,0,0,0.010850694444444444,33.127170138888886,0)" xlink:href="#A"/><use transform="matrix(0.010850694444444444,0,0,0.010850694444444444,44.455295138888886,0)" xlink:href="#A"/><use transform="matrix(0.010850694444444444,0,0,0.010850694444444444,55.783420138888886,0)" xlink:href="#C"/><use transform="matrix(0.010850694444444444,0,0,0.010850694444444444,68.05555555555556,0)" xlink:href="#J"/><use transform="matrix(0.010850694444444444,0,0,0.010850694444444444,81.91189236111111,0)" xlink:href="#E"/></g><path d="M574-1110c159 3 241 51 320 148v-617h198V0H894v-204C823-70 718 23 532 25c-281 3-421-241-421-534 0-314 161-607 463-601zm-1 962c148 0 235-84 321-179v-500c-115-93-139-135-290-135-212 0-283 208-283 433 0 208 59 381 252 381" id="K"/><g id="d"><use transform="matrix(0.010850694444444444,0,0,0.010850694444444444,0,0)" xlink:href="#A"/><use transform="matrix(0.010850694444444444,0,0,0.010850694444444444,11.328125,0)" xlink:href="#E"/><use transform="matrix(0.010850694444444444,0,0,0.010850694444444444,23.70876736111111,0)" xlink:href="#z"/><use transform="matrix(0.010850694444444444,0,0,0.010850694444444444,37.5,0)" xlink:href="#K"/></g><path d="M197 0v-1579h197V0H197" id="L"/><path d="M197 0v-1579h197v1020l460-527h212L627-579 1157 0H905L394-557V0H197" id="M"/><path d="M495 25c-188 4-310-134-310-331v-780h197v716c1 129 8 167 76 205 78 44 151 17 234-25 57-29 118-94 184-192v-704h197V0H876v-204C792-82 673 22 495 25" id="N"/><path d="M757-1110c282-4 424 242 421 534-2 220-76 421-210 518C854 25 747 41 582 9 523-3 461-46 394-123v518H197v-1481h197v204c72-134 176-226 363-228zm-41 172c-149 0-235 83-322 179v500c113 94 140 136 290 136 212 0 284-210 284-433 0-207-60-382-252-382" id="O"/><g id="e"><use transform="matrix(0.010850694444444444,0,0,0.010850694444444444,0,0)" xlink:href="#L"/><use transform="matrix(0.010850694444444444,0,0,0.010850694444444444,6.423611111111111,0)" xlink:href="#G"/><use transform="matrix(0.010850694444444444,0,0,0.010850694444444444,20.07378472222222,0)" xlink:href="#G"/><use transform="matrix(0.010850694444444444,0,0,0.010850694444444444,33.72395833333333,0)" xlink:href="#M"/><use transform="matrix(0.010850694444444444,0,0,0.010850694444444444,46.71223958333333,0)" xlink:href="#N"/><use transform="matrix(0.010850694444444444,0,0,0.010850694444444444,60.50347222222221,0)" xlink:href="#O"/></g><path d="M714 25c-159-3-241-52-320-148L370 12H197v-1591h197v697c72-134 176-226 363-228 282-4 421 242 421 534 0 313-163 607-464 601zm2-963c-149 0-235 83-322 179v500c113 94 140 136 290 136 212 0 284-210 284-433 0-207-60-382-252-382" id="P"/><g id="f"><use transform="matrix(0.010850694444444444,0,0,0.010850694444444444,0,0)" xlink:href="#A"/><use transform="matrix(0.010850694444444444,0,0,0.010850694444444444,11.328125,0)" xlink:href="#N"/><use transform="matrix(0.010850694444444444,0,0,0.010850694444444444,25.11935763888889,0)" xlink:href="#P"/><use transform="matrix(0.010850694444444444,0,0,0.010850694444444444,39.10590277777778,0)" xlink:href="#D"/><use transform="matrix(0.010850694444444444,0,0,0.010850694444444444,50.48828125,0)" xlink:href="#L"/><use transform="matrix(0.010850694444444444,0,0,0.010850694444444444,56.91189236111112,0)" xlink:href="#C"/><use transform="matrix(0.010850694444444444,0,0,0.010850694444444444,69.18402777777779,0)" xlink:href="#A"/><use transform="matrix(0.010850694444444444,0,0,0.010850694444444444,80.51215277777779,0)" xlink:href="#A"/><use transform="matrix(0.010850694444444444,0,0,0.010850694444444444,91.8402777777778,0)" xlink:href="#F"/><use transform="matrix(0.010850694444444444,0,0,0.010850694444444444,99.0668402777778,0)" xlink:href="#G"/><use transform="matrix(0.010850694444444444,0,0,0.010850694444444444,112.7170138888889,0)" xlink:href="#H"/></g><path d="M536 0v-1332H302v-124l432-37V0H536" id="Q"/><use transform="matrix(0.013020833333333334,0,0,0.013020833333333334,0,0)" xlink:href="#Q" id="g"/><path d="M1136-3C969 47 777 40 736-118h-13C632-30 563 19 406 25 220 32 82-112 82-291c0-108 45-197 132-271 96-82 289-115 509-108v-100c4-131-78-171-198-171-113 0-229 33-347 98v-204c250-100 619-121 772 59 38 46 57 116 57 208v486c-4 109 33 137 122 125zM510-176c93-3 154-48 213-101v-223c-187-10-348 27-357 180-5 80 67 147 144 144" id="R"/><path d="M855-1123c191 0 317 129 317 347V0H876v-703c-1-102-8-140-62-171-63-37-126-14-190 24-44 26-92 80-143 159V0H185v-1098h296v207c86-139 191-232 374-232" id="S"/><path d="M185 0v-1480h925v203H493v413h506v204H493v450h664V0H185" id="T"/><path d="M185 0v-1579h296V0H185" id="U"/><path d="M185 0v-1098h296V0H185zm0-1283v-247h296v247H185" id="V"/><path d="M794 25c-155-3-225-51-313-136v506H185v-1493h296v207c68-137 172-230 359-232 286-3 425 245 425 544 0 317-161 611-471 604zm-61-916c-116 0-192 88-252 169v435c69 75 118 116 230 120 173 6 239-210 239-387 0-180-57-337-217-337" id="W"/><path d="M637-938c-101 0-184 30-184 113 0 105 133 124 222 161 140 58 236 105 279 157 108 132 75 318-54 427C734 61 400 40 156-35v-217c147 61 272 92 376 92 95 0 182-41 182-124 0-119-154-136-250-180-101-46-180-87-229-137-49-49-74-114-74-193 0-95 36-175 111-236 144-118 421-110 660-54v208c-119-41-217-62-295-62" id="X"/><path d="M679 25C304 25 86-196 86-557c0-334 185-566 530-566 141 0 253 45 337 134s126 256 126 499H398c12 144 63 222 160 276 46 26 108 38 185 38 99 0 211-23 336-69v208C938 4 805 25 679 25zM394-657h394c0-101-17-172-50-216-67-91-209-82-274 7-36 49-61 117-70 209" id="Y"/><g id="h"><use transform="matrix(0.015190972222222224,0,0,0.015190972222222224,0,0)" xlink:href="#R"/><use transform="matrix(0.015190972222222224,0,0,0.015190972222222224,18.289930555555557,0)" xlink:href="#S"/><use transform="matrix(0.015190972222222224,0,0,0.015190972222222224,38.72178819444444,0)" xlink:href="#T"/><use transform="matrix(0.015190972222222224,0,0,0.015190972222222224,57.40668402777778,0)" xlink:href="#U"/><use transform="matrix(0.015190972222222224,0,0,0.015190972222222224,67.52387152777779,0)" xlink:href="#U"/><use transform="matrix(0.015190972222222224,0,0,0.015190972222222224,77.64105902777779,0)" xlink:href="#V"/><use transform="matrix(0.015190972222222224,0,0,0.015190972222222224,87.75824652777779,0)" xlink:href="#W"/><use transform="matrix(0.015190972222222224,0,0,0.015190972222222224,108.37239583333334,0)" xlink:href="#X"/><use transform="matrix(0.015190972222222224,0,0,0.015190972222222224,125.96354166666669,0)" xlink:href="#Y"/></g><path d="M665-1419c-128 0-154 80-153 231v90h278v185H512V0H216v-913H65v-185h151v-79c-3-293 131-427 405-427 87 0 177 13 270 38v200c-84-35-159-53-226-53" id="Z"/><path d="M1221-549c0 354-203 574-568 574C289 25 86-195 86-549s203-574 567-574c365 0 568 220 568 574zm-820 0c0 196 68 389 252 389 185 0 253-193 253-389s-68-389-253-389c-183 0-252 194-252 389" id="aa"/><g id="i"><use transform="matrix(0.015190972222222224,0,0,0.015190972222222224,0,0)" xlink:href="#Z"/><use transform="matrix(0.015190972222222224,0,0,0.015190972222222224,12.897135416666668,0)" xlink:href="#aa"/><use transform="matrix(0.015190972222222224,0,0,0.015190972222222224,32.766927083333336,0)" xlink:href="#aa"/></g><path d="M599-1517c263 0 459 164 459 409 0 76-21 146-50 215-30 71-208 236-326 336-101 85-247 229-274 384h643V0H170v-173c57-134 172-281 348-438 92-82 240-212 284-303 30-61 47-124 47-189 2-166-113-270-280-266-165 4-237 51-362 119v-174c131-62 262-93 392-93" id="ab"/><use transform="matrix(0.013020833333333334,0,0,0.013020833333333334,0,0)" xlink:href="#ab" id="j"/><path d="M185 0v-1480h408L949-439l367-1041h358V0h-284v-1117L1029-99H781L427-1132V0H185" id="ac"/><path d="M886-853c-182-67-334 27-405 156V0H185v-1098h296v207c67-135 206-256 405-226v264" id="ad"/><path d="M855-1123c191 0 317 129 317 347V0H876v-703c-1-102-8-140-62-171-63-37-126-14-190 24-44 26-92 80-143 159V0H185v-1579h296v688c86-139 191-232 374-232" id="ae"/><g id="k"><use transform="matrix(0.01953125,0,0,0.01953125,0,0)" xlink:href="#ac"/><use transform="matrix(0.01953125,0,0,0.01953125,36.30859375,0)" xlink:href="#aa"/><use transform="matrix(0.01953125,0,0,0.01953125,61.85546875,0)" xlink:href="#ad"/><use transform="matrix(0.01953125,0,0,0.01953125,80.0390625,0)" xlink:href="#W"/><use transform="matrix(0.01953125,0,0,0.01953125,106.54296875,0)" xlink:href="#ae"/></g><path d="M185 0v-1480h503c223 0 326 36 406 160s61 268-28 382c-52 68-144 123-277 165 186 45 295 104 371 235 63 110 59 253-8 358C1069-49 966 1 734 0H185zm363-864c170 6 283-90 283-239 0-80-32-125-94-153-34-16-161-23-256-21v413h67zm334 461c0-160-170-270-347-263h-54v456c236 1 401 6 401-193" id="af"/><path d="M563-1123c156 3 224 51 313 136v-592h297V0H876v-207C808-69 705 23 517 25 231 28 93-220 93-519c0-318 161-610 470-604zm61 916c116 0 194-89 252-169v-435c-68-75-117-117-229-120-174-5-239 206-239 387-1 177 56 337 216 337" id="ag"/><g id="l"><use transform="matrix(0.01953125,0,0,0.01953125,0,0)" xlink:href="#af"/><use transform="matrix(0.01953125,0,0,0.01953125,25.1953125,0)" xlink:href="#aa"/><use transform="matrix(0.01953125,0,0,0.01953125,50.7421875,0)" xlink:href="#ad"/><use transform="matrix(0.01953125,0,0,0.01953125,68.92578125,0)" xlink:href="#ag"/><use transform="matrix(0.01953125,0,0,0.01953125,95.4296875,0)" xlink:href="#Y"/><use transform="matrix(0.01953125,0,0,0.01953125,118.8671875,0)" xlink:href="#ad"/><use transform="matrix(0.01953125,0,0,0.01953125,137.05078125,0)" xlink:href="#Y"/><use transform="matrix(0.01953125,0,0,0.01953125,160.48828125,0)" xlink:href="#ag"/><use transform="matrix(0.01953125,0,0,0.01953125,186.9921875,0)" xlink:href="#ac"/><use transform="matrix(0.01953125,0,0,0.01953125,223.30078125,0)" xlink:href="#aa"/><use transform="matrix(0.01953125,0,0,0.01953125,248.84765625,0)" xlink:href="#ad"/><use transform="matrix(0.01953125,0,0,0.01953125,267.03125,0)" xlink:href="#W"/><use transform="matrix(0.01953125,0,0,0.01953125,293.53515625,0)" xlink:href="#ae"/></g><g id="m"><use transform="matrix(0.01953125,0,0,0.01953125,0,0)" xlink:href="#T"/><use transform="matrix(0.01953125,0,0,0.01953125,24.0234375,0)" xlink:href="#U"/><use transform="matrix(0.01953125,0,0,0.01953125,37.03125,0)" xlink:href="#U"/><use transform="matrix(0.01953125,0,0,0.01953125,50.0390625,0)" xlink:href="#V"/><use transform="matrix(0.01953125,0,0,0.01953125,63.046875,0)" xlink:href="#W"/><use transform="matrix(0.01953125,0,0,0.01953125,89.55078125,0)" xlink:href="#X"/><use transform="matrix(0.01953125,0,0,0.01953125,112.16796875,0)" xlink:href="#Y"/><use transform="matrix(0.01953125,0,0,0.01953125,135.60546875,0)" xlink:href="#ac"/><use transform="matrix(0.01953125,0,0,0.01953125,171.9140625,0)" xlink:href="#aa"/><use transform="matrix(0.01953125,0,0,0.01953125,197.4609375,0)" xlink:href="#ad"/><use transform="matrix(0.01953125,0,0,0.01953125,215.64453125,0)" xlink:href="#W"/><use transform="matrix(0.01953125,0,0,0.01953125,242.1484375,0)" xlink:href="#ae"/></g><g id="n"><use transform="matrix(0.01953125,0,0,0.01953125,0,0)" xlink:href="#R"/><use transform="matrix(0.01953125,0,0,0.01953125,23.515625,0)" xlink:href="#S"/><use transform="matrix(0.01953125,0,0,0.01953125,49.78515625,0)" xlink:href="#T"/><use transform="matrix(0.01953125,0,0,0.01953125,73.80859375,0)" xlink:href="#U"/><use transform="matrix(0.01953125,0,0,0.01953125,86.81640625,0)" xlink:href="#U"/><use transform="matrix(0.01953125,0,0,0.01953125,99.82421875,0)" xlink:href="#V"/><use transform="matrix(0.01953125,0,0,0.01953125,112.83203125,0)" xlink:href="#W"/><use transform="matrix(0.01953125,0,0,0.01953125,139.3359375,0)" xlink:href="#X"/><use transform="matrix(0.01953125,0,0,0.01953125,161.953125,0)" xlink:href="#Y"/><path d="M-2 2.93h189.4v1.95H-2z"/></g><path d="M228-1458c140-47 191-59 337-59 157 0 270 34 346 94 109 86 146 262 79 401-52 108-143 174-277 220 172 41 263 89 322 220 77 172 32 353-83 482C807 63 488 63 208-11v-184c141 56 251 84 332 84 179 0 320-120 320-296 0-85-34-156-92-220-65-71-238-99-423-92v-133c170 4 332-21 393-88 55-60 86-125 86-202 0-150-108-227-272-227-97 0-205 28-324 83v-172" id="ah"/><use transform="matrix(0.013020833333333334,0,0,0.013020833333333334,0,0)" xlink:href="#ah" id="o"/><path d="M771 0v-419H105v-149l666-912h185v900h198v161H956V0H771zM298-580h486v-658" id="ai"/><use transform="matrix(0.013020833333333334,0,0,0.013020833333333334,0,0)" xlink:href="#ai" id="p"/><g id="q"><use transform="matrix(0.015190972222222224,0,0,0.015190972222222224,0,0)" xlink:href="#X"/><use transform="matrix(0.015190972222222224,0,0,0.015190972222222224,17.591145833333336,0)" xlink:href="#Y"/><use transform="matrix(0.015190972222222224,0,0,0.015190972222222224,35.8203125,0)" xlink:href="#U"/><use transform="matrix(0.015190972222222224,0,0,0.015190972222222224,45.9375,0)" xlink:href="#Z"/></g><path d="M185 0v-1480h271l686 1011v-1011h247V0h-276L432-1011V0H185" id="aj"/><path d="M495-374c0 144 39 202 165 202 25 0 56-5 91-14V-6C541 64 312 11 239-128c-25-48-40-116-40-207v-578H76v-185h123v-185l296-34v219h235v185H495v539" id="ak"/><path d="M173-1480h308v907c0 164 29 271 83 326 99 103 329 107 426 1 50-54 77-154 77-305v-929h268v909c1 319-65 437-251 544-152 87-464 85-625 5-197-98-286-232-286-552v-906" id="al"/><path d="M105 0v-296h296V0H105zm0-802v-296h296v296H105" id="am"/><g id="r"><use transform="matrix(0.015190972222222224,0,0,0.015190972222222224,0,0)" xlink:href="#ag"/><use transform="matrix(0.015190972222222224,0,0,0.015190972222222224,20.614149305555557,0)" xlink:href="#aa"/><use transform="matrix(0.015190972222222224,0,0,0.015190972222222224,40.48394097222223,0)" xlink:href="#Y"/><use transform="matrix(0.015190972222222224,0,0,0.015190972222222224,58.7131076388889,0)" xlink:href="#X"/><use transform="matrix(0.015190972222222224,0,0,0.015190972222222224,76.30425347222223,0)" xlink:href="#aj"/><use transform="matrix(0.015190972222222224,0,0,0.015190972222222224,100.21484375,0)" xlink:href="#aa"/><use transform="matrix(0.015190972222222224,0,0,0.015190972222222224,120.08463541666667,0)" xlink:href="#ak"/><use transform="matrix(0.015190972222222224,0,0,0.015190972222222224,132.69314236111111,0)" xlink:href="#al"/><use transform="matrix(0.015190972222222224,0,0,0.015190972222222224,155.60112847222223,0)" xlink:href="#S"/><use transform="matrix(0.015190972222222224,0,0,0.015190972222222224,176.03298611111111,0)" xlink:href="#ag"/><use transform="matrix(0.015190972222222224,0,0,0.015190972222222224,196.64713541666669,0)" xlink:href="#Y"/><use transform="matrix(0.015190972222222224,0,0,0.015190972222222224,214.87630208333334,0)" xlink:href="#ad"/><use transform="matrix(0.015190972222222224,0,0,0.015190972222222224,229.01909722222223,0)" xlink:href="#X"/><use transform="matrix(0.015190972222222224,0,0,0.015190972222222224,246.61024305555557,0)" xlink:href="#ak"/><use transform="matrix(0.015190972222222224,0,0,0.015190972222222224,259.21875,0)" xlink:href="#R"/><use transform="matrix(0.015190972222222224,0,0,0.015190972222222224,277.50868055555554,0)" xlink:href="#S"/><use transform="matrix(0.015190972222222224,0,0,0.015190972222222224,297.94053819444446,0)" xlink:href="#ag"/><use transform="matrix(0.015190972222222224,0,0,0.015190972222222224,318.5546875,0)" xlink:href="#am"/></g><path d="M185 0l107-426H18l29-148h282l83-333H114l29-148h306l107-425h152l-106 425h262l106-425h153l-106 425h273l-29 148H980l-84 333h299l-30 148H859L753 0H600l107-426H444L338 0H185zm296-574h263l83-333H565" id="an"/><g id="s"><use transform="matrix(0.015190972222222224,0,0,0.015190972222222224,0,0)" xlink:href="#an"/><use transform="matrix(0.015190972222222224,0,0,0.015190972222222224,19.869791666666668,0)" xlink:href="#Z"/><use transform="matrix(0.015190972222222224,0,0,0.015190972222222224,32.766927083333336,0)" xlink:href="#aa"/><use transform="matrix(0.015190972222222224,0,0,0.015190972222222224,52.63671875,0)" xlink:href="#aa"/></g><path d="M191 0v-1480h206l745 1143v-1143h180V0h-205L371-1143V0H191" id="ao"/><path d="M389-546c-2 292 91 426 345 426 252 0 323-134 323-419v-941h184v938c1 297-61 410-227 516-136 87-461 80-597-2-171-104-239-230-238-520v-932h210v934" id="ap"/><path d="M707-938c-160 0-242 101-313 222V0H197v-1086h197v204c70-138 200-250 403-223v184c-33-11-63-17-90-17" id="aq"/><path d="M225 0v-197h197V0H225zm0-888v-198h197v198H225" id="ar"/><g id="t"><use transform="matrix(0.013020833333333334,0,0,0.013020833333333334,0,0)" xlink:href="#K"/><use transform="matrix(0.013020833333333334,0,0,0.013020833333333334,16.783854166666668,0)" xlink:href="#G"/><use transform="matrix(0.013020833333333334,0,0,0.013020833333333334,33.1640625,0)" xlink:href="#E"/><use transform="matrix(0.013020833333333334,0,0,0.013020833333333334,48.020833333333336,0)" xlink:href="#A"/><use transform="matrix(0.013020833333333334,0,0,0.013020833333333334,61.614583333333336,0)" xlink:href="#ao"/><use transform="matrix(0.013020833333333334,0,0,0.013020833333333334,81.31510416666667,0)" xlink:href="#G"/><use transform="matrix(0.013020833333333334,0,0,0.013020833333333334,97.6953125,0)" xlink:href="#B"/><use transform="matrix(0.013020833333333334,0,0,0.013020833333333334,107.66927083333334,0)" xlink:href="#ap"/><use transform="matrix(0.013020833333333334,0,0,0.013020833333333334,126.14583333333334,0)" xlink:href="#z"/><use transform="matrix(0.013020833333333334,0,0,0.013020833333333334,142.6953125,0)" xlink:href="#K"/><use transform="matrix(0.013020833333333334,0,0,0.013020833333333334,159.47916666666666,0)" xlink:href="#E"/><use transform="matrix(0.013020833333333334,0,0,0.013020833333333334,174.3359375,0)" xlink:href="#aq"/><use transform="matrix(0.013020833333333334,0,0,0.013020833333333334,185.24739583333334,0)" xlink:href="#A"/><use transform="matrix(0.013020833333333334,0,0,0.013020833333333334,198.84114583333334,0)" xlink:href="#B"/><use transform="matrix(0.013020833333333334,0,0,0.013020833333333334,208.81510416666669,0)" xlink:href="#C"/><use transform="matrix(0.013020833333333334,0,0,0.013020833333333334,223.54166666666669,0)" xlink:href="#z"/><use transform="matrix(0.013020833333333334,0,0,0.013020833333333334,240.09114583333334,0)" xlink:href="#K"/><use transform="matrix(0.013020833333333334,0,0,0.013020833333333334,256.875,0)" xlink:href="#ar"/></g><path d="M1594-740c0 477-269 777-750 777S93-263 93-740s271-777 751-777c479 0 750 301 750 777zM844-167c143 0 247-60 318-175 138-223 138-576 0-798-72-115-176-174-318-174-143 0-247 59-319 174-138 222-139 575-1 798 71 115 177 175 320 175" id="as"/><path d="M795 25c-153-3-233-51-314-136L426 0H185v-1579h296v688c68-137 172-230 359-232 286-3 425 245 425 544 0 317-161 610-470 604zm-62-916c-116 0-192 88-252 169v435c69 75 118 116 230 120 173 6 239-210 239-387 0-180-57-337-217-337" id="at"/><path d="M43 234c123 0 158-66 158-234v-1098h296V-20c0 220-48 322-183 392-136 70-321 63-493 1V175c86 39 160 59 222 59zm158-1517v-247h296v247H201" id="au"/><path d="M400-552c0 215 105 381 321 381 89 0 180-19 274-58v205C709 58 382 46 228-142 136-255 86-389 86-550c1-349 221-573 591-573 89 0 192 14 309 43v214c-121-39-218-59-290-59-201 0-296 189-296 373" id="av"/><g id="u"><use transform="matrix(0.01953125,0,0,0.01953125,0,0)" xlink:href="#as"/><use transform="matrix(0.01953125,0,0,0.01953125,32.9296875,0)" xlink:href="#at"/><use transform="matrix(0.01953125,0,0,0.01953125,59.43359375,0)" xlink:href="#au"/><use transform="matrix(0.01953125,0,0,0.01953125,72.75390625,0)" xlink:href="#Y"/><use transform="matrix(0.01953125,0,0,0.01953125,96.19140625,0)" xlink:href="#av"/><use transform="matrix(0.01953125,0,0,0.01953125,117.48046875,0)" xlink:href="#ak"/></g></defs></g></svg>