<svg xmlns="http://www.w3.org/2000/svg" xmlns:xlink="http://www.w3.org/1999/xlink" xmlns:lucid="lucid" width="1690" height="688.95"><g transform="translate(0 -264)" lucid:page-tab-id="xNTSoMlATFL3u"><path d="M367.3 879.02l-1.37 1.44-51.42-49.34v-2.77zm-69.65-66.85v2.77l-94.32-90.53 1.38-1.43z" fill="#010101"/><path d="M367.93 881l-21.12-4.96.47-1.95 17.82 4.18-4.92-17.64 1.92-.53zM203.35 724.43l-1.5-1.43h2.87z" fill="#010101"/><use xlink:href="#a" transform="matrix(1,0,0,1,297.65024692629595,805.940004825592) translate(0.005000000000000782 25.78125)"/><path d="M20 685h327v38H20z" stroke="#000" stroke-opacity="0" stroke-width="2" fill="#fff" fill-opacity="0"/><use xlink:href="#b" transform="matrix(1,0,0,1,20,685) translate(12.000434027777771 30.7578125)"/><use xlink:href="#c" transform="matrix(1,0,0,1,20,685) translate(166.12803819444446 30.7578125)"/><path d="M428.53 879.77l.3.7-.3.7-.7.3-.72-.3-.28-.7.3-.7.7-.3zm6.96-4.04l.28.7-.3.7-.7.3-.7-.3-.3-.7.3-.7.7-.3zm7.17-3.62l.3.72-.3.7-.7.3-.7-.3-.3-.7.3-.7.7-.3zm7.34-3.3l.3.7-.3.7-.7.3-.7-.3-.3-.7.3-.7.7-.3zm7.53-2.86l.3.7-.3.72-.7.3-.7-.3-.3-.7.3-.72.7-.3zm7.53-2.85l.3.7-.3.7-.7.3-.72-.3-.3-.7.3-.7.7-.3zm7.52-2.86l.3.7-.3.72-.7.3-.7-.3-.3-.7.3-.72.7-.3zm7.53-2.85l.3.7-.3.7-.7.3-.7-.3-.3-.7.3-.7.7-.3zm7.53-2.86l.3.7-.3.7-.7.3-.7-.3-.3-.7.3-.7.7-.3zm7.53-2.85l.3.7-.3.7-.7.3-.7-.3-.3-.7.3-.7.7-.3zm7.53-2.86l.28.7-.3.7-.7.3-.7-.3-.3-.7.3-.7.7-.3zm7.44-3.03l.3.72-.3.7-.7.3-.7-.3-.3-.7.3-.7.7-.3zm7.45-3.04l.28.7-.3.72-.7.3-.7-.3-.3-.7.3-.72.7-.3zm7.36-3.22l.3.7-.3.72-.7.3-.7-.3-.3-.7.3-.72.7-.3zm7.32-3.36l.3.7-.3.7-.7.3-.72-.3-.3-.7.3-.7.7-.3zm7.2-3.6l.3.7-.3.72-.7.3-.72-.3-.3-.7.3-.72.7-.3zm7.12-3.73l.3.7-.3.7-.7.3-.7-.3-.3-.7.3-.7.7-.3zm7-3.97l.3.7-.3.72-.7.3-.7-.3-.3-.7.3-.72.7-.3zm6.87-4.2l.3.72-.3.7-.7.3-.7-.3-.3-.7.3-.7.7-.3zm6.76-4.36l.3.7-.3.72-.7.3-.7-.3-.3-.7.3-.72.7-.3zm6.64-4.55l.3.7-.3.72-.7.28-.72-.3-.3-.7.3-.7.7-.3zm6.45-4.8l.3.7-.3.7-.7.3-.72-.3-.3-.7.3-.7.7-.3zm6.3-5.02l.3.7-.3.72-.7.3-.72-.3-.3-.7.3-.72.7-.3zm6.16-5.17l.3.7-.3.7-.7.3-.72-.3-.3-.7.3-.7.7-.3zm6.02-5.34l.3.7-.3.72-.7.3-.7-.3-.3-.7.3-.72.7-.3zm5.8-5.58l.3.7-.3.7-.7.3-.72-.3-.3-.7.3-.7.7-.3zm5.65-5.72l.3.7-.3.7-.7.3-.7-.3-.3-.7.3-.7.7-.3zm5.53-5.85l.3.7-.3.7-.7.3-.7-.3-.3-.7.3-.7.7-.3zm5.3-6.06l.3.7-.3.7-.7.3-.7-.3-.3-.7.3-.7.7-.3zm5.17-6.17l.3.7-.3.7-.7.3-.7-.3-.3-.7.3-.7.7-.3zm5.05-6.27l.3.7-.3.7-.7.3-.72-.3-.3-.7.3-.7.7-.3zm4.8-6.45l.3.7-.3.7-.7.3-.7-.3-.3-.7.3-.7.7-.3zm4.7-6.54l.3.72-.3.7-.7.3-.7-.3-.3-.7.3-.7.7-.3zm4.46-6.7l.3.72-.3.7-.7.3-.72-.3-.3-.7.3-.7.7-.3zm4.23-6.83l.28.7-.3.7-.7.3-.7-.3-.3-.7.3-.7.7-.3zm4-6.98l.3.7-.3.7-.7.3-.7-.3-.3-.7.3-.7.7-.3zm3.77-7.12l.3.7-.3.72-.7.3-.7-.3-.3-.7.3-.72.7-.3zm3.5-7.24l.3.7-.3.72-.7.3-.7-.3-.3-.7.3-.72.7-.3zm3.23-7.37l.3.7-.3.7-.7.3-.7-.3-.3-.7.3-.7.7-.3zm3.22-6.8l-.3.72-.7.28-.7-.3-.3-.7.17-.42h1.65zm8.02-31.82h-.65l.3-.13zm1.74-7.77l.3.7-.3.72-.7.3-.7-.3-.3-.7.3-.72.7-.3zm1.1-7.97l.3.72-.3.7-.7.3-.72-.3-.3-.7.3-.7.7-.3zm1.1-7.96l.3.7-.3.7-.7.3-.72-.3-.3-.7.3-.7.7-.3zm1.1-7.97l.28.7-.3.7-.7.3-.7-.3-.3-.7.3-.7.7-.3zm1.08-7.98l.3.7-.3.7-.7.3-.7-.3-.3-.7.3-.7.7-.3zm1.1-7.98l.3.7-.3.7-.7.3-.72-.3-.3-.7.3-.7.7-.3zm1.1-7.97l.3.7-.3.7-.7.3-.72-.3-.3-.7.3-.7.7-.3zm1.23-7.95l.28.7-.3.7-.7.3-.7-.3-.3-.7.3-.7.7-.3zm1.38-7.93l.3.7-.3.7-.7.3-.7-.3-.3-.7.3-.7.7-.3zm1.7-7.86l.3.7-.3.72-.7.3-.7-.3-.3-.7.3-.7.7-.3zm2.1-7.77l.3.7-.3.72-.7.3-.72-.3-.3-.7.3-.72.7-.3zm2.46-7.65l.3.7-.3.7-.7.3-.7-.3-.3-.7.3-.7.7-.3zm2.87-7.52l.3.7-.3.7-.7.3-.7-.3-.3-.7.3-.7.7-.3zm3.35-7.32l.3.7-.3.7-.7.3-.7-.3-.3-.7.3-.7.7-.3zm3.74-7.12l.3.7-.3.7-.7.3-.72-.3-.3-.7.3-.7.7-.3zm4.12-6.9l.3.7-.3.7-.7.3-.7-.3-.3-.7.3-.7.7-.3zm4.53-6.66l.3.7-.3.7-.7.3-.7-.3-.3-.7.3-.7.7-.3zm4.98-6.32l.3.7-.3.72-.7.3-.7-.3-.3-.7.3-.72.7-.3zm5.35-6l.3.7-.3.7-.7.3-.72-.3-.3-.7.3-.7.7-.3zm5.6-5.78l.3.7-.3.7-.7.3-.7-.3-.3-.7.3-.7.7-.3zm5.8-5.6l.3.72-.3.7-.7.3-.72-.3-.3-.7.3-.7.7-.3zm6-5.36l.3.7-.3.72-.7.3-.72-.3-.3-.7.3-.72.7-.3zm6.14-5.2l.3.72-.3.7-.7.3-.72-.3-.3-.7.3-.7.7-.3zm6.23-5.1l.3.72-.3.7-.7.3-.72-.3-.3-.7.3-.7.7-.3zm6.4-4.84l.3.7-.3.7-.7.3-.7-.3-.3-.7.3-.7.7-.3zm6.46-4.82l.3.7-.3.7-.7.3-.7-.3-.3-.7.3-.7.7-.3zm6.66-4.53l.3.72-.3.7-.7.3-.7-.3-.3-.7.3-.7.7-.3zm6.7-4.46l.3.7-.3.72-.7.3-.72-.3-.3-.7.3-.72.7-.3zm6.84-4.23l.3.7-.3.72-.7.3-.72-.3-.3-.7.3-.7.7-.3zm6.96-4.02l.3.7-.3.7-.7.3-.7-.3-.3-.7.3-.7.7-.3zm7.1-3.78l.3.7-.3.72-.7.3-.7-.3-.3-.7.3-.72.7-.3zm7.28-3.43l.3.7-.3.7-.7.3-.7-.3-.3-.7.3-.7.7-.3zm7.52-2.88l.3.7-.3.7-.7.3-.72-.3-.3-.7.3-.7.7-.3zm7.83-1.78l.28.7-.3.72-.7.3-.7-.3-.3-.7.3-.72.7-.3z" fill="#010101"/><path d="M822 454.13l-15.42 15.26-1.4-1.43 13-12.88-17.55-5.2.57-1.93zM428.17 881h-3.1l2.25-1.4z" fill="#010101"/><use xlink:href="#d" transform="matrix(1,0,0,1,662.9616445309324,661.9536964357201) translate(0.005000000000000782 25.78125)"/><path d="M1324 788h273.34l72.66 27.93V921h-346z" stroke="#000" stroke-width="2" fill="#fff"/><path d="M1593.88 788c10.38 0 6.92 4 6.92 26.6 58.82 0 69.2-1.33 69.2 2.66 0-4 0-2.66-34.6-15.96s-31.14-13.3-41.52-13.3zM1660 835h-125M1660 871h-125" stroke="#000" stroke-width="2" fill="#fff"/><path d="M1660 906.98h-125" fill="#fff"/><path d="M1661 906.98c0 .55-.45 1-1 1s-1-.45-1-1 .45-1 1-1 1 .45 1 1zm-7.8 0c0 .55-.46 1-1 1-.56 0-1-.45-1-1s.44-1 1-1c.54 0 1 .45 1 1zm-7.83 0c0 .55-.44 1-1 1-.55 0-1-.45-1-1s.45-1 1-1c.56 0 1 .45 1 1zm-7.8 0c0 .55-.46 1-1 1-.56 0-1-.45-1-1s.44-1 1-1c.54 0 1 .45 1 1zm-7.82 0c0 .55-.45 1-1 1s-1-.45-1-1 .45-1 1-1 1 .45 1 1zm-7.8 0c0 .55-.46 1-1 1-.57 0-1-.45-1-1s.43-1 1-1c.54 0 1 .45 1 1zm-7.83 0c0 .55-.45 1-1 1s-1-.45-1-1 .45-1 1-1 1 .45 1 1zm-7.8 0c0 .55-.46 1-1 1-.56 0-1-.45-1-1s.44-1 1-1c.54 0 1 .45 1 1zm-7.82 0c0 .55-.45 1-1 1-.56 0-1-.45-1-1s.44-1 1-1c.55 0 1 .45 1 1zm-7.82 0c0 .55-.45 1-1 1s-1-.45-1-1 .45-1 1-1 1 .45 1 1zm-7.8 0c0 .55-.46 1-1 1-.56 0-1-.45-1-1s.44-1 1-1c.54 0 1 .45 1 1zm-7.82 0c0 .55-.45 1-1 1-.56 0-1-.45-1-1s.44-1 1-1c.55 0 1 .45 1 1zm-7.82 0c0 .55-.44 1-1 1-.55 0-1-.45-1-1s.45-1 1-1c.56 0 1 .45 1 1zm-7.8 0c0 .55-.46 1-1 1-.56 0-1-.45-1-1s.44-1 1-1c.54 0 1 .45 1 1zm-7.82 0c0 .55-.45 1-1 1-.56 0-1-.45-1-1s.44-1 1-1c.55 0 1 .45 1 1zm-7.82 0c0 .55-.44 1-1 1-.55 0-1-.45-1-1s.45-1 1-1c.56 0 1 .45 1 1z"/><use xlink:href="#e" transform="matrix(1,0,0,1,1324,788) translate(148.1953125 25.78125)"/><use xlink:href="#f" transform="matrix(1,0,0,1,1324,788) translate(11 57.1875)"/><use xlink:href="#g" transform="matrix(1,0,0,1,1324,788) translate(11 88.59375)"/><use xlink:href="#h" transform="matrix(1,0,0,1,1324,788) translate(132.58854166666669 88.59375)"/><use xlink:href="#i" transform="matrix(1,0,0,1,1324,788) translate(11 120)"/><path d="M823 443h238v67H823z" stroke="#000" stroke-width="2" fill="#fff"/><use xlink:href="#j" transform="matrix(1,0,0,1,823,443) translate(11 25.78125)"/><use xlink:href="#k" transform="matrix(1,0,0,1,823,443) translate(11 57.1875)"/><path d="M823 394h238v49H823z" stroke="#000" stroke-width="2" fill="#fff"/><use xlink:href="#l" transform="matrix(1,0,0,1,823,394) translate(52.59375 38.671875)"/><path d="M863 284h158v49H863z" stroke="#000" stroke-width="2" fill="#fff"/><use xlink:href="#m" transform="matrix(1,0,0,1,863,284) translate(12.154296875 39.6171875)"/><path d="M769 630h347v33H769z" stroke="#000" stroke-width="2" fill="#fff"/><use xlink:href="#n" transform="matrix(1,0,0,1,769,630) translate(11 25.78125)"/><path d="M769 582h347v49H769z" stroke="#000" stroke-width="2" fill="#fff"/><use xlink:href="#o" transform="matrix(1,0,0,1,769,582) translate(13.59765625 38.671875)"/><path d="M942 351.5V393" stroke="#000" stroke-width="2" fill="none"/><path d="M942 336.24l4.64 14.26h-9.28z" stroke="#000" stroke-width="2" fill="#fff"/><path d="M942 392.97V394M942 527.5V581" stroke="#000" stroke-width="2" fill="none"/><path d="M942 512.24l4.64 14.26h-9.28z" stroke="#000" stroke-width="2" fill="#fff"/><path d="M942 580.97V582" stroke="#000" stroke-width="2" fill="none"/><path d="M769 788h347v33H769z" stroke="#000" stroke-width="2" fill="#fff"/><use xlink:href="#p" transform="matrix(1,0,0,1,769,788) translate(11 25.78125)"/><path d="M769 739h347v49H769z" stroke="#000" stroke-width="2" fill="#fff"/><use xlink:href="#q" transform="matrix(1,0,0,1,769,739) translate(39.291015625 38.671875)"/><path d="M838.63 831.2l-.48.33-26.83 19.1-6.52 3.97-6.62 3.65-7.14 3.56-7.98 3.58-9.22 3.66-10.95 3.83-13.4 4.06-16.88 4.36-7.4 1.68-21.85 4.33-24.06 3.73-27.53 3.1-34.4 2.37-117.34 3.47-.06-2 117.3-3.46 34.32-2.37 27.44-3.08 23.98-3.7L724.8 881l7.35-1.68 16.8-4.33 13.32-4.03 10.87-3.8 9.14-3.63 7.9-3.54 7.07-3.52 6.55-3.6 6.42-3.92 26.8-19.08.5-.33zM841.27 833.87l-4.7-7.98 14.64-3.26z"/><path d="M841.1 835.57L835 825.2l19-4.2zm-2.97-9l3.3 5.6 7-7.9zM500.05 899.97l-.05-1.85z"/><path d="M290 882h209v49H290z" stroke="#000" stroke-width="2" fill="#fff"/><use xlink:href="#r" transform="matrix(1,0,0,1,290,882) translate(11.8046875 39.6171875)"/><path d="M942 682.5V738" stroke="#000" stroke-width="2" fill="none"/><path d="M942 667.24l4.64 14.26h-9.28z" stroke="#000" stroke-width="2" fill="#fff"/><path d="M942 737.97V739" stroke="#000" stroke-width="2" fill="none"/><path d="M436 629.63l-4.06 24.74-3.85 31.9-7.2 110.4-3.13 41.5-2.4 19.95-2.24 13.7-1.78 8.6-1.96-.4 1.76-8.56 2.23-13.62 2.37-19.87 3.13-41.44 7.2-110.44 3.86-32 4.06-24.83 3.4-16.43h2.05zM673.43 402.2l18.73.88 38.1 3.5 42.76 4.16 13.2.6 9.33.05 7.32-.3 6.06-.47 5.18-.64 4.55-.76.16-.03.38 1.97-.18.04-4.6.77-5.28.65-6.14.5-7.4.27-9.4-.05-13.32-.62-42.78-4.14-38.07-3.53-18.64-.86-14.55-.05-12.34.48-10.92.88-9.9 1.22-9.17 1.52-8.55 1.8-8.1 2.04-7.7 2.3-7.4 2.55-7.14 2.8-6.94 3.07-6.8 3.34-6.65 3.64-6.57 3.95-6.52 4.3-6.47 4.7-6.48 5.1-6.5 5.57-6.55 6.1-6.62 6.73-6.72 7.42-4.56 5.4-6.47 8.24-6.23 8.65-6 9.13-5.8 9.7-5.62 10.3-5.43 11.06-5.24 11.93-5.06 12.98-4.88 14.24-1.82 6.13h-2.1l2-6.75 4.93-14.32 5.1-13.05 5.27-12 5.46-11.13 5.65-10.4 5.85-9.75 6.05-9.2 6.28-8.73 6.52-8.3 4.6-5.46 6.77-7.48 6.68-6.78 6.6-6.17 6.58-5.62 6.54-5.16 6.56-4.73 6.58-4.36 6.65-4 6.75-3.67 6.86-3.38 7.04-3.1 7.22-2.85 7.48-2.58 7.8-2.32 8.16-2.07 8.64-1.8 9.24-1.54 10-1.22 11-.9 12.44-.47z" fill="#010101"/><path d="M410.75 878.14l12.15-13.7 1.5 1.33L410 882l-7.28-20.44 1.88-.67zM820.2 410.98l-1.02.2-.38-1.97 1-.18z" fill="#010101"/><use xlink:href="#s" transform="matrix(1,0,0,1,433.7899662805552,581.4291251774149) translate(0.005000000000000782 25.78125)"/><path d="M419 473h287v38H419z" stroke="#000" stroke-opacity="0" stroke-width="2" fill="#fff"/><use xlink:href="#t" transform="matrix(1,0,0,1,419,473) translate(17.278211805555543 30.7578125)"/><use xlink:href="#u" transform="matrix(1,0,0,1,419,473) translate(86.04774305555554 30.7578125)"/><path d="M505.6 880.85l.3.7-.3.7-.7.3-.7-.3-.3-.7.3-.7.7-.3zm7.33-3.07l.3.7-.3.7-.7.3-.72-.3-.28-.7.3-.7.7-.3zm7.32-3.06l.3.7-.3.72-.7.3-.7-.3-.3-.7.3-.72.7-.3zm7.33-3.05l.3.7-.3.7-.7.3-.7-.3-.3-.7.3-.7.7-.3zm7.33-3.06l.3.72-.3.7-.7.3-.7-.3-.3-.7.3-.7.7-.3zm7.34-3.04l.3.7-.3.7-.7.3-.7-.3-.3-.7.3-.7.7-.3zm7.33-3.06l.3.7-.3.7-.7.3-.7-.3-.3-.7.3-.7.7-.3zm7.33-3.05l.3.7-.3.7-.7.3-.7-.3-.3-.7.3-.7.7-.3zm7.33-3.06l.3.7-.3.7-.7.3-.7-.3-.3-.7.3-.7.7-.3zm7.33-3.07l.3.7-.3.72-.7.3-.7-.3-.3-.7.3-.72.7-.3zm7.33-3.05l.28.7-.3.7-.7.3-.7-.3-.3-.7.3-.7.7-.3zm7.32-3.06l.3.7-.3.72-.7.3-.72-.3-.3-.7.3-.72.7-.3zm7.33-3.05l.3.7-.3.7-.7.3-.72-.3-.3-.7.3-.7.7-.3zm7.33-3.06l.3.72-.3.7-.7.3-.72-.3-.3-.7.3-.7.7-.3zm7.27-3.16l.3.7-.3.7-.7.3-.7-.3-.3-.7.3-.7.7-.3zm7.2-3.34l.3.7-.3.72-.7.3-.7-.3-.3-.7.3-.72.7-.3zm7.2-3.34l.3.7-.3.72-.7.3-.7-.3-.3-.7.3-.72.7-.3zm7.2-3.4l.28.7-.3.7-.7.3-.7-.3-.3-.7.3-.7.7-.3zm7.04-3.64l.3.7-.3.7-.7.3-.72-.3-.3-.7.3-.7.7-.3zm7.05-3.64l.3.7-.3.7-.7.3-.7-.3-.3-.7.3-.7.7-.3zm6.92-3.9l.3.72-.3.7-.7.3-.7-.3-.3-.7.3-.7.7-.3zm6.9-3.92l.3.7-.3.7-.7.3-.7-.3-.3-.7.3-.7.7-.3zm6.75-4.2l.3.7-.3.72-.7.3-.72-.3-.3-.7.3-.7.7-.3zm6.67-4.3l.3.72-.3.7-.7.3-.72-.3-.3-.7.3-.7.7-.3zm6.54-4.5l.3.72-.3.7-.7.3-.72-.3-.3-.7.3-.7.7-.3zm6.38-4.7l.3.7-.3.7-.7.3-.72-.3-.3-.7.3-.7.7-.3zm22-22.55l.3.72-.3.7-.7.3-.7-.3-.3-.7.3-.7.7-.3zm3.23-7.24l.3.7-.3.72-.7.3-.72-.3-.3-.7.3-.72.7-.3zm1.96-7.68l.3.7-.3.7-.7.3-.7-.3-.3-.7.3-.7.7-.3zm.82-7.9l.3.7-.3.72-.7.3-.72-.3-.3-.7.3-.7.7-.3zm-.1-7.93l.3.7-.3.7-.7.3-.7-.3-.3-.7.3-.7.7-.3zm-.74-7.9l.3.7-.3.7-.7.3-.7-.3-.3-.7.3-.7.7-.3zm-1.13-7.86l.3.7-.3.7-.7.3-.72-.3-.3-.7.3-.7.7-.3zm-1.14-7.87l.3.7-.3.7-.7.3-.7-.3-.3-.7.3-.7.7-.3zm-1.06-7.87l.3.7-.3.72-.7.3-.7-.3-.3-.7.3-.72.7-.3zm-.83-7.9l.3.7-.3.72-.7.3-.7-.3-.3-.7.3-.7.7-.3zm-.13-7.93l.3.7-.3.72-.7.3-.7-.3-.3-.7.3-.72.7-.3zm.8-7.9l.3.72-.3.7-.7.3-.7-.3-.3-.7.3-.7.7-.3zm2.08-7.64l.3.7-.3.7-.7.3-.72-.3-.3-.7.3-.7.7-.3zm3.5-7.13l.28.7-.3.7-.7.3-.7-.3-.3-.7.3-.7.7-.3zm4.8-6.3l.28.7-.3.7-.7.3-.7-.3-.3-.7.3-.7.7-.3zm5.77-5.44l.3.7-.3.7-.7.3-.7-.3-.3-.7.3-.7.7-.3zm6.47-4.6l.28.7-.3.7-.7.3-.7-.3-.3-.7.3-.7.7-.3zm6.9-3.92l.28.72-.3.7-.7.3-.7-.3-.3-.7.3-.7.7-.3zm7.2-3.32l.3.7-.3.72-.7.3-.72-.3-.3-.7.3-.72.7-.3zm7.4-2.9l.28.7-.3.72-.7.3-.7-.3-.3-.7.3-.7.7-.3zm7.52-2.5l.3.7-.3.7-.7.3-.7-.3-.3-.7.3-.7.7-.3zm7.63-2.2l.3.72-.3.7-.7.3-.7-.3-.3-.7.3-.7.7-.3z" fill="#010101"/><path d="M768 640.8l-14.7 15.94-1.48-1.35 12.4-13.47-17.76-4.4.48-1.94zM505.36 882.44l-.92.46-.88-1.8.92-.45z" fill="#010101"/><use xlink:href="#v" transform="matrix(1,0,0,1,685.4644426059923,771.5040249500371) translate(0.005000000000000782 25.78125)"/><path d="M1253.83 585.96l-1.37 2.24-1.46 2.17-1.55 2.1-1.65 2.06-1.75 2-1.86 1.96-2 1.9-2.1 1.9-2.27 1.84-2.43 1.82-2.62 1.8-2.83 1.77-3.07 1.74-3.35 1.73-3.68 1.7-4.05 1.67-4.5 1.64-5 1.6-5.68 1.55-6.46 1.47-7.45 1.37-8.77 1.23-10.6 1.04-13.5.75-20.2.26-17.65-.26.04-2 17.6.26 20.15-.26 13.4-.75 10.53-1.03 8.68-1.22 7.38-1.36 6.38-1.45 5.58-1.5 4.94-1.58 4.42-1.6 3.97-1.65 3.6-1.67 3.27-1.7 3-1.7 2.76-1.72 2.55-1.75 2.37-1.77 2.2-1.8 2.05-1.82 1.92-1.86 1.8-1.9 1.7-1.93 1.6-2 1.5-2.03 1.4-2.1.83-1.34h2.33zm-182.97-99.82l15.42 1.1 88.3 3.96 14.15 1.63 10.5 1.66 8.27 1.65 6.73 1.65 5.62 1.63 4.78 1.6 4.1 1.6 3.6 1.54 3.14 1.52 2.8 1.5 2.5 1.46 2.23 1.46 2.03 1.44 1.84 1.43 1.68 1.4 1.54 1.43 1.4 1.4 1.3 1.43 1.2 1.42 1.12 1.44 1.03 1.45.95 1.46.88 1.5.8 1.5.76 1.56.7 1.58.62 1.64.56 1.68.5 1.75.46 1.82.38 1.9.3 2 .25 2.08.17 2.2.08 2.35-.03 2.5-.12 2.37-.14 1.5h-2l.14-1.64.12-2.3.02-2.4-.06-2.27-.16-2.13-.23-2-.3-1.9-.38-1.82-.42-1.73-.5-1.67-.53-1.6-.6-1.57-.65-1.5-.7-1.48-.78-1.45-.84-1.4-.9-1.4-1-1.4-1.05-1.36-1.14-1.36-1.24-1.35-1.35-1.36-1.47-1.36-1.62-1.35-1.76-1.38-1.96-1.4-2.18-1.4-2.42-1.44-2.72-1.46-3.07-1.48-3.52-1.53-4.03-1.55-4.7-1.58-5.53-1.6-6.66-1.64-8.18-1.65-10.42-1.64-14.03-1.6-88.27-3.96-15.5-1.1-6.97-.8.22-2z" fill="#010101"/><path d="M1082.5 478.75l-16.6 7.76 14.8 10.8-1.18 1.62-17.52-12.8 19.65-9.18zM1116.04 625.02l-.03 2-1.02-.02.04-2z" fill="#010101"/><g><use xlink:href="#w" transform="matrix(1,0,0,1,1251.0384810112032,554.3779444372277) translate(0.005000000000000782 25.78125)"/></g><path d="M1160 504h318v38h-318z" stroke="#000" stroke-opacity="0" stroke-width="2" fill="#fff"/><g><use xlink:href="#x" transform="matrix(1,0,0,1,1160,504) translate(16.69097222222223 30.7578125)"/><use xlink:href="#u" transform="matrix(1,0,0,1,1160,504) translate(117.6349826388889 30.7578125)"/></g><defs><path d="M536 0v-1332H302v-124l432-37V0H536" id="y"/><use transform="matrix(0.013020833333333334,0,0,0.013020833333333334,0,0)" xlink:href="#y" id="a"/><path d="M1136-3C969 47 777 40 736-118h-13C632-30 563 19 406 25 220 32 82-112 82-291c0-108 45-197 132-271 96-82 289-115 509-108v-100c4-131-78-171-198-171-113 0-229 33-347 98v-204c250-100 619-121 772 59 38 46 57 116 57 208v486c-4 109 33 137 122 125zM510-176c93-3 154-48 213-101v-223c-187-10-348 27-357 180-5 80 67 147 144 144" id="z"/><path d="M855-1123c191 0 317 129 317 347V0H876v-703c-1-102-8-140-62-171-63-37-126-14-190 24-44 26-92 80-143 159V0H185v-1098h296v207c86-139 191-232 374-232" id="A"/><path d="M185 0v-1480h925v203H493v413h506v204H493v450h664V0H185" id="B"/><path d="M185 0v-1579h296V0H185" id="C"/><path d="M185 0v-1098h296V0H185zm0-1283v-247h296v247H185" id="D"/><path d="M794 25c-155-3-225-51-313-136v506H185v-1493h296v207c68-137 172-230 359-232 286-3 425 245 425 544 0 317-161 611-471 604zm-61-916c-116 0-192 88-252 169v435c69 75 118 116 230 120 173 6 239-210 239-387 0-180-57-337-217-337" id="E"/><path d="M637-938c-101 0-184 30-184 113 0 105 133 124 222 161 140 58 236 105 279 157 108 132 75 318-54 427C734 61 400 40 156-35v-217c147 61 272 92 376 92 95 0 182-41 182-124 0-119-154-136-250-180-101-46-180-87-229-137-49-49-74-114-74-193 0-95 36-175 111-236 144-118 421-110 660-54v208c-119-41-217-62-295-62" id="F"/><path d="M679 25C304 25 86-196 86-557c0-334 185-566 530-566 141 0 253 45 337 134s126 256 126 499H398c12 144 63 222 160 276 46 26 108 38 185 38 99 0 211-23 336-69v208C938 4 805 25 679 25zM394-657h394c0-101-17-172-50-216-67-91-209-82-274 7-36 49-61 117-70 209" id="G"/><g id="b"><use transform="matrix(0.015190972222222224,0,0,0.015190972222222224,0,0)" xlink:href="#z"/><use transform="matrix(0.015190972222222224,0,0,0.015190972222222224,18.289930555555557,0)" xlink:href="#A"/><use transform="matrix(0.015190972222222224,0,0,0.015190972222222224,38.72178819444444,0)" xlink:href="#B"/><use transform="matrix(0.015190972222222224,0,0,0.015190972222222224,57.40668402777778,0)" xlink:href="#C"/><use transform="matrix(0.015190972222222224,0,0,0.015190972222222224,67.52387152777779,0)" xlink:href="#C"/><use transform="matrix(0.015190972222222224,0,0,0.015190972222222224,77.64105902777779,0)" xlink:href="#D"/><use transform="matrix(0.015190972222222224,0,0,0.015190972222222224,87.75824652777779,0)" xlink:href="#E"/><use transform="matrix(0.015190972222222224,0,0,0.015190972222222224,108.37239583333334,0)" xlink:href="#F"/><use transform="matrix(0.015190972222222224,0,0,0.015190972222222224,125.96354166666669,0)" xlink:href="#G"/></g><path d="M495-374c0 144 39 202 165 202 25 0 56-5 91-14V-6C541 64 312 11 239-128c-25-48-40-116-40-207v-578H76v-185h123v-185l296-34v219h235v185H495v539" id="H"/><path d="M629-1314c-166 0-281 128-191 262 27 40 198 138 277 182 163 90 267 170 310 238 112 176 77 407-71 540C777 68 409 58 102-13v-254c181 73 231 94 411 100 148 5 254-71 254-197 0-41-14-77-34-112-25-43-190-137-271-182-142-78-237-153-287-220-51-67-76-145-76-234 0-247 209-405 490-405 118 0 251 17 399 51v237c-151-57-270-85-359-85" id="I"/><path d="M886-853c-182-67-334 27-405 156V0H185v-1098h296v207c67-135 206-256 405-226v264" id="J"/><path d="M565-1123c157 4 220 50 311 136l31-111h266v838c0 221-23 370-65 447-82 150-271 232-501 232-128 0-266-26-414-78l24-215c122 56 238 84 348 84 213 0 312-76 311-297v-150C818-109 698 2 519 0 221-3 98-240 93-543c-5-308 168-587 472-580zm50 886c129 0 195-80 261-172v-405c-68-75-116-121-224-121-172 0-244 181-244 378 0 171 54 320 207 320" id="K"/><g id="c"><use transform="matrix(0.015190972222222224,0,0,0.015190972222222224,0,0)" xlink:href="#D"/><use transform="matrix(0.015190972222222224,0,0,0.015190972222222224,10.117187500000002,0)" xlink:href="#A"/><use transform="matrix(0.015190972222222224,0,0,0.015190972222222224,30.549045138888893,0)" xlink:href="#D"/><use transform="matrix(0.015190972222222224,0,0,0.015190972222222224,40.66623263888889,0)" xlink:href="#H"/><use transform="matrix(0.015190972222222224,0,0,0.015190972222222224,53.27473958333334,0)" xlink:href="#I"/><use transform="matrix(0.015190972222222224,0,0,0.015190972222222224,71.04817708333334,0)" xlink:href="#H"/><use transform="matrix(0.015190972222222224,0,0,0.015190972222222224,83.65668402777779,0)" xlink:href="#J"/><use transform="matrix(0.015190972222222224,0,0,0.015190972222222224,97.79947916666667,0)" xlink:href="#D"/><use transform="matrix(0.015190972222222224,0,0,0.015190972222222224,107.91666666666667,0)" xlink:href="#A"/><use transform="matrix(0.015190972222222224,0,0,0.015190972222222224,128.34852430555557,0)" xlink:href="#K"/></g><path d="M599-1517c263 0 459 164 459 409 0 76-21 146-50 215-30 71-208 236-326 336-101 85-247 229-274 384h643V0H170v-173c57-134 172-281 348-438 92-82 240-212 284-303 30-61 47-124 47-189 2-166-113-270-280-266-165 4-237 51-362 119v-174c131-62 262-93 392-93" id="L"/><use transform="matrix(0.013020833333333334,0,0,0.013020833333333334,0,0)" xlink:href="#L" id="d"/><path d="M179 0l295-1480h308L641-774l614-706h270L931-800 1419 0h-357L632-728 487 0H179" id="M"/><path d="M464-389c4 239 215 244 420 177 88-29 181-67 276-122l-46 230C952-26 776 25 580 25c-243 0-410-133-410-370 0-284 180-557 367-673 109-68 221-105 341-105 162 0 280 85 281 234 0 80-27 156-81 229-114 153-349 260-614 271zm417-438c-1-55-38-98-99-98-51 0-105 30-164 89S515-690 486-573c133 0 232-28 297-83s98-112 98-171" id="N"/><path d="M139 395L451 0 256-1098h301l132 742 480-742h244L437 395H139" id="O"/><g id="e"><use transform="matrix(0.013020833333333334,0,0,0.013020833333333334,0,0)" xlink:href="#M"/><use transform="matrix(0.013020833333333334,0,0,0.013020833333333334,18.6328125,0)" xlink:href="#N"/><use transform="matrix(0.013020833333333334,0,0,0.013020833333333334,33.828125,0)" xlink:href="#O"/></g><path d="M197 0v-1086h197V0H197zm0-1283v-197h197v197H197" id="P"/><path d="M775-1110c188-4 310 134 310 330V0H888v-716c-1-128-8-167-76-204-78-43-151-17-234 25-57 29-118 94-184 192V0H197v-1086h197v204c83-121 205-225 381-228" id="Q"/><path d="M887-302C887-87 709 25 485 25c-90 0-199-21-328-63v-181c129 64 241 96 336 96 135 0 250-124 169-245-32-48-171-101-244-132-88-38-153-79-194-128-41-48-61-107-61-177 0-195 155-305 376-305 66 0 180 15 266 33v164c-110-33-198-49-263-49-141 0-241 112-157 217 33 42 142 84 207 111 127 54 208 107 243 160s52 110 52 172" id="R"/><path d="M402-336c1 145 47 211 184 213 26 0 58-4 95-13V0C427 83 205-38 205-300v-638H69v-148h136v-197l197-19v216h284v148H402v602" id="S"/><path d="M933 25c-98 0-155-61-176-163C660-52 566 25 416 25 256 25 103-92 103-273c0-107 47-194 138-265 97-75 272-109 487-104v-131c5-142-67-189-197-189-102 0-213 32-334 96v-163c133-54 258-81 375-81 222 0 353 88 353 337v492c1 92 4 123 49 154 26 18 54 18 93 11l14 109c-45 21-94 32-148 32zM472-136c110-4 183-51 256-109v-281c-202-17-420 47-428 221-4 91 83 172 172 169" id="T"/><path d="M333-543c0 224 128 410 340 409 90 0 183-23 278-69v170C714 35 539 61 355-54c-150-94-244-263-244-495 0-330 189-561 544-561 85 0 180 12 284 35v165c-111-33-202-49-272-49-223 0-334 200-334 416" id="U"/><path d="M691-125c135 0 167-19 302-66v156C861 5 748 25 654 25 224 25-11-445 175-839c77-162 195-272 411-272 302 0 432 251 411 599H312c19 178 69 275 184 344 50 30 116 43 195 43zm109-535c4-188-68-303-226-303-173 0-238 125-253 303h479" id="V"/><path d="M111-543v-148h444v148H111" id="W"/><path d="M1147-543c0 335-173 568-518 568-343 0-518-233-518-568s174-567 518-567c343 0 518 232 518 567zm-826 0c0 239 91 420 308 420 218 0 309-181 309-420 0-240-91-419-309-419-217 0-308 179-308 419" id="X"/><path d="M600-1456c-133 0-173 56-168 219v151h271v148H432V0H234v-938H80v-148h154c-1-122-2-267 34-340 51-104 157-178 319-178 67 0 142 11 226 33v156c-89-27-160-41-213-41" id="Y"/><g id="f"><use transform="matrix(0.013020833333333334,0,0,0.013020833333333334,0,0)" xlink:href="#P"/><use transform="matrix(0.013020833333333334,0,0,0.013020833333333334,7.708333333333334,0)" xlink:href="#Q"/><use transform="matrix(0.013020833333333334,0,0,0.013020833333333334,24.2578125,0)" xlink:href="#R"/><use transform="matrix(0.013020833333333334,0,0,0.013020833333333334,37.8515625,0)" xlink:href="#S"/><use transform="matrix(0.013020833333333334,0,0,0.013020833333333334,47.825520833333336,0)" xlink:href="#T"/><use transform="matrix(0.013020833333333334,0,0,0.013020833333333334,62.552083333333336,0)" xlink:href="#Q"/><use transform="matrix(0.013020833333333334,0,0,0.013020833333333334,79.1015625,0)" xlink:href="#U"/><use transform="matrix(0.013020833333333334,0,0,0.013020833333333334,92.76041666666667,0)" xlink:href="#V"/><use transform="matrix(0.013020833333333334,0,0,0.013020833333333334,107.6171875,0)" xlink:href="#W"/><use transform="matrix(0.013020833333333334,0,0,0.013020833333333334,116.2890625,0)" xlink:href="#X"/><use transform="matrix(0.013020833333333334,0,0,0.013020833333333334,132.66927083333334,0)" xlink:href="#Y"/></g><path d="M863-759c18-191-163-226-293-144-48 30-107 87-176 175V0H197v-1086h197v204c73-112 192-229 370-228 102 0 165 36 220 88 29 28 54 75 77 140 72-114 188-228 364-229 77 0 147 24 209 72s93 131 93 249V0h-198v-759c16-190-161-225-293-143-49 31-108 87-175 174V0H863v-759" id="Z"/><path d="M581-1110c158 0 231 53 313 148v-124h198v790c0 230-22 386-58 472-82 193-310 265-590 237-106-11-144-19-243-52l23-171c114 54 227 81 338 81 242 0 327-127 332-353v-171C838-139 713-25 538-25c-149 0-257-54-325-161S111-414 111-550c0-312 157-560 470-560zm-9 913c150-4 238-83 322-179v-451c-74-76-154-135-283-135-202 0-293 180-290 411 3 193 62 359 251 354" id="aa"/><g id="g"><use transform="matrix(0.013020833333333334,0,0,0.013020833333333334,0,0)" xlink:href="#Z"/><use transform="matrix(0.013020833333333334,0,0,0.013020833333333334,24.895833333333336,0)" xlink:href="#V"/><use transform="matrix(0.013020833333333334,0,0,0.013020833333333334,39.75260416666667,0)" xlink:href="#R"/><use transform="matrix(0.013020833333333334,0,0,0.013020833333333334,53.34635416666667,0)" xlink:href="#R"/><use transform="matrix(0.013020833333333334,0,0,0.013020833333333334,66.94010416666667,0)" xlink:href="#T"/><use transform="matrix(0.013020833333333334,0,0,0.013020833333333334,81.66666666666667,0)" xlink:href="#aa"/><use transform="matrix(0.013020833333333334,0,0,0.013020833333333334,98.29427083333334,0)" xlink:href="#V"/></g><path d="M574-1110c159 3 241 51 320 148v-617h198V0H894v-204C823-70 718 23 532 25c-281 3-421-241-421-534 0-314 161-607 463-601zm-1 962c148 0 235-84 321-179v-500c-115-93-139-135-290-135-212 0-283 208-283 433 0 208 59 381 252 381" id="ab"/><g id="h"><use transform="matrix(0.013020833333333334,0,0,0.013020833333333334,0,0)" xlink:href="#R"/><use transform="matrix(0.013020833333333334,0,0,0.013020833333333334,13.59375,0)" xlink:href="#V"/><use transform="matrix(0.013020833333333334,0,0,0.013020833333333334,28.450520833333336,0)" xlink:href="#Q"/><use transform="matrix(0.013020833333333334,0,0,0.013020833333333334,45,0)" xlink:href="#ab"/></g><path d="M197 0v-1579h197V0H197" id="ac"/><path d="M197 0v-1579h197v1020l460-527h212L627-579 1157 0H905L394-557V0H197" id="ad"/><path d="M495 25c-188 4-310-134-310-331v-780h197v716c1 129 8 167 76 205 78 44 151 17 234-25 57-29 118-94 184-192v-704h197V0H876v-204C792-82 673 22 495 25" id="ae"/><path d="M757-1110c282-4 424 242 421 534-2 220-76 421-210 518C854 25 747 41 582 9 523-3 461-46 394-123v518H197v-1481h197v204c72-134 176-226 363-228zm-41 172c-149 0-235 83-322 179v500c113 94 140 136 290 136 212 0 284-210 284-433 0-207-60-382-252-382" id="af"/><g id="i"><use transform="matrix(0.013020833333333334,0,0,0.013020833333333334,0,0)" xlink:href="#ac"/><use transform="matrix(0.013020833333333334,0,0,0.013020833333333334,7.708333333333334,0)" xlink:href="#X"/><use transform="matrix(0.013020833333333334,0,0,0.013020833333333334,24.08854166666667,0)" xlink:href="#X"/><use transform="matrix(0.013020833333333334,0,0,0.013020833333333334,40.46875000000001,0)" xlink:href="#ad"/><use transform="matrix(0.013020833333333334,0,0,0.013020833333333334,56.0546875,0)" xlink:href="#ae"/><use transform="matrix(0.013020833333333334,0,0,0.013020833333333334,72.60416666666667,0)" xlink:href="#af"/></g><g id="j"><use transform="matrix(0.013020833333333334,0,0,0.013020833333333334,0,0)" xlink:href="#D"/><use transform="matrix(0.013020833333333334,0,0,0.013020833333333334,8.671875,0)" xlink:href="#A"/><use transform="matrix(0.013020833333333334,0,0,0.013020833333333334,26.184895833333336,0)" xlink:href="#D"/><use transform="matrix(0.013020833333333334,0,0,0.013020833333333334,34.856770833333336,0)" xlink:href="#H"/><use transform="matrix(0.013020833333333334,0,0,0.013020833333333334,45.6640625,0)" xlink:href="#I"/><use transform="matrix(0.013020833333333334,0,0,0.013020833333333334,60.8984375,0)" xlink:href="#H"/><use transform="matrix(0.013020833333333334,0,0,0.013020833333333334,71.70572916666667,0)" xlink:href="#J"/><use transform="matrix(0.013020833333333334,0,0,0.013020833333333334,83.828125,0)" xlink:href="#D"/><use transform="matrix(0.013020833333333334,0,0,0.013020833333333334,92.5,0)" xlink:href="#A"/><use transform="matrix(0.013020833333333334,0,0,0.013020833333333334,110.01302083333334,0)" xlink:href="#K"/></g><path d="M665-1419c-128 0-154 80-153 231v90h278v185H512V0H216v-913H65v-185h151v-79c-3-293 131-427 405-427 87 0 177 13 270 38v200c-84-35-159-53-226-53" id="ag"/><path d="M490 25c-191 0-317-129-317-347v-776h296v703c1 102 7 140 61 171 63 37 127 14 191-24 44-26 92-80 143-159v-691h296V0H864v-207C779-69 673 25 490 25" id="ah"/><path d="M1202-1088c4 338-245 510-587 508H487V0H185v-1480h516c263 0 368 35 455 178 34 55 46 128 46 214zm-314 32c0-161-94-225-281-221H487v494h60c204 8 341-101 341-273" id="ai"/><path d="M1594-740c0 477-269 777-750 777S93-263 93-740s271-777 751-777c479 0 750 301 750 777zM844-167c143 0 247-60 318-175 138-223 138-576 0-798-72-115-176-174-318-174-143 0-247 59-319 174-138 222-139 575-1 798 71 115 177 175 320 175" id="aj"/><path d="M105 0v-296h296V0H105zm0-802v-296h296v296H105" id="ak"/><g id="k"><use transform="matrix(0.013020833333333334,0,0,0.013020833333333334,0,0)" xlink:href="#ag"/><use transform="matrix(0.013020833333333334,0,0,0.013020833333333334,11.0546875,0)" xlink:href="#ah"/><use transform="matrix(0.013020833333333334,0,0,0.013020833333333334,28.567708333333336,0)" xlink:href="#C"/><use transform="matrix(0.013020833333333334,0,0,0.013020833333333334,37.239583333333336,0)" xlink:href="#C"/><use transform="matrix(0.013020833333333334,0,0,0.013020833333333334,45.911458333333336,0)" xlink:href="#ai"/><use transform="matrix(0.013020833333333334,0,0,0.013020833333333334,62.265625,0)" xlink:href="#J"/><use transform="matrix(0.013020833333333334,0,0,0.013020833333333334,74.38802083333333,0)" xlink:href="#D"/><use transform="matrix(0.013020833333333334,0,0,0.013020833333333334,83.05989583333333,0)" xlink:href="#A"/><use transform="matrix(0.013020833333333334,0,0,0.013020833333333334,100.57291666666666,0)" xlink:href="#H"/><use transform="matrix(0.013020833333333334,0,0,0.013020833333333334,111.38020833333334,0)" xlink:href="#aj"/><use transform="matrix(0.013020833333333334,0,0,0.013020833333333334,133.33333333333331,0)" xlink:href="#A"/><use transform="matrix(0.013020833333333334,0,0,0.013020833333333334,150.84635416666666,0)" xlink:href="#ak"/></g><path d="M185 0v-1480h408L949-439l367-1041h358V0h-284v-1117L1029-99H781L427-1132V0H185" id="al"/><path d="M1221-549c0 354-203 574-568 574C289 25 86-195 86-549s203-574 567-574c365 0 568 220 568 574zm-820 0c0 196 68 389 252 389 185 0 253-193 253-389s-68-389-253-389c-183 0-252 194-252 389" id="am"/><path d="M855-1123c191 0 317 129 317 347V0H876v-703c-1-102-8-140-62-171-63-37-126-14-190 24-44 26-92 80-143 159V0H185v-1579h296v688c86-139 191-232 374-232" id="an"/><g id="l"><use transform="matrix(0.01953125,0,0,0.01953125,0,0)" xlink:href="#al"/><use transform="matrix(0.01953125,0,0,0.01953125,36.30859375,0)" xlink:href="#am"/><use transform="matrix(0.01953125,0,0,0.01953125,61.85546875,0)" xlink:href="#J"/><use transform="matrix(0.01953125,0,0,0.01953125,80.0390625,0)" xlink:href="#E"/><use transform="matrix(0.01953125,0,0,0.01953125,106.54296875,0)" xlink:href="#an"/></g><path d="M795 25c-153-3-233-51-314-136L426 0H185v-1579h296v688c68-137 172-230 359-232 286-3 425 245 425 544 0 317-161 610-470 604zm-62-916c-116 0-192 88-252 169v435c69 75 118 116 230 120 173 6 239-210 239-387 0-180-57-337-217-337" id="ao"/><path d="M43 234c123 0 158-66 158-234v-1098h296V-20c0 220-48 322-183 392-136 70-321 63-493 1V175c86 39 160 59 222 59zm158-1517v-247h296v247H201" id="ap"/><path d="M400-552c0 215 105 381 321 381 89 0 180-19 274-58v205C709 58 382 46 228-142 136-255 86-389 86-550c1-349 221-573 591-573 89 0 192 14 309 43v214c-121-39-218-59-290-59-201 0-296 189-296 373" id="aq"/><g id="m"><use transform="matrix(0.01953125,0,0,0.01953125,0,0)" xlink:href="#aj"/><use transform="matrix(0.01953125,0,0,0.01953125,32.9296875,0)" xlink:href="#ao"/><use transform="matrix(0.01953125,0,0,0.01953125,59.43359375,0)" xlink:href="#ap"/><use transform="matrix(0.01953125,0,0,0.01953125,72.75390625,0)" xlink:href="#G"/><use transform="matrix(0.01953125,0,0,0.01953125,96.19140625,0)" xlink:href="#aq"/><use transform="matrix(0.01953125,0,0,0.01953125,117.48046875,0)" xlink:href="#H"/></g><path d="M225 0v-197h197V0H225zm0-888v-198h197v198H225" id="ar"/><g id="n"><use transform="matrix(0.013020833333333334,0,0,0.013020833333333334,0,0)" xlink:href="#ag"/><use transform="matrix(0.013020833333333334,0,0,0.013020833333333334,11.0546875,0)" xlink:href="#ah"/><use transform="matrix(0.013020833333333334,0,0,0.013020833333333334,28.567708333333336,0)" xlink:href="#C"/><use transform="matrix(0.013020833333333334,0,0,0.013020833333333334,37.239583333333336,0)" xlink:href="#C"/><use transform="matrix(0.013020833333333334,0,0,0.013020833333333334,45.911458333333336,0)" xlink:href="#ai"/><use transform="matrix(0.013020833333333334,0,0,0.013020833333333334,62.265625,0)" xlink:href="#J"/><use transform="matrix(0.013020833333333334,0,0,0.013020833333333334,74.38802083333333,0)" xlink:href="#D"/><use transform="matrix(0.013020833333333334,0,0,0.013020833333333334,83.05989583333333,0)" xlink:href="#A"/><use transform="matrix(0.013020833333333334,0,0,0.013020833333333334,100.57291666666666,0)" xlink:href="#H"/><use transform="matrix(0.013020833333333334,0,0,0.013020833333333334,111.38020833333334,0)" xlink:href="#aj"/><use transform="matrix(0.013020833333333334,0,0,0.013020833333333334,133.33333333333331,0)" xlink:href="#A"/><use transform="matrix(0.013020833333333334,0,0,0.013020833333333334,150.84635416666666,0)" xlink:href="#ar"/></g><path d="M185 0v-1480h503c223 0 326 36 406 160s61 268-28 382c-52 68-144 123-277 165 186 45 295 104 371 235 63 110 59 253-8 358C1069-49 966 1 734 0H185zm363-864c170 6 283-90 283-239 0-80-32-125-94-153-34-16-161-23-256-21v413h67zm334 461c0-160-170-270-347-263h-54v456c236 1 401 6 401-193" id="as"/><path d="M563-1123c156 3 224 51 313 136v-592h297V0H876v-207C808-69 705 23 517 25 231 28 93-220 93-519c0-318 161-610 470-604zm61 916c116 0 194-89 252-169v-435c-68-75-117-117-229-120-174-5-239 206-239 387-1 177 56 337 216 337" id="at"/><g id="o"><use transform="matrix(0.01953125,0,0,0.01953125,0,0)" xlink:href="#as"/><use transform="matrix(0.01953125,0,0,0.01953125,25.1953125,0)" xlink:href="#am"/><use transform="matrix(0.01953125,0,0,0.01953125,50.7421875,0)" xlink:href="#J"/><use transform="matrix(0.01953125,0,0,0.01953125,68.92578125,0)" xlink:href="#at"/><use transform="matrix(0.01953125,0,0,0.01953125,95.4296875,0)" xlink:href="#G"/><use transform="matrix(0.01953125,0,0,0.01953125,118.8671875,0)" xlink:href="#J"/><use transform="matrix(0.01953125,0,0,0.01953125,137.05078125,0)" xlink:href="#G"/><use transform="matrix(0.01953125,0,0,0.01953125,160.48828125,0)" xlink:href="#at"/><use transform="matrix(0.01953125,0,0,0.01953125,186.9921875,0)" xlink:href="#al"/><use transform="matrix(0.01953125,0,0,0.01953125,223.30078125,0)" xlink:href="#am"/><use transform="matrix(0.01953125,0,0,0.01953125,248.84765625,0)" xlink:href="#J"/><use transform="matrix(0.01953125,0,0,0.01953125,267.03125,0)" xlink:href="#E"/><use transform="matrix(0.01953125,0,0,0.01953125,293.53515625,0)" xlink:href="#an"/></g><path d="M854-127c198-4 304-51 449-129v180C1160 0 1032 37 825 37c-249 0-431-74-547-221S104-516 104-739c0-227 60-413 180-559s304-219 552-219c132 0 287 22 465 65v197c-237-76-262-105-469-105-177 0-306 60-386 180S327-912 327-737c0 347 184 617 527 610" id="au"/><path d="M707-938c-160 0-242 101-313 222V0H197v-1086h197v204c70-138 200-250 403-223v184c-33-11-63-17-90-17" id="av"/><g id="p"><use transform="matrix(0.013020833333333334,0,0,0.013020833333333334,0,0)" xlink:href="#ab"/><use transform="matrix(0.013020833333333334,0,0,0.013020833333333334,16.783854166666668,0)" xlink:href="#V"/><use transform="matrix(0.013020833333333334,0,0,0.013020833333333334,31.640625,0)" xlink:href="#Y"/><use transform="matrix(0.013020833333333334,0,0,0.013020833333333334,41.4453125,0)" xlink:href="#T"/><use transform="matrix(0.013020833333333334,0,0,0.013020833333333334,56.171875,0)" xlink:href="#ae"/><use transform="matrix(0.013020833333333334,0,0,0.013020833333333334,72.72135416666667,0)" xlink:href="#ac"/><use transform="matrix(0.013020833333333334,0,0,0.013020833333333334,80.4296875,0)" xlink:href="#S"/><use transform="matrix(0.013020833333333334,0,0,0.013020833333333334,90.40364583333333,0)" xlink:href="#au"/><use transform="matrix(0.013020833333333334,0,0,0.013020833333333334,108.85416666666664,0)" xlink:href="#X"/><use transform="matrix(0.013020833333333334,0,0,0.013020833333333334,125.234375,0)" xlink:href="#ac"/><use transform="matrix(0.013020833333333334,0,0,0.013020833333333334,132.94270833333334,0)" xlink:href="#X"/><use transform="matrix(0.013020833333333334,0,0,0.013020833333333334,149.32291666666669,0)" xlink:href="#av"/></g><g id="q"><use transform="matrix(0.01953125,0,0,0.01953125,0,0)" xlink:href="#B"/><use transform="matrix(0.01953125,0,0,0.01953125,24.0234375,0)" xlink:href="#C"/><use transform="matrix(0.01953125,0,0,0.01953125,37.03125,0)" xlink:href="#C"/><use transform="matrix(0.01953125,0,0,0.01953125,50.0390625,0)" xlink:href="#D"/><use transform="matrix(0.01953125,0,0,0.01953125,63.046875,0)" xlink:href="#E"/><use transform="matrix(0.01953125,0,0,0.01953125,89.55078125,0)" xlink:href="#F"/><use transform="matrix(0.01953125,0,0,0.01953125,112.16796875,0)" xlink:href="#G"/><use transform="matrix(0.01953125,0,0,0.01953125,135.60546875,0)" xlink:href="#al"/><use transform="matrix(0.01953125,0,0,0.01953125,171.9140625,0)" xlink:href="#am"/><use transform="matrix(0.01953125,0,0,0.01953125,197.4609375,0)" xlink:href="#J"/><use transform="matrix(0.01953125,0,0,0.01953125,215.64453125,0)" xlink:href="#E"/><use transform="matrix(0.01953125,0,0,0.01953125,242.1484375,0)" xlink:href="#an"/></g><g id="r"><use transform="matrix(0.01953125,0,0,0.01953125,0,0)" xlink:href="#z"/><use transform="matrix(0.01953125,0,0,0.01953125,23.515625,0)" xlink:href="#A"/><use transform="matrix(0.01953125,0,0,0.01953125,49.78515625,0)" xlink:href="#B"/><use transform="matrix(0.01953125,0,0,0.01953125,73.80859375,0)" xlink:href="#C"/><use transform="matrix(0.01953125,0,0,0.01953125,86.81640625,0)" xlink:href="#C"/><use transform="matrix(0.01953125,0,0,0.01953125,99.82421875,0)" xlink:href="#D"/><use transform="matrix(0.01953125,0,0,0.01953125,112.83203125,0)" xlink:href="#E"/><use transform="matrix(0.01953125,0,0,0.01953125,139.3359375,0)" xlink:href="#F"/><use transform="matrix(0.01953125,0,0,0.01953125,161.953125,0)" xlink:href="#G"/><path d="M-2 2.93h189.4v1.95H-2z"/></g><path d="M228-1458c140-47 191-59 337-59 157 0 270 34 346 94 109 86 146 262 79 401-52 108-143 174-277 220 172 41 263 89 322 220 77 172 32 353-83 482C807 63 488 63 208-11v-184c141 56 251 84 332 84 179 0 320-120 320-296 0-85-34-156-92-220-65-71-238-99-423-92v-133c170 4 332-21 393-88 55-60 86-125 86-202 0-150-108-227-272-227-97 0-205 28-324 83v-172" id="aw"/><use transform="matrix(0.013020833333333334,0,0,0.013020833333333334,0,0)" xlink:href="#aw" id="s"/><g id="t"><use transform="matrix(0.015190972222222224,0,0,0.015190972222222224,0,0)" xlink:href="#F"/><use transform="matrix(0.015190972222222224,0,0,0.015190972222222224,17.591145833333336,0)" xlink:href="#G"/><use transform="matrix(0.015190972222222224,0,0,0.015190972222222224,35.8203125,0)" xlink:href="#C"/><use transform="matrix(0.015190972222222224,0,0,0.015190972222222224,45.9375,0)" xlink:href="#ag"/></g><g id="u"><use transform="matrix(0.015190972222222224,0,0,0.015190972222222224,0,0)" xlink:href="#ag"/><use transform="matrix(0.015190972222222224,0,0,0.015190972222222224,12.897135416666668,0)" xlink:href="#ah"/><use transform="matrix(0.015190972222222224,0,0,0.015190972222222224,33.32899305555556,0)" xlink:href="#C"/><use transform="matrix(0.015190972222222224,0,0,0.015190972222222224,43.44618055555556,0)" xlink:href="#C"/><use transform="matrix(0.015190972222222224,0,0,0.015190972222222224,53.56336805555556,0)" xlink:href="#ai"/><use transform="matrix(0.015190972222222224,0,0,0.015190972222222224,72.64322916666667,0)" xlink:href="#J"/><use transform="matrix(0.015190972222222224,0,0,0.015190972222222224,86.78602430555556,0)" xlink:href="#D"/><use transform="matrix(0.015190972222222224,0,0,0.015190972222222224,96.90321180555556,0)" xlink:href="#A"/><use transform="matrix(0.015190972222222224,0,0,0.015190972222222224,117.33506944444444,0)" xlink:href="#H"/><use transform="matrix(0.015190972222222224,0,0,0.015190972222222224,129.94357638888889,0)" xlink:href="#aj"/><use transform="matrix(0.015190972222222224,0,0,0.015190972222222224,155.55555555555554,0)" xlink:href="#A"/><use transform="matrix(0.015190972222222224,0,0,0.015190972222222224,175.98741319444443,0)" xlink:href="#ak"/></g><path d="M771 0v-419H105v-149l666-912h185v900h198v161H956V0H771zM298-580h486v-658" id="ax"/><use transform="matrix(0.013020833333333334,0,0,0.013020833333333334,0,0)" xlink:href="#ax" id="v"/><path d="M529-111c202 0 313-137 313-322 0-101-39-180-112-243-86-74-277-106-456-84v-720h749v172H447v390c208 0 359 49 459 142 184 170 193 497 14 678C789 35 497 67 249 6v-176c98 39 191 59 280 59" id="ay"/><use transform="matrix(0.013020833333333334,0,0,0.013020833333333334,0,0)" xlink:href="#ay" id="w"/><g id="x"><use transform="matrix(0.015190972222222224,0,0,0.015190972222222224,0,0)" xlink:href="#F"/><use transform="matrix(0.015190972222222224,0,0,0.015190972222222224,17.591145833333336,0)" xlink:href="#ah"/><use transform="matrix(0.015190972222222224,0,0,0.015190972222222224,38.02300347222223,0)" xlink:href="#E"/><use transform="matrix(0.015190972222222224,0,0,0.015190972222222224,58.637152777777786,0)" xlink:href="#G"/><use transform="matrix(0.015190972222222224,0,0,0.015190972222222224,76.86631944444446,0)" xlink:href="#J"/></g></defs></g></svg>