<svg xmlns="http://www.w3.org/2000/svg" xmlns:xlink="http://www.w3.org/1999/xlink" xmlns:lucid="lucid" width="1785" height="973.46"><g transform="translate(-31 -43)" lucid:page-tab-id="BRrqyQEZdmQ9E"><path d="M815 193h224v49H815z" stroke="#000" stroke-width="2" fill="#fff"/><use xlink:href="#a" transform="matrix(1,0,0,1,815,193) translate(11.150390625 40.5625)"/><path d="M836.08 249.07l-459.7 159.6" stroke="#000" stroke-width="2" fill="none"/><path d="M850.5 244.06l-11.96 9.06-3.04-8.76z" stroke="#000" stroke-width="2" fill="#fff"/><path d="M376.53 409h-4.13l3.7-1.28z"/><path d="M228 819h147v49H228z" stroke="#000" stroke-width="2" fill="#fff"/><use xlink:href="#b" transform="matrix(1,0,0,1,228,819) translate(12.044921875 40.5625)"/><path d="M377 945h173v49H377z" stroke="#000" stroke-width="2" fill="#fff"/><use xlink:href="#c" transform="matrix(1,0,0,1,377,945) translate(11.490234375 40.5625)"/><path d="M301.77 478.5L300.64 691" stroke="#000" stroke-width="2" fill="none"/><path d="M301.85 463.24l4.56 14.3-9.26-.06z" stroke="#000" stroke-width="2" fill="#fff"/><path d="M301.64 690.98V692h-2v-1.03z"/><path d="M263.43 882.2l-60.13 61.1" stroke="#000" stroke-width="2" fill="none"/><path d="M274.13 871.3l-6.7 13.43-6.6-6.5z" stroke="#000" stroke-width="2" fill="#fff"/><path d="M204.03 943.97l-.03.03h-2.8l1.4-1.43z"/><path d="M300.85 761.5l.44 55.5" stroke="#000" stroke-width="2" fill="none"/><path d="M300.73 746.24l4.75 14.22-9.27.08z" stroke="#000" stroke-width="2" fill="#fff"/><path d="M302.3 818h-2v-1.02h2z"/><path d="M348.9 880.36l81.02 63.03" stroke="#000" stroke-width="2" fill="none"/><path d="M336.84 871l14.1 5.1-5.68 7.3z" stroke="#000" stroke-width="2" fill="#fff"/><path d="M432.34 944h-2.93l1.12-1.42z"/><path d="M848 63h156v49H848z" stroke="#000" stroke-width="2" fill="#fff"/><use xlink:href="#d" transform="matrix(1,0,0,1,848,63) translate(11.369140625 40.5625)"/><path d="M926.34 131.5l.46 59.5" stroke="#000" stroke-width="2" fill="none"/><path d="M926.22 116.24l4.75 14.23-9.27.07z" stroke="#000" stroke-width="2" fill="#fff"/><path d="M927.8 192h-2v-1.02h2z"/><path d="M1122 410h413v49h-413z" stroke="#000" stroke-width="2" fill="#fff"/><use xlink:href="#e" transform="matrix(1,0,0,1,1122,410) translate(26.8125 40.5625)"/><path d="M990.46 251.8l289.98 156.72" stroke="#000" stroke-width="2" fill="none"/><path d="M977.03 244.54l14.75 2.7-4.4 8.16z" stroke="#000" stroke-width="2" fill="#fff"/><path d="M1283.42 409h-3.27l.74-1.37z"/><path d="M1122 565.5h236v49h-236z" stroke="#000" stroke-width="2" fill="#fff"/><use xlink:href="#f" transform="matrix(1,0,0,1,1122,565.5) translate(11.96484375 40.5625)"/><path d="M1304.84 476.08L1255 563.63" stroke="#000" stroke-width="2" fill="none"/><path d="M1312.4 462.8l-3.04 14.7-8.06-4.58z" stroke="#000" stroke-width="2" fill="#fff"/><path d="M1255.9 564.1l-.24.4h-2.3l.8-1.4z"/><path d="M1240 634v183" stroke="#000" stroke-width="2" fill="none"/><path d="M1240 618.74l4.64 14.26h-9.28z" stroke="#000" stroke-width="2" fill="#fff"/><path d="M1241 818h-2v-1.03h2z"/><path d="M61 819h136v49H61z" stroke="#000" stroke-width="2" fill="#fff"/><use xlink:href="#g" transform="matrix(1,0,0,1,61,819) translate(11.671875 40.5625)"/><path d="M250.88 753.95L164.5 817.4" stroke="#000" stroke-width="2" fill="none"/><path d="M263.18 744.92l-8.75 12.18-5.5-7.47z" stroke="#000" stroke-width="2" fill="#fff"/><path d="M164.98 818h-2.96l1.92-1.4z"/><path d="M437 819h113v49H437z" stroke="#000" stroke-width="2" fill="#fff"/><use xlink:href="#h" transform="matrix(1,0,0,1,437,819) translate(11.060546875 40.5625)"/><path d="M355.05 753.1l98.55 64.35" stroke="#000" stroke-width="2" fill="none"/><path d="M342.27 744.77l14.48 3.92-5.07 7.75z" stroke="#000" stroke-width="2" fill="#fff"/><path d="M456.27 818h-3.05l.9-1.4z"/><path d="M392.07 466.13l340.38 119.54" stroke="#000" stroke-width="2" fill="none"/><path d="M377.66 461.07l15 .36-3.07 8.74z" stroke="#000" stroke-width="2" fill="#fff"/><path d="M736.4 586h-4.1l.45-1.28z"/><path d="M1670 410h126v49h-126z" stroke="#000" stroke-width="2" fill="#fff"/><use xlink:href="#i" transform="matrix(1,0,0,1,1670,410) translate(25.451171875 40.5625)"/><path d="M1039.58 247.8L1668.03 417" stroke="#000" stroke-width="2" fill="none"/><path d="M1024.84 243.84l14.98-.77-2.4 8.96z" stroke="#000" stroke-width="2" fill="#fff"/><path d="M1669 416.23v2.07l-1.25-.33.52-1.93z"/><path d="M607 693h398v49H607z" stroke="#000" stroke-width="2" fill="#fff"/><use xlink:href="#j" transform="matrix(1,0,0,1,607,693) translate(11.5 40.5625)"/><path d="M363.55 469.06L759.7 691.5" stroke="#000" stroke-width="2" fill="none"/><path d="M350.24 461.58l14.7 2.95-4.54 8.08z" stroke="#000" stroke-width="2" fill="#fff"/><path d="M762.63 692h-3.22l.78-1.37z"/><path d="M618 819h377v49H618z" stroke="#000" stroke-width="2" fill="#fff"/><use xlink:href="#k" transform="matrix(1,0,0,1,618,819) translate(19.22265625 40.5625)"/><path d="M806.17 761.5l.22 55.5" stroke="#000" stroke-width="2" fill="none"/><path d="M806.1 746.24l4.7 14.24-9.26.04z" stroke="#000" stroke-width="2" fill="#fff"/><path d="M807.4 818h-2v-1.02h2z"/><path d="M689 504h236v49H689z" stroke="#000" stroke-width="2" fill="#fff"/><use xlink:href="#l" transform="matrix(1,0,0,1,689,504) translate(11.5546875 40.5625)"/><path d="M457.18 463.4l229.84 42.77" stroke="#000" stroke-width="2" fill="none"/><path d="M442.18 460.6l14.87-1.95-1.7 9.1z" stroke="#000" stroke-width="2" fill="#fff"/><path d="M688 505.33v2.04l-1.2-.23.37-1.96z"/><path d="M104 693h393v49H104z" stroke="#000" stroke-width="2" fill="#fff"/><use xlink:href="#m" transform="matrix(1,0,0,1,104,693) translate(11.529296875 40.5625)"/><path d="M716 587h180v49H716z" stroke="#000" stroke-width="2" fill="#fff"/><use xlink:href="#n" transform="matrix(1,0,0,1,716,587) translate(11.19140625 40.5625)"/><path d="M51 410h502v49H51z" stroke="#000" stroke-width="2" fill="#fff"/><use xlink:href="#o" transform="matrix(1,0,0,1,51,410) translate(11.205078125 40.5625)"/><path d="M1457 565.5h116.33v49H1457z" stroke="#000" stroke-width="2" fill="#fff"/><use xlink:href="#p" transform="matrix(1,0,0,1,1457,565.5) translate(27.25 40.5625)"/><path d="M1373.33 471.84l110.46 92.02" stroke="#000" stroke-width="2" fill="none"/><path d="M1361.6 462.07l13.93 5.57-5.94 7.12z" stroke="#000" stroke-width="2" fill="#fff"/><path d="M1486.12 564.5h-2.9l1.2-1.42z"/><path d="M1229 929h441v49h-441z" stroke="#000" stroke-width="2" fill="#fff"/><use xlink:href="#q" transform="matrix(1,0,0,1,1229,929) translate(12.94140625 40.5625)"/><path d="M1263.94 631.53l170.36 295.6" stroke="#000" stroke-width="2" fill="none"/><path d="M1256.3 618.3l11.15 10.05-8.03 4.63z" stroke="#000" stroke-width="2" fill="#fff"/><path d="M1435.96 928h-2.3l-.24-.4 1.74-1z"/><path d="M1035 819h410v49h-410z" stroke="#000" stroke-width="2" fill="#fff"/><use xlink:href="#r" transform="matrix(1,0,0,1,1035,819) translate(19.853515625 40.5625)"/><path d="M61 945h233v49H61z" stroke="#000" stroke-width="2" fill="#fff"/><use xlink:href="#s" transform="matrix(1,0,0,1,61,945) translate(10.962890625 40.5625)"/><path d="M1355 660h314.63v49H1355z" stroke="#000" stroke-width="2" fill="#fff"/><use xlink:href="#t" transform="matrix(1,0,0,1,1355,660) translate(24.7265625 40.5625)"/><path d="M1512.84 634l.23 24" stroke="#000" stroke-width="2" fill="none"/><path d="M1512.7 618.74l4.77 14.22-9.27.1z" stroke="#000" stroke-width="2" fill="#fff"/><path d="M1514.08 659h-2v-1.02l2-.02z"/><defs><path d="M549-562c2 237 141 377 376 377 117 0 282-34 497-103l-45 226C1162 4 968 37 796 37c-359 0-587-200-587-555 0-377 226-703 473-862 254-163 611-167 954-81l-46 240c-274-103-506-144-727 2-160 106-316 399-314 657" id="u"/><path d="M888-1123c244 0 419 138 419 367 0 279-181 567-363 680C839-11 720 25 583 25c-235 0-414-141-413-367 1-280 181-568 366-680 107-65 223-101 352-101zM530-660c-65 165-100 493 116 493 167 0 245-132 301-273 65-167 102-491-120-491-160 0-242 133-297 271" id="v"/><path d="M179 0l314-1579h296L475 0H179" id="w"/><path d="M464-389c4 239 215 244 420 177 88-29 181-67 276-122l-46 230C952-26 776 25 580 25c-243 0-410-133-410-370 0-284 180-557 367-673 109-68 221-105 341-105 162 0 280 85 281 234 0 80-27 156-81 229-114 153-349 260-614 271zm417-438c-1-55-38-98-99-98-51 0-105 30-164 89S515-690 486-573c133 0 232-28 297-83s98-112 98-171" id="x"/><path d="M485-396c0 171 128 234 290 192 96-25 183-52 265-102L994-72C840-7 694 25 557 25c-221 0-391-143-387-369 6-292 178-550 377-670 202-122 381-140 621-59l-41 209c-181-85-288-109-437-6-109 76-205 293-205 474" id="y"/><path d="M556-280c-2 117 135 117 225 76L742-10C674 9 608 19 543 19c-182 0-293-83-293-227 0-35 6-85 19-150l110-555H231l37-185h148l37-185 304-40-45 225h228l-37 185H675L569-377c-9 41-13 74-13 97" id="z"/><path d="M179 0l218-1098h297L475 0H179zm255-1283l52-259h296l-52 259H434" id="A"/><path d="M1140-1123c119 0 194 86 194 219 0 40-5 84-14 131L1166 0H870l149-753c11-41 6-98-37-98-47 0-114 55-202 164S614-470 548-364L475 0H179l218-1098h296l-90 456c79-147 164-264 257-351s186-130 280-130" id="B"/><g id="a"><use transform="matrix(0.01953125,0,0,0.01953125,0,0)" xlink:href="#u"/><use transform="matrix(0.01953125,0,0,0.01953125,28.45703125,0)" xlink:href="#v"/><use transform="matrix(0.01953125,0,0,0.01953125,53.02734375,0)" xlink:href="#w"/><use transform="matrix(0.01953125,0,0,0.01953125,65.68359375,0)" xlink:href="#w"/><use transform="matrix(0.01953125,0,0,0.01953125,78.33984375,0)" xlink:href="#x"/><use transform="matrix(0.01953125,0,0,0.01953125,101.1328125,0)" xlink:href="#y"/><use transform="matrix(0.01953125,0,0,0.01953125,122.0703125,0)" xlink:href="#z"/><use transform="matrix(0.01953125,0,0,0.01953125,138.45703125,0)" xlink:href="#A"/><use transform="matrix(0.01953125,0,0,0.01953125,151.11328125,0)" xlink:href="#v"/><use transform="matrix(0.01953125,0,0,0.01953125,175.68359375,0)" xlink:href="#B"/></g><path d="M1091-403c0 299-252 440-575 440-119 0-257-17-414-50v-254c159 67 296 100 409 100 143 0 255-65 256-197 0-48-16-88-43-122-37-47-181-127-262-172-133-74-226-146-281-214s-82-149-82-240c-1-257 219-405 490-405 118 0 251 17 399 51v237c-151-57-271-85-359-85-120 0-223 56-225 165 0 41 16 75 43 107 40 46 188 128 268 172 143 80 241 154 295 221s81 149 81 246" id="C"/><path d="M751-6c-71 21-126 31-167 31-257 0-385-120-385-360v-578H76v-185h123v-185l296-34v219h235v185H495v539c-6 174 105 232 256 188V-6" id="D"/><path d="M185 0v-1098h296v207c87-169 213-252 405-226v264c-180-61-307 4-405 156V0H185" id="E"/><path d="M185 0v-1098h296V0H185zm0-1283v-247h296v247H185" id="F"/><path d="M855-1123c200 0 317 142 317 347V0H876v-703c0-125-41-187-124-187-94 0-184 66-271 199V0H185v-1098h296v207c97-155 221-232 374-232" id="G"/><path d="M93-543c0-321 170-580 472-580 112 0 216 45 311 136l31-111h266v838c-6 303-4 420-149 551-189 171-549 157-831 50l24-215c122 56 238 84 349 84 217-2 308-82 310-297v-150C804-79 685 0 519 0 237-2 93-241 93-543zm559-392c-172 0-244 181-244 376 0 215 69 322 207 322 95 0 182-57 261-172v-405c-71-81-146-121-224-121" id="H"/><g id="b"><use transform="matrix(0.01953125,0,0,0.01953125,0,0)" xlink:href="#C"/><use transform="matrix(0.01953125,0,0,0.01953125,22.8515625,0)" xlink:href="#D"/><use transform="matrix(0.01953125,0,0,0.01953125,39.0625,0)" xlink:href="#E"/><use transform="matrix(0.01953125,0,0,0.01953125,57.24609375,0)" xlink:href="#F"/><use transform="matrix(0.01953125,0,0,0.01953125,70.25390625,0)" xlink:href="#G"/><use transform="matrix(0.01953125,0,0,0.01953125,96.5234375,0)" xlink:href="#H"/></g><path d="M189 395L438 0 31-1098h318l272 734 323-734h225L491 395H189" id="I"/><path d="M839-1123c165 0 280 88 302 232 103-155 227-232 372-232 201 0 301 111 301 332V0h-284v-694c0-130-43-195-130-195-89 0-175 64-259 192V0H857v-694c0-131-44-196-131-196s-173 64-257 193V0H185v-1098h284v207c87-155 210-232 370-232" id="J"/><path d="M1265-579c0 331-162 602-470 604-123 0-227-45-314-136L426 0H185v-1579h296v688c76-155 196-232 359-232 286 0 425 237 425 544zM481-287c118 139 303 175 404 15 43-70 65-165 65-282 0-225-72-337-217-337-87 0-171 56-252 169v435" id="K"/><path d="M1221-551c0 356-220 576-575 576C305 25 86-206 86-549c0-348 220-574 567-574s568 225 568 572zm-820 2c0 203 71 389 250 389 170 0 255-130 255-391 0-205-72-387-253-387S401-755 401-549" id="L"/><path d="M185 0v-1579h296V0H185" id="M"/><g id="c"><use transform="matrix(0.01953125,0,0,0.01953125,0,0)" xlink:href="#C"/><use transform="matrix(0.01953125,0,0,0.01953125,22.8515625,0)" xlink:href="#I"/><use transform="matrix(0.01953125,0,0,0.01953125,46.171875,0)" xlink:href="#J"/><use transform="matrix(0.01953125,0,0,0.01953125,84.9609375,0)" xlink:href="#K"/><use transform="matrix(0.01953125,0,0,0.01953125,111.46484375,0)" xlink:href="#L"/><use transform="matrix(0.01953125,0,0,0.01953125,137.01171875,0)" xlink:href="#M"/></g><path d="M1175-1518c363 0 590 214 588 562-3 373-220 690-466 850C1154-13 986 37 791 37c-355 0-585-216-582-562 3-372 223-694 469-852 143-92 308-141 497-141zM544-549c0 233 114 383 316 383 97 0 187-34 274-95 158-112 300-405 300-671 0-232-111-382-320-382-93 0-183 34-272 97-160 112-298 403-298 668" id="N"/><path d="M952-86C794 15 655 53 469 0H173l314-1579h296L597-642c71-136 155-250 253-342s193-139 283-139c137 0 232 143 232 271 0 287-229 649-413 766zm111-696c-1-41-16-82-60-82-52 0-127 56-223 170S606-475 545-379l-37 182c110 57 224 48 319-41 58-54 114-138 163-256s73-214 73-288" id="O"/><path d="M-217 379l40-200c148 57 278 94 377-9 40-41 65-106 82-191l214-1077h296L605-157c-52 268-137 411-323 515-98 55-218 73-351 56-28-4-77-16-148-35zm750-1662l52-259h296l-52 259H533" id="P"/><g id="d"><use transform="matrix(0.01953125,0,0,0.01953125,0,0)" xlink:href="#N"/><use transform="matrix(0.01953125,0,0,0.01953125,32.7734375,0)" xlink:href="#O"/><use transform="matrix(0.01953125,0,0,0.01953125,58.5546875,0)" xlink:href="#P"/><use transform="matrix(0.01953125,0,0,0.01953125,73.14453125,0)" xlink:href="#x"/><use transform="matrix(0.01953125,0,0,0.01953125,95.9375,0)" xlink:href="#y"/><use transform="matrix(0.01953125,0,0,0.01953125,116.875,0)" xlink:href="#z"/></g><path d="M185 0v-1480h308v601h612v-601h308V0h-308v-675H493V0H185" id="Q"/><path d="M406 25C220 25 82-106 82-291c0-121 50-214 146-281 109-76 287-104 495-98v-100c0-114-65-171-195-171-115 0-232 33-350 98v-204c134-51 267-76 398-76 287 0 431 114 431 343v486c1 104 38 143 122 125l7 166C969 53 781 30 736-118h-13C624-23 519 25 406 25zm-40-345c0 79 65 144 144 144 69 0 140-34 213-101v-223h-70c-191 0-287 60-287 180" id="R"/><path d="M1019-323C1018-98 800 25 556 25 424 25 291 5 156-35v-217c147 61 272 92 376 92 121 0 182-41 182-124 0-53-51-98-150-140-196-83-403-133-403-370 0-231 199-332 452-329 89 0 196 13 319 39v208c-119-41-217-62-295-62-123 0-184 38-184 114 0 50 45 94 136 127 129 47 301 122 355 181 48 52 75 114 75 193" id="S"/><path d="M855-1123c200 0 317 142 317 347V0H876v-703c0-125-41-187-124-187-94 0-184 66-271 199V0H185v-1579h296v688c97-155 221-232 374-232" id="T"/><path d="M86-557c0-327 209-566 530-566 161 0 278 51 352 152s111 262 111 481H398c20 209 135 314 345 314 99 0 211-23 336-69v208C938 4 805 25 679 25 319 25 86-199 86-557zm308-100h394c0-187-60-281-181-281-123 0-194 94-213 281" id="U"/><path d="M93-519c0-333 160-602 470-604 115 0 219 45 313 136v-592h297V0H876v-207C800-52 680 25 517 25 231 25 93-212 93-519zm783-292c-116-139-303-175-403-15-43 70-65 164-65 282 0 225 72 337 216 337 88 0 172-56 252-169v-435" id="V"/><path d="M420-744c0 342 184 569 516 568 145 0 292-37 440-110v227c-143 64-314 96-513 96C381 37 93-257 93-740c0-498 288-777 788-777 161 0 322 19 481 57v241c-181-63-332-95-454-95-328 0-488 228-488 570" id="W"/><path d="M400-552c0 214 117 382 321 381 89 0 180-19 274-58v205C872 9 759 25 654 25 306 25 86-201 86-550c0-359 229-573 591-573 89 0 192 14 309 43v214c-121-39-218-59-291-59-190 1-295 169-295 373" id="X"/><g id="e"><use transform="matrix(0.01953125,0,0,0.01953125,0,0)" xlink:href="#Q"/><use transform="matrix(0.01953125,0,0,0.01953125,31.2109375,0)" xlink:href="#R"/><use transform="matrix(0.01953125,0,0,0.01953125,54.7265625,0)" xlink:href="#S"/><use transform="matrix(0.01953125,0,0,0.01953125,77.34375,0)" xlink:href="#T"/><use transform="matrix(0.01953125,0,0,0.01953125,103.61328125,0)" xlink:href="#U"/><use transform="matrix(0.01953125,0,0,0.01953125,127.05078125,0)" xlink:href="#V"/><use transform="matrix(0.01953125,0,0,0.01953125,153.5546875,0)" xlink:href="#W"/><use transform="matrix(0.01953125,0,0,0.01953125,182.05078125,0)" xlink:href="#L"/><use transform="matrix(0.01953125,0,0,0.01953125,207.59765625,0)" xlink:href="#M"/><use transform="matrix(0.01953125,0,0,0.01953125,220.60546875,0)" xlink:href="#M"/><use transform="matrix(0.01953125,0,0,0.01953125,233.61328125,0)" xlink:href="#U"/><use transform="matrix(0.01953125,0,0,0.01953125,257.05078125,0)" xlink:href="#X"/><use transform="matrix(0.01953125,0,0,0.01953125,278.33984375,0)" xlink:href="#D"/><use transform="matrix(0.01953125,0,0,0.01953125,294.55078125,0)" xlink:href="#F"/><use transform="matrix(0.01953125,0,0,0.01953125,307.55859375,0)" xlink:href="#L"/><use transform="matrix(0.01953125,0,0,0.01953125,333.10546875,0)" xlink:href="#G"/></g><path d="M1532-771c0 476-268 771-737 771H185v-1480h637c456-2 710 253 710 709zM723-210c339-2 482-193 482-543 0-226-97-418-255-487-92-40-303-37-457-37v1067h230" id="Y"/><g id="f"><use transform="matrix(0.01953125,0,0,0.01953125,0,0)" xlink:href="#Y"/><use transform="matrix(0.01953125,0,0,0.01953125,31.71875,0)" xlink:href="#F"/><use transform="matrix(0.01953125,0,0,0.01953125,44.7265625,0)" xlink:href="#X"/><use transform="matrix(0.01953125,0,0,0.01953125,66.015625,0)" xlink:href="#D"/><use transform="matrix(0.01953125,0,0,0.01953125,82.2265625,0)" xlink:href="#F"/><use transform="matrix(0.01953125,0,0,0.01953125,95.234375,0)" xlink:href="#L"/><use transform="matrix(0.01953125,0,0,0.01953125,120.78125,0)" xlink:href="#G"/><use transform="matrix(0.01953125,0,0,0.01953125,147.05078125,0)" xlink:href="#R"/><use transform="matrix(0.01953125,0,0,0.01953125,170.56640625,0)" xlink:href="#E"/><use transform="matrix(0.01953125,0,0,0.01953125,188.75,0)" xlink:href="#I"/></g><path d="M23 0l576-1480h308L1483 0h-316l-154-395H401L247 0H23zm454-592h460l-230-590" id="Z"/><g id="g"><use transform="matrix(0.01953125,0,0,0.01953125,0,0)" xlink:href="#Z"/><use transform="matrix(0.01953125,0,0,0.01953125,29.453125,0)" xlink:href="#E"/><use transform="matrix(0.01953125,0,0,0.01953125,47.63671875,0)" xlink:href="#E"/><use transform="matrix(0.01953125,0,0,0.01953125,65.8203125,0)" xlink:href="#R"/><use transform="matrix(0.01953125,0,0,0.01953125,89.3359375,0)" xlink:href="#I"/></g><path d="M552 0v-1277H22v-203h1369v203H861V0H552" id="aa"/><path d="M68 0l377-551-361-547h337l236 348 226-348h240L779-559 1148 0H811L565-363 313 0H68" id="ab"/><g id="h"><use transform="matrix(0.01953125,0,0,0.01953125,0,0)" xlink:href="#aa"/><use transform="matrix(0.01953125,0,0,0.01953125,27.59765625,0)" xlink:href="#U"/><use transform="matrix(0.01953125,0,0,0.01953125,51.03515625,0)" xlink:href="#ab"/><use transform="matrix(0.01953125,0,0,0.01953125,74.66796875,0)" xlink:href="#D"/></g><path d="M1204-366c0 257-194 366-470 366H185v-1480h503c265-1 456 88 456 329 0 178-118 304-355 378 277 67 415 203 415 407zm-373-736c-5-168-99-168-294-175h-62v413h73c161 3 288-84 283-238zm51 699c0-163-170-269-347-263h-60v456c231-6 407 12 407-193" id="ac"/><g id="i"><use transform="matrix(0.01953125,0,0,0.01953125,0,0)" xlink:href="#ac"/><use transform="matrix(0.01953125,0,0,0.01953125,25.1953125,0)" xlink:href="#R"/><use transform="matrix(0.01953125,0,0,0.01953125,48.7109375,0)" xlink:href="#H"/></g><path d="M1594-743c0 473-291 780-760 780C384 37 93-284 93-740c0-464 292-777 751-777 456 0 750 314 750 774zm-1174 2c0 304 141 574 418 574 290 0 429-261 429-577 0-305-143-570-423-570-283 0-424 264-424 573" id="ad"/><g id="j"><use transform="matrix(0.01953125,0,0,0.01953125,0,0)" xlink:href="#ad"/><use transform="matrix(0.01953125,0,0,0.01953125,32.9296875,0)" xlink:href="#E"/><use transform="matrix(0.01953125,0,0,0.01953125,51.11328125,0)" xlink:href="#V"/><use transform="matrix(0.01953125,0,0,0.01953125,77.6171875,0)" xlink:href="#U"/><use transform="matrix(0.01953125,0,0,0.01953125,101.0546875,0)" xlink:href="#E"/><use transform="matrix(0.01953125,0,0,0.01953125,119.23828125,0)" xlink:href="#U"/><use transform="matrix(0.01953125,0,0,0.01953125,142.67578125,0)" xlink:href="#V"/><use transform="matrix(0.01953125,0,0,0.01953125,169.1796875,0)" xlink:href="#W"/><use transform="matrix(0.01953125,0,0,0.01953125,197.67578125,0)" xlink:href="#L"/><use transform="matrix(0.01953125,0,0,0.01953125,223.22265625,0)" xlink:href="#M"/><use transform="matrix(0.01953125,0,0,0.01953125,236.23046875,0)" xlink:href="#M"/><use transform="matrix(0.01953125,0,0,0.01953125,249.23828125,0)" xlink:href="#U"/><use transform="matrix(0.01953125,0,0,0.01953125,272.67578125,0)" xlink:href="#X"/><use transform="matrix(0.01953125,0,0,0.01953125,293.96484375,0)" xlink:href="#D"/><use transform="matrix(0.01953125,0,0,0.01953125,310.17578125,0)" xlink:href="#F"/><use transform="matrix(0.01953125,0,0,0.01953125,323.18359375,0)" xlink:href="#L"/><use transform="matrix(0.01953125,0,0,0.01953125,348.73046875,0)" xlink:href="#G"/></g><g id="k"><use transform="matrix(0.01953125,0,0,0.01953125,0,0)" xlink:href="#C"/><use transform="matrix(0.01953125,0,0,0.01953125,22.8515625,0)" xlink:href="#L"/><use transform="matrix(0.01953125,0,0,0.01953125,48.3984375,0)" xlink:href="#E"/><use transform="matrix(0.01953125,0,0,0.01953125,66.58203125,0)" xlink:href="#D"/><use transform="matrix(0.01953125,0,0,0.01953125,82.79296875,0)" xlink:href="#U"/><use transform="matrix(0.01953125,0,0,0.01953125,106.23046875,0)" xlink:href="#V"/><use transform="matrix(0.01953125,0,0,0.01953125,132.734375,0)" xlink:href="#W"/><use transform="matrix(0.01953125,0,0,0.01953125,161.23046875,0)" xlink:href="#L"/><use transform="matrix(0.01953125,0,0,0.01953125,186.77734375,0)" xlink:href="#M"/><use transform="matrix(0.01953125,0,0,0.01953125,199.78515625,0)" xlink:href="#M"/><use transform="matrix(0.01953125,0,0,0.01953125,212.79296875,0)" xlink:href="#U"/><use transform="matrix(0.01953125,0,0,0.01953125,236.23046875,0)" xlink:href="#X"/><use transform="matrix(0.01953125,0,0,0.01953125,257.51953125,0)" xlink:href="#D"/><use transform="matrix(0.01953125,0,0,0.01953125,273.73046875,0)" xlink:href="#F"/><use transform="matrix(0.01953125,0,0,0.01953125,286.73828125,0)" xlink:href="#L"/><use transform="matrix(0.01953125,0,0,0.01953125,312.28515625,0)" xlink:href="#G"/></g><path d="M185 0v-1480h308v1270h667V0H185" id="ae"/><path d="M185 0v-1579h296v993h19l391-512h246L776-628 1250 0H890L500-549h-19V0H185" id="af"/><g id="l"><use transform="matrix(0.01953125,0,0,0.01953125,0,0)" xlink:href="#ae"/><use transform="matrix(0.01953125,0,0,0.01953125,23.26171875,0)" xlink:href="#F"/><use transform="matrix(0.01953125,0,0,0.01953125,36.26953125,0)" xlink:href="#G"/><use transform="matrix(0.01953125,0,0,0.01953125,62.5390625,0)" xlink:href="#af"/><use transform="matrix(0.01953125,0,0,0.01953125,87.8515625,0)" xlink:href="#U"/><use transform="matrix(0.01953125,0,0,0.01953125,111.2890625,0)" xlink:href="#V"/><use transform="matrix(0.01953125,0,0,0.01953125,137.79296875,0)" xlink:href="#ae"/><use transform="matrix(0.01953125,0,0,0.01953125,161.0546875,0)" xlink:href="#F"/><use transform="matrix(0.01953125,0,0,0.01953125,174.0625,0)" xlink:href="#S"/><use transform="matrix(0.01953125,0,0,0.01953125,196.6796875,0)" xlink:href="#D"/></g><path d="M43 0l820-1480h314L1462 0h-305l-73-376H498L291 0H43zm566-580h438l-117-578" id="ag"/><path d="M179 0l218-1098h296l-90 456c78-149 165-266 260-352s182-129 261-129c27 0 54 5 83 14l-86 280c-31-15-59-22-84-22-74 0-154 50-241 151S626-487 548-364L475 0H179" id="ah"/><path d="M581-1012c158-101 297-139 483-86h296L1141 0H845l91-456c-71 136-156 250-254 342S490 25 400 25c-137 0-232-145-232-271 0-288 229-648 413-766zM471-322c1 38 17 81 59 81 53 0 128-56 224-168s173-215 234-310l37-182c-108-58-225-47-319 40-57 53-113 135-162 253s-73 213-73 286" id="ai"/><path d="M139 395L451 0 256-1098h301l132 742 480-742h244L437 395H139" id="aj"/><path d="M400 25c-137 0-232-145-232-271 0-288 227-650 413-766 164-103 285-141 483-86l96-481h296L1141 0H845l91-456c-71 136-156 250-254 342S490 25 400 25zm71-347c1 38 17 81 59 81 53 0 128-56 224-168s173-215 234-310l37-182c-120-60-220-47-319 40-59 51-113 135-162 253s-73 213-73 286" id="ak"/><g id="m"><use transform="matrix(0.01953125,0,0,0.01953125,0,0)" xlink:href="#ag"/><use transform="matrix(0.01953125,0,0,0.01953125,29.39453125,0)" xlink:href="#ah"/><use transform="matrix(0.01953125,0,0,0.01953125,49.86328125,0)" xlink:href="#ah"/><use transform="matrix(0.01953125,0,0,0.01953125,70.33203125,0)" xlink:href="#ai"/><use transform="matrix(0.01953125,0,0,0.01953125,95.99609375,0)" xlink:href="#aj"/><use transform="matrix(0.01953125,0,0,0.01953125,119.66796875,0)" xlink:href="#x"/><use transform="matrix(0.01953125,0,0,0.01953125,142.4609375,0)" xlink:href="#ak"/><use transform="matrix(0.01953125,0,0,0.01953125,168.2421875,0)" xlink:href="#u"/><use transform="matrix(0.01953125,0,0,0.01953125,196.69921875,0)" xlink:href="#v"/><use transform="matrix(0.01953125,0,0,0.01953125,221.26953125,0)" xlink:href="#w"/><use transform="matrix(0.01953125,0,0,0.01953125,233.92578125,0)" xlink:href="#w"/><use transform="matrix(0.01953125,0,0,0.01953125,246.58203125,0)" xlink:href="#x"/><use transform="matrix(0.01953125,0,0,0.01953125,269.375,0)" xlink:href="#y"/><use transform="matrix(0.01953125,0,0,0.01953125,290.3125,0)" xlink:href="#z"/><use transform="matrix(0.01953125,0,0,0.01953125,306.69921875,0)" xlink:href="#A"/><use transform="matrix(0.01953125,0,0,0.01953125,319.35546875,0)" xlink:href="#v"/><use transform="matrix(0.01953125,0,0,0.01953125,343.92578125,0)" xlink:href="#B"/></g><path d="M185 0v-1480h308V0H185" id="al"/><path d="M456 0L37-1098h312l307 792 305-792h214L752 0H456" id="am"/><g id="n"><use transform="matrix(0.01953125,0,0,0.01953125,0,0)" xlink:href="#al"/><use transform="matrix(0.01953125,0,0,0.01953125,13.26171875,0)" xlink:href="#G"/><use transform="matrix(0.01953125,0,0,0.01953125,39.53125,0)" xlink:href="#D"/><use transform="matrix(0.01953125,0,0,0.01953125,55.7421875,0)" xlink:href="#U"/><use transform="matrix(0.01953125,0,0,0.01953125,79.1796875,0)" xlink:href="#E"/><use transform="matrix(0.01953125,0,0,0.01953125,97.36328125,0)" xlink:href="#am"/><use transform="matrix(0.01953125,0,0,0.01953125,121.09375,0)" xlink:href="#R"/><use transform="matrix(0.01953125,0,0,0.01953125,144.609375,0)" xlink:href="#M"/></g><path d="M929-1314c-134 0-245 64-247 184 0 40 13 76 38 108 40 51 150 131 216 181 106 79 177 150 214 211 83 140 70 293-22 426C1017-44 828 39 545 37c-132 0-263-18-393-54l48-240c149 60 276 90 379 90 167 0 284-73 287-217 3-121-102-190-173-247-146-117-327-202-327-427 0-188 123-332 264-398 205-96 477-68 714 5l-44 223c-141-57-265-86-371-86" id="an"/><path d="M581-1012c158-101 297-139 483-86h296L1063 395H767l169-851c-71 136-156 250-254 342S490 25 400 25c-137 0-232-145-232-271 0-288 229-648 413-766zM471-322c1 38 17 81 59 81 53 0 128-56 224-168s173-215 234-310l37-182c-108-58-225-47-319 40-57 53-113 135-162 253s-73 213-73 286" id="ao"/><path d="M411 25c-119 0-194-87-194-220 0-39 5-83 14-130l154-773h296L531-345c-10 41-4 92 37 92 47 0 114-54 200-161s162-214 229-320l72-364h297L1147 0H851l91-456c-78 147-163 263-254 350S504 25 411 25" id="ap"/><g id="o"><use transform="matrix(0.01953125,0,0,0.01953125,0,0)" xlink:href="#an"/><use transform="matrix(0.01953125,0,0,0.01953125,24.1015625,0)" xlink:href="#x"/><use transform="matrix(0.01953125,0,0,0.01953125,46.89453125,0)" xlink:href="#ao"/><use transform="matrix(0.01953125,0,0,0.01953125,72.55859375,0)" xlink:href="#ap"/><use transform="matrix(0.01953125,0,0,0.01953125,98.45703125,0)" xlink:href="#x"/><use transform="matrix(0.01953125,0,0,0.01953125,121.25,0)" xlink:href="#B"/><use transform="matrix(0.01953125,0,0,0.01953125,147.265625,0)" xlink:href="#y"/><use transform="matrix(0.01953125,0,0,0.01953125,168.203125,0)" xlink:href="#x"/><use transform="matrix(0.01953125,0,0,0.01953125,190.99609375,0)" xlink:href="#ai"/><use transform="matrix(0.01953125,0,0,0.01953125,216.66015625,0)" xlink:href="#O"/><use transform="matrix(0.01953125,0,0,0.01953125,242.44140625,0)" xlink:href="#w"/><use transform="matrix(0.01953125,0,0,0.01953125,255.09765625,0)" xlink:href="#x"/><use transform="matrix(0.01953125,0,0,0.01953125,277.890625,0)" xlink:href="#u"/><use transform="matrix(0.01953125,0,0,0.01953125,306.34765625,0)" xlink:href="#v"/><use transform="matrix(0.01953125,0,0,0.01953125,330.91796875,0)" xlink:href="#w"/><use transform="matrix(0.01953125,0,0,0.01953125,343.57421875,0)" xlink:href="#w"/><use transform="matrix(0.01953125,0,0,0.01953125,356.23046875,0)" xlink:href="#x"/><use transform="matrix(0.01953125,0,0,0.01953125,379.0234375,0)" xlink:href="#y"/><use transform="matrix(0.01953125,0,0,0.01953125,399.9609375,0)" xlink:href="#z"/><use transform="matrix(0.01953125,0,0,0.01953125,416.34765625,0)" xlink:href="#A"/><use transform="matrix(0.01953125,0,0,0.01953125,429.00390625,0)" xlink:href="#v"/><use transform="matrix(0.01953125,0,0,0.01953125,453.57421875,0)" xlink:href="#B"/></g><g id="p"><use transform="matrix(0.01953125,0,0,0.01953125,0,0)" xlink:href="#C"/><use transform="matrix(0.01953125,0,0,0.01953125,22.8515625,0)" xlink:href="#U"/><use transform="matrix(0.01953125,0,0,0.01953125,46.2890625,0)" xlink:href="#D"/></g><path d="M1202-1087c4 334-238 511-587 507H487V0H185v-1480h516c335 4 497 80 501 393zM487-783c226 16 401-73 401-273 0-147-94-221-281-221H487v494" id="aq"/><path d="M490 25c-200 0-317-142-317-347v-776h296v703c0 125 42 187 125 187 93 0 183-66 270-199v-691h296V0H864v-207C768-52 643 25 490 25" id="ar"/><g id="q"><use transform="matrix(0.01953125,0,0,0.01953125,0,0)" xlink:href="#aq"/><use transform="matrix(0.01953125,0,0,0.01953125,24.53125,0)" xlink:href="#M"/><use transform="matrix(0.01953125,0,0,0.01953125,37.5390625,0)" xlink:href="#ar"/><use transform="matrix(0.01953125,0,0,0.01953125,63.80859375,0)" xlink:href="#H"/><use transform="matrix(0.01953125,0,0,0.01953125,90.1953125,0)" xlink:href="#H"/><use transform="matrix(0.01953125,0,0,0.01953125,116.58203125,0)" xlink:href="#R"/><use transform="matrix(0.01953125,0,0,0.01953125,140.09765625,0)" xlink:href="#K"/><use transform="matrix(0.01953125,0,0,0.01953125,166.6015625,0)" xlink:href="#M"/><use transform="matrix(0.01953125,0,0,0.01953125,179.609375,0)" xlink:href="#U"/><use transform="matrix(0.01953125,0,0,0.01953125,203.046875,0)" xlink:href="#Y"/><use transform="matrix(0.01953125,0,0,0.01953125,234.765625,0)" xlink:href="#F"/><use transform="matrix(0.01953125,0,0,0.01953125,247.7734375,0)" xlink:href="#X"/><use transform="matrix(0.01953125,0,0,0.01953125,269.0625,0)" xlink:href="#D"/><use transform="matrix(0.01953125,0,0,0.01953125,285.2734375,0)" xlink:href="#F"/><use transform="matrix(0.01953125,0,0,0.01953125,298.28125,0)" xlink:href="#L"/><use transform="matrix(0.01953125,0,0,0.01953125,323.828125,0)" xlink:href="#G"/><use transform="matrix(0.01953125,0,0,0.01953125,350.09765625,0)" xlink:href="#R"/><use transform="matrix(0.01953125,0,0,0.01953125,373.61328125,0)" xlink:href="#E"/><use transform="matrix(0.01953125,0,0,0.01953125,391.796875,0)" xlink:href="#I"/></g><g id="r"><use transform="matrix(0.01953125,0,0,0.01953125,0,0)" xlink:href="#al"/><use transform="matrix(0.01953125,0,0,0.01953125,13.26171875,0)" xlink:href="#V"/><use transform="matrix(0.01953125,0,0,0.01953125,39.765625,0)" xlink:href="#U"/><use transform="matrix(0.01953125,0,0,0.01953125,63.203125,0)" xlink:href="#G"/><use transform="matrix(0.01953125,0,0,0.01953125,89.47265625,0)" xlink:href="#D"/><use transform="matrix(0.01953125,0,0,0.01953125,105.68359375,0)" xlink:href="#F"/><use transform="matrix(0.01953125,0,0,0.01953125,118.69140625,0)" xlink:href="#D"/><use transform="matrix(0.01953125,0,0,0.01953125,134.90234375,0)" xlink:href="#I"/><use transform="matrix(0.01953125,0,0,0.01953125,158.22265625,0)" xlink:href="#Y"/><use transform="matrix(0.01953125,0,0,0.01953125,189.94140625,0)" xlink:href="#F"/><use transform="matrix(0.01953125,0,0,0.01953125,202.94921875,0)" xlink:href="#X"/><use transform="matrix(0.01953125,0,0,0.01953125,224.23828125,0)" xlink:href="#D"/><use transform="matrix(0.01953125,0,0,0.01953125,240.44921875,0)" xlink:href="#F"/><use transform="matrix(0.01953125,0,0,0.01953125,253.45703125,0)" xlink:href="#L"/><use transform="matrix(0.01953125,0,0,0.01953125,279.00390625,0)" xlink:href="#G"/><use transform="matrix(0.01953125,0,0,0.01953125,305.2734375,0)" xlink:href="#R"/><use transform="matrix(0.01953125,0,0,0.01953125,328.7890625,0)" xlink:href="#E"/><use transform="matrix(0.01953125,0,0,0.01953125,346.97265625,0)" xlink:href="#I"/></g><g id="s"><use transform="matrix(0.01953125,0,0,0.01953125,0,0)" xlink:href="#ac"/><use transform="matrix(0.01953125,0,0,0.01953125,25.1953125,0)" xlink:href="#I"/><use transform="matrix(0.01953125,0,0,0.01953125,48.515625,0)" xlink:href="#D"/><use transform="matrix(0.01953125,0,0,0.01953125,64.7265625,0)" xlink:href="#U"/><use transform="matrix(0.01953125,0,0,0.01953125,88.1640625,0)" xlink:href="#C"/><use transform="matrix(0.01953125,0,0,0.01953125,111.015625,0)" xlink:href="#D"/><use transform="matrix(0.01953125,0,0,0.01953125,127.2265625,0)" xlink:href="#E"/><use transform="matrix(0.01953125,0,0,0.01953125,145.41015625,0)" xlink:href="#F"/><use transform="matrix(0.01953125,0,0,0.01953125,158.41796875,0)" xlink:href="#G"/><use transform="matrix(0.01953125,0,0,0.01953125,184.6875,0)" xlink:href="#H"/></g><g id="t"><use transform="matrix(0.01953125,0,0,0.01953125,0,0)" xlink:href="#aq"/><use transform="matrix(0.01953125,0,0,0.01953125,24.53125,0)" xlink:href="#M"/><use transform="matrix(0.01953125,0,0,0.01953125,37.5390625,0)" xlink:href="#ar"/><use transform="matrix(0.01953125,0,0,0.01953125,63.80859375,0)" xlink:href="#H"/><use transform="matrix(0.01953125,0,0,0.01953125,90.1953125,0)" xlink:href="#H"/><use transform="matrix(0.01953125,0,0,0.01953125,116.58203125,0)" xlink:href="#R"/><use transform="matrix(0.01953125,0,0,0.01953125,140.09765625,0)" xlink:href="#K"/><use transform="matrix(0.01953125,0,0,0.01953125,166.6015625,0)" xlink:href="#M"/><use transform="matrix(0.01953125,0,0,0.01953125,179.609375,0)" xlink:href="#U"/><use transform="matrix(0.01953125,0,0,0.01953125,203.046875,0)" xlink:href="#C"/><use transform="matrix(0.01953125,0,0,0.01953125,225.8984375,0)" xlink:href="#U"/><use transform="matrix(0.01953125,0,0,0.01953125,249.3359375,0)" xlink:href="#D"/></g></defs></g></svg>