<svg xmlns="http://www.w3.org/2000/svg" xmlns:xlink="http://www.w3.org/1999/xlink" xmlns:lucid="lucid" width="1007" height="595"><g transform="translate(-264 -95)" lucid:page-tab-id="oJytkGtG2xNzz"><path d="M446 319h144v33H446z" stroke="#000" stroke-opacity="0" stroke-width="2" fill="#fff"/><use xlink:href="#a" transform="matrix(1,0,0,1,446,319) translate(11 26.578125)"/><path d="M452.04 298.68L378.4 416.15" stroke="#000" stroke-width="2" fill="none"/><path d="M460.15 285.74l-3.65 14.55-7.86-4.93z" stroke="#000" stroke-width="2"/><path d="M379.26 416.66l-.2.34h-2.37l.86-1.4z"/><path d="M284 452h171v100H284z" stroke="#000" stroke-width="2" fill="#fff"/><use xlink:href="#b" transform="matrix(1,0,0,1,284,452) translate(11 25.78125)"/><use xlink:href="#c" transform="matrix(1,0,0,1,284,452) translate(11 57.1875)"/><use xlink:href="#d" transform="matrix(1,0,0,1,284,452) translate(11 88.59375)"/><path d="M284 418h171v33H284z" stroke="#000" stroke-width="2" fill="#fff"/><use xlink:href="#e" transform="matrix(1,0,0,1,284,418) translate(21.619791666666657 25.78125)"/><path d="M630 352h221v300H630z" stroke="#000" stroke-width="2" fill="#fff"/><use xlink:href="#f" transform="matrix(1,0,0,1,630,352) translate(11 25.78125)"/><use xlink:href="#g" transform="matrix(1,0,0,1,630,352) translate(11 57.1875)"/><use xlink:href="#h" transform="matrix(1,0,0,1,630,352) translate(11 88.59375)"/><use xlink:href="#i" transform="matrix(1,0,0,1,630,352) translate(11 120)"/><use xlink:href="#j" transform="matrix(1,0,0,1,630,352) translate(11 151.40625)"/><use xlink:href="#k" transform="matrix(1,0,0,1,630,352) translate(11 182.8125)"/><use xlink:href="#l" transform="matrix(1,0,0,1,630,352) translate(11 214.21875)"/><use xlink:href="#b" transform="matrix(1,0,0,1,630,352) translate(11 245.625)"/><use xlink:href="#a" transform="matrix(1,0,0,1,630,352) translate(11 277.03125)"/><path d="M630 319h221v33H630z" stroke="#000" stroke-width="2" fill="#fff"/><use xlink:href="#m" transform="matrix(1,0,0,1,630,319) translate(49.07421875 25.78125)"/><path d="M405 149h241v133H405z" stroke="#000" stroke-width="2" fill="#fff"/><use xlink:href="#n" transform="matrix(1,0,0,1,405,149) translate(11 25.78125)"/><use xlink:href="#o" transform="matrix(1,0,0,1,405,149) translate(11 57.1875)"/><use xlink:href="#f" transform="matrix(1,0,0,1,405,149) translate(11 88.59375)"/><use xlink:href="#p" transform="matrix(1,0,0,1,405,149) translate(11 120)"/><path d="M405 115h241v33H405z" stroke="#000" stroke-width="2" fill="#fff"/><use xlink:href="#q" transform="matrix(1,0,0,1,405,115) translate(27.752604166666657 25.78125)"/><path d="M1010 418h241v167h-241z" stroke="#000" stroke-width="2" fill="#fff"/><use xlink:href="#r" transform="matrix(1,0,0,1,1010,418) translate(11 25.78125)"/><use xlink:href="#s" transform="matrix(1,0,0,1,1010,418) translate(11 57.1875)"/><use xlink:href="#t" transform="matrix(1,0,0,1,1010,418) translate(11 88.59375)"/><use xlink:href="#u" transform="matrix(1,0,0,1,1010,418) translate(11 120)"/><path d="M1010 385h241v33h-241z" stroke="#000" stroke-width="2" fill="#fff"/><use xlink:href="#v" transform="matrix(1,0,0,1,1010,385) translate(47.49869791666667 25.78125)"/><path d="M629 485H484.75M628.97 485H630" stroke="#000" stroke-width="2" fill="none"/><path d="M455.4 485l14.86-14.85L485.4 485l-15.14 14.85z" stroke="#000" stroke-width="2" fill="#fff"/><path d="M539 492h84v33h-84z" stroke="#000" stroke-opacity="0" stroke-width="2" fill="#fff"/><g><use xlink:href="#w" transform="matrix(1,0,0,1,539,492) translate(11 26.578125)"/></g><path d="M580.56 300.25l48.08 123.88" stroke="#000" stroke-width="2" fill="none"/><path d="M575.04 286.02l9.48 11.62-8.64 3.35z" stroke="#000" stroke-width="2"/><path d="M629 427.83l-1.3-3.36 1.3-.5z"/><path d="M853 403.73h2.95m3.92 0h5.9m3.93 0h5.9m3.92 0h5.9m3.92 0h5.9m3.92 0h5.9m3.92 0h5.9m3.92 0h5.9m3.92 0h5.9m3.93 0h5.9m3.92 0h5.9m3.92 0h5.88m3.93 0h5.9m3.93 0h5.9m3.92 0h2.95" stroke="#000" stroke-width="2" fill="none"/><path d="M853.03 404.73H852v-2h1.03z"/><path d="M1005.76 403.73l-14.26 4.64v-9.27z" stroke="#000" stroke-width="2"/><path d="M1008 554.4H870.5" stroke="#000" stroke-width="2" fill="none"/><path d="M1009 555.4h-1.03v-2h1.03z"/><path d="M855.24 554.4l14.26-4.64v9.28z" stroke="#000" stroke-width="2"/><path d="M855 560h125v110H855z" stroke="#000" stroke-opacity="0" stroke-width="2" fill="#fff"/><g><use xlink:href="#r" transform="matrix(1,0,0,1,855,560) translate(11 33.671875)"/><use xlink:href="#s" transform="matrix(1,0,0,1,855,560) translate(11 65.078125)"/><use xlink:href="#x" transform="matrix(1,0,0,1,855,560) translate(11 96.484375)"/></g><defs><path d="M707-938c-160 0-242 101-313 222V0H197v-1086h197v204c70-138 200-250 403-223v184c-33-11-63-17-90-17" id="y"/><path d="M691-125c135 0 167-19 302-66v156C861 5 748 25 654 25 224 25-11-445 175-839c77-162 195-272 411-272 302 0 432 251 411 599H312c19 178 69 275 184 344 50 30 116 43 195 43zm109-535c4-188-68-303-226-303-173 0-238 125-253 303h479" id="z"/><path d="M887-302C887-87 709 25 485 25c-90 0-199-21-328-63v-181c129 64 241 96 336 96 135 0 250-124 169-245-32-48-171-101-244-132-88-38-153-79-194-128-41-48-61-107-61-177 0-195 155-305 376-305 66 0 180 15 266 33v164c-110-33-198-49-263-49-141 0-241 112-157 217 33 42 142 84 207 111 127 54 208 107 243 160s52 110 52 172" id="A"/><path d="M1147-543c0 335-173 568-518 568-343 0-518-233-518-568s174-567 518-567c343 0 518 232 518 567zm-826 0c0 239 91 420 308 420 218 0 309-181 309-420 0-240-91-419-309-419-217 0-308 179-308 419" id="B"/><path d="M495 25c-188 4-310-134-310-331v-780h197v716c1 129 8 167 76 205 78 44 151 17 234-25 57-29 118-94 184-192v-704h197V0H876v-204C792-82 673 22 495 25" id="C"/><path d="M333-543c0 224 128 410 340 409 90 0 183-23 278-69v170C714 35 539 61 355-54c-150-94-244-263-244-495 0-330 189-561 544-561 85 0 180 12 284 35v165c-111-33-202-49-272-49-223 0-334 200-334 416" id="D"/><g id="a"><use transform="matrix(0.013020833333333334,0,0,0.013020833333333334,0,0)" xlink:href="#y"/><use transform="matrix(0.013020833333333334,0,0,0.013020833333333334,10.911458333333334,0)" xlink:href="#z"/><use transform="matrix(0.013020833333333334,0,0,0.013020833333333334,25.768229166666668,0)" xlink:href="#A"/><use transform="matrix(0.013020833333333334,0,0,0.013020833333333334,39.36197916666667,0)" xlink:href="#B"/><use transform="matrix(0.013020833333333334,0,0,0.013020833333333334,55.7421875,0)" xlink:href="#C"/><use transform="matrix(0.013020833333333334,0,0,0.013020833333333334,72.29166666666667,0)" xlink:href="#y"/><use transform="matrix(0.013020833333333334,0,0,0.013020833333333334,83.203125,0)" xlink:href="#D"/><use transform="matrix(0.013020833333333334,0,0,0.013020833333333334,96.86197916666667,0)" xlink:href="#z"/><use transform="matrix(0.013020833333333334,0,0,0.013020833333333334,111.71875,0)" xlink:href="#A"/></g><path d="M775-1110c188-4 310 134 310 330V0H888v-716c-1-128-8-167-76-204-78-43-151-17-234 25-57 29-118 94-184 192V0H197v-1086h197v204c83-121 205-225 381-228" id="E"/><g id="b"><use transform="matrix(0.013020833333333334,0,0,0.013020833333333334,0,0)" xlink:href="#y"/><use transform="matrix(0.013020833333333334,0,0,0.013020833333333334,10.911458333333334,0)" xlink:href="#C"/><use transform="matrix(0.013020833333333334,0,0,0.013020833333333334,27.4609375,0)" xlink:href="#E"/></g><g id="c"><use transform="matrix(0.013020833333333334,0,0,0.013020833333333334,0,0)" xlink:href="#y"/><use transform="matrix(0.013020833333333334,0,0,0.013020833333333334,10.911458333333334,0)" xlink:href="#z"/><use transform="matrix(0.013020833333333334,0,0,0.013020833333333334,25.768229166666668,0)" xlink:href="#A"/><use transform="matrix(0.013020833333333334,0,0,0.013020833333333334,39.36197916666667,0)" xlink:href="#B"/><use transform="matrix(0.013020833333333334,0,0,0.013020833333333334,55.7421875,0)" xlink:href="#C"/><use transform="matrix(0.013020833333333334,0,0,0.013020833333333334,72.29166666666667,0)" xlink:href="#y"/><use transform="matrix(0.013020833333333334,0,0,0.013020833333333334,83.203125,0)" xlink:href="#D"/><use transform="matrix(0.013020833333333334,0,0,0.013020833333333334,96.86197916666667,0)" xlink:href="#z"/><use transform="matrix(0.013020833333333334,0,0,0.013020833333333334,111.71875,0)" xlink:href="#A"/></g><path d="M933 25c-98 0-155-61-176-163C660-52 566 25 416 25 256 25 103-92 103-273c0-107 47-194 138-265 97-75 272-109 487-104v-131c5-142-67-189-197-189-102 0-213 32-334 96v-163c133-54 258-81 375-81 222 0 353 88 353 337v492c1 92 4 123 49 154 26 18 54 18 93 11l14 109c-45 21-94 32-148 32zM472-136c110-4 183-51 256-109v-281c-202-17-420 47-428 221-4 91 83 172 172 169" id="F"/><path d="M574-1110c159 3 241 51 320 148v-617h198V0H894v-204C823-70 718 23 532 25c-281 3-421-241-421-534 0-314 161-607 463-601zm-1 962c148 0 235-84 321-179v-500c-115-93-139-135-290-135-212 0-283 208-283 433 0 208 59 381 252 381" id="G"/><path d="M543 0v-1323H18v-157h1260v157H753V0H543" id="H"/><path d="M402-336c1 145 47 211 184 213 26 0 58-4 95-13V0C427 83 205-38 205-300v-638H69v-148h136v-197l197-19v216h284v148H402v602" id="I"/><path d="M225 0v-197h197V0H225zm0-888v-198h197v198H225" id="J"/><g id="d"><use transform="matrix(0.013020833333333334,0,0,0.013020833333333334,0,0)" xlink:href="#F"/><use transform="matrix(0.013020833333333334,0,0,0.013020833333333334,14.7265625,0)" xlink:href="#G"/><use transform="matrix(0.013020833333333334,0,0,0.013020833333333334,31.510416666666668,0)" xlink:href="#G"/><use transform="matrix(0.013020833333333334,0,0,0.013020833333333334,48.294270833333336,0)" xlink:href="#H"/><use transform="matrix(0.013020833333333334,0,0,0.013020833333333334,65.15625,0)" xlink:href="#z"/><use transform="matrix(0.013020833333333334,0,0,0.013020833333333334,80.01302083333333,0)" xlink:href="#A"/><use transform="matrix(0.013020833333333334,0,0,0.013020833333333334,93.60677083333333,0)" xlink:href="#I"/><use transform="matrix(0.013020833333333334,0,0,0.013020833333333334,103.58072916666666,0)" xlink:href="#J"/></g><path d="M552 0v-1277H22v-203h1369v203H861V0H552" id="K"/><path d="M679 25C304 25 86-196 86-557c0-334 185-566 530-566 141 0 253 45 337 134s126 256 126 499H398c12 144 63 222 160 276 46 26 108 38 185 38 99 0 211-23 336-69v208C938 4 805 25 679 25zM394-657h394c0-101-17-172-50-216-67-91-209-82-274 7-36 49-61 117-70 209" id="L"/><path d="M637-938c-101 0-184 30-184 113 0 105 133 124 222 161 140 58 236 105 279 157 108 132 75 318-54 427C734 61 400 40 156-35v-217c147 61 272 92 376 92 95 0 182-41 182-124 0-119-154-136-250-180-101-46-180-87-229-137-49-49-74-114-74-193 0-95 36-175 111-236 144-118 421-110 660-54v208c-119-41-217-62-295-62" id="M"/><path d="M495-374c0 144 39 202 165 202 25 0 56-5 91-14V-6C541 64 312 11 239-128c-25-48-40-116-40-207v-578H76v-185h123v-185l296-34v219h235v185H495v539" id="N"/><path d="M629-1314c-166 0-281 128-191 262 27 40 198 138 277 182 163 90 267 170 310 238 112 176 77 407-71 540C777 68 409 58 102-13v-254c181 73 231 94 411 100 148 5 254-71 254-197 0-41-14-77-34-112-25-43-190-137-271-182-142-78-237-153-287-220-51-67-76-145-76-234 0-247 209-405 490-405 118 0 251 17 399 51v237c-151-57-270-85-359-85" id="O"/><path d="M490 25c-191 0-317-129-317-347v-776h296v703c1 102 7 140 61 171 63 37 127 14 191-24 44-26 92-80 143-159v-691h296V0H864v-207C779-69 673 25 490 25" id="P"/><path d="M185 0v-1098h296V0H185zm0-1283v-247h296v247H185" id="Q"/><g id="e"><use transform="matrix(0.013020833333333334,0,0,0.013020833333333334,0,0)" xlink:href="#K"/><use transform="matrix(0.013020833333333334,0,0,0.013020833333333334,18.3984375,0)" xlink:href="#L"/><use transform="matrix(0.013020833333333334,0,0,0.013020833333333334,34.0234375,0)" xlink:href="#M"/><use transform="matrix(0.013020833333333334,0,0,0.013020833333333334,49.1015625,0)" xlink:href="#N"/><use transform="matrix(0.013020833333333334,0,0,0.013020833333333334,59.90885416666667,0)" xlink:href="#O"/><use transform="matrix(0.013020833333333334,0,0,0.013020833333333334,75.14322916666667,0)" xlink:href="#P"/><use transform="matrix(0.013020833333333334,0,0,0.013020833333333334,92.65625,0)" xlink:href="#Q"/><use transform="matrix(0.013020833333333334,0,0,0.013020833333333334,101.328125,0)" xlink:href="#N"/><use transform="matrix(0.013020833333333334,0,0,0.013020833333333334,112.13541666666667,0)" xlink:href="#L"/></g><path d="M389-546c-2 292 91 426 345 426 252 0 323-134 323-419v-941h184v938c1 297-61 410-227 516-136 87-461 80-597-2-171-104-239-230-238-520v-932h210v934" id="R"/><path d="M757-1110c282-4 424 242 421 534-2 220-76 421-210 518C854 25 747 41 582 9 523-3 461-46 394-123v518H197v-1481h197v204c72-134 176-226 363-228zm-41 172c-149 0-235 83-322 179v500c113 94 140 136 290 136 212 0 284-210 284-433 0-207-60-382-252-382" id="S"/><g id="f"><use transform="matrix(0.013020833333333334,0,0,0.013020833333333334,0,0)" xlink:href="#A"/><use transform="matrix(0.013020833333333334,0,0,0.013020833333333334,13.59375,0)" xlink:href="#z"/><use transform="matrix(0.013020833333333334,0,0,0.013020833333333334,28.450520833333336,0)" xlink:href="#I"/><use transform="matrix(0.013020833333333334,0,0,0.013020833333333334,38.42447916666667,0)" xlink:href="#R"/><use transform="matrix(0.013020833333333334,0,0,0.013020833333333334,56.90104166666667,0)" xlink:href="#S"/></g><path d="M191 0v-1480c312 8 735-30 924 82s316 324 314 623c-3 303-116 542-309 669C1015-37 871 0 686 0H191zm210-157c205-1 468 7 583-67 197-126 285-537 172-816-34-86-89-154-165-206s-215-77-417-77H401v1166" id="T"/><path d="M323 0L12-1086h193l238 841 257-841h197l225 841 273-841h169L1210 0h-198L782-841 522 0H323" id="U"/><g id="g"><use transform="matrix(0.013020833333333334,0,0,0.013020833333333334,0,0)" xlink:href="#I"/><use transform="matrix(0.013020833333333334,0,0,0.013020833333333334,9.973958333333334,0)" xlink:href="#z"/><use transform="matrix(0.013020833333333334,0,0,0.013020833333333334,24.830729166666668,0)" xlink:href="#F"/><use transform="matrix(0.013020833333333334,0,0,0.013020833333333334,39.55729166666667,0)" xlink:href="#y"/><use transform="matrix(0.013020833333333334,0,0,0.013020833333333334,50.46875000000001,0)" xlink:href="#T"/><use transform="matrix(0.013020833333333334,0,0,0.013020833333333334,70.44270833333334,0)" xlink:href="#B"/><use transform="matrix(0.013020833333333334,0,0,0.013020833333333334,86.82291666666669,0)" xlink:href="#U"/><use transform="matrix(0.013020833333333334,0,0,0.013020833333333334,107.3697916666667,0)" xlink:href="#E"/></g><g id="h"><use transform="matrix(0.013020833333333334,0,0,0.013020833333333334,0,0)" xlink:href="#F"/><use transform="matrix(0.013020833333333334,0,0,0.013020833333333334,14.7265625,0)" xlink:href="#A"/><use transform="matrix(0.013020833333333334,0,0,0.013020833333333334,28.3203125,0)" xlink:href="#A"/><use transform="matrix(0.013020833333333334,0,0,0.013020833333333334,41.9140625,0)" xlink:href="#z"/><use transform="matrix(0.013020833333333334,0,0,0.013020833333333334,56.770833333333336,0)" xlink:href="#y"/><use transform="matrix(0.013020833333333334,0,0,0.013020833333333334,67.68229166666667,0)" xlink:href="#I"/><use transform="matrix(0.013020833333333334,0,0,0.013020833333333334,77.65625,0)" xlink:href="#J"/></g><path d="M260 395L436 0 16-1086h213l311 818 332-818h186L465 395H260" id="V"/><g id="i"><use transform="matrix(0.013020833333333334,0,0,0.013020833333333334,0,0)" xlink:href="#G"/><use transform="matrix(0.013020833333333334,0,0,0.013020833333333334,16.783854166666668,0)" xlink:href="#z"/><use transform="matrix(0.013020833333333334,0,0,0.013020833333333334,31.640625,0)" xlink:href="#E"/><use transform="matrix(0.013020833333333334,0,0,0.013020833333333334,48.19010416666667,0)" xlink:href="#V"/><use transform="matrix(0.013020833333333334,0,0,0.013020833333333334,62.12239583333335,0)" xlink:href="#J"/></g><path d="M775-1110c188-4 310 134 310 330V0H888v-716c-1-128-8-167-76-204-78-43-151-17-234 25-57 29-118 94-184 192V0H197v-1579h197v697c83-121 205-225 381-228" id="W"/><path d="M197 0v-1579h197V0H197" id="X"/><path d="M197 0v-1086h197V0H197zm0-1283v-197h197v197H197" id="Y"/><g id="j"><use transform="matrix(0.013020833333333334,0,0,0.013020833333333334,0,0)" xlink:href="#A"/><use transform="matrix(0.013020833333333334,0,0,0.013020833333333334,13.59375,0)" xlink:href="#W"/><use transform="matrix(0.013020833333333334,0,0,0.013020833333333334,30.143229166666668,0)" xlink:href="#B"/><use transform="matrix(0.013020833333333334,0,0,0.013020833333333334,46.5234375,0)" xlink:href="#C"/><use transform="matrix(0.013020833333333334,0,0,0.013020833333333334,63.07291666666667,0)" xlink:href="#X"/><use transform="matrix(0.013020833333333334,0,0,0.013020833333333334,70.78125,0)" xlink:href="#G"/><use transform="matrix(0.013020833333333334,0,0,0.013020833333333334,87.56510416666667,0)" xlink:href="#J"/><use transform="matrix(0.013020833333333334,0,0,0.013020833333333334,96.00260416666667,0)" xlink:href="#y"/><use transform="matrix(0.013020833333333334,0,0,0.013020833333333334,106.9140625,0)" xlink:href="#F"/><use transform="matrix(0.013020833333333334,0,0,0.013020833333333334,121.640625,0)" xlink:href="#Y"/><use transform="matrix(0.013020833333333334,0,0,0.013020833333333334,129.34895833333334,0)" xlink:href="#A"/><use transform="matrix(0.013020833333333334,0,0,0.013020833333333334,142.94270833333334,0)" xlink:href="#z"/><use transform="matrix(0.013020833333333334,0,0,0.013020833333333334,157.79947916666669,0)" xlink:href="#J"/></g><g id="k"><use transform="matrix(0.013020833333333334,0,0,0.013020833333333334,0,0)" xlink:href="#A"/><use transform="matrix(0.013020833333333334,0,0,0.013020833333333334,13.59375,0)" xlink:href="#W"/><use transform="matrix(0.013020833333333334,0,0,0.013020833333333334,30.143229166666668,0)" xlink:href="#B"/><use transform="matrix(0.013020833333333334,0,0,0.013020833333333334,46.5234375,0)" xlink:href="#C"/><use transform="matrix(0.013020833333333334,0,0,0.013020833333333334,63.07291666666667,0)" xlink:href="#X"/><use transform="matrix(0.013020833333333334,0,0,0.013020833333333334,70.78125,0)" xlink:href="#G"/><use transform="matrix(0.013020833333333334,0,0,0.013020833333333334,87.56510416666667,0)" xlink:href="#E"/><use transform="matrix(0.013020833333333334,0,0,0.013020833333333334,104.11458333333334,0)" xlink:href="#I"/><use transform="matrix(0.013020833333333334,0,0,0.013020833333333334,114.08854166666667,0)" xlink:href="#J"/><use transform="matrix(0.013020833333333334,0,0,0.013020833333333334,122.52604166666667,0)" xlink:href="#y"/><use transform="matrix(0.013020833333333334,0,0,0.013020833333333334,133.4375,0)" xlink:href="#F"/><use transform="matrix(0.013020833333333334,0,0,0.013020833333333334,148.1640625,0)" xlink:href="#Y"/><use transform="matrix(0.013020833333333334,0,0,0.013020833333333334,155.87239583333334,0)" xlink:href="#A"/><use transform="matrix(0.013020833333333334,0,0,0.013020833333333334,169.46614583333334,0)" xlink:href="#z"/><use transform="matrix(0.013020833333333334,0,0,0.013020833333333334,184.32291666666669,0)" xlink:href="#J"/></g><g id="l"><use transform="matrix(0.013020833333333334,0,0,0.013020833333333334,0,0)" xlink:href="#A"/><use transform="matrix(0.013020833333333334,0,0,0.013020833333333334,13.59375,0)" xlink:href="#z"/><use transform="matrix(0.013020833333333334,0,0,0.013020833333333334,28.450520833333336,0)" xlink:href="#X"/><use transform="matrix(0.013020833333333334,0,0,0.013020833333333334,36.15885416666667,0)" xlink:href="#z"/><use transform="matrix(0.013020833333333334,0,0,0.013020833333333334,51.01562500000001,0)" xlink:href="#D"/><use transform="matrix(0.013020833333333334,0,0,0.013020833333333334,64.67447916666667,0)" xlink:href="#I"/><use transform="matrix(0.013020833333333334,0,0,0.013020833333333334,74.6484375,0)" xlink:href="#B"/><use transform="matrix(0.013020833333333334,0,0,0.013020833333333334,91.02864583333334,0)" xlink:href="#y"/><use transform="matrix(0.013020833333333334,0,0,0.013020833333333334,101.94010416666667,0)" xlink:href="#J"/></g><path d="M555 0l255-1277H273l40-203h1382l-40 203h-537L864 0H555" id="Z"/><path d="M464-389c4 239 215 244 420 177 88-29 181-67 276-122l-46 230C952-26 776 25 580 25c-243 0-410-133-410-370 0-284 180-557 367-673 109-68 221-105 341-105 162 0 280 85 281 234 0 80-27 156-81 229-114 153-349 260-614 271zm417-438c-1-55-38-98-99-98-51 0-105 30-164 89S515-690 486-573c133 0 232-28 297-83s98-112 98-171" id="aa"/><path d="M968-309C968-90 765 25 516 25 395 25 268 1 133-48l42-212c140 67 258 100 353 100 99 0 191-88 136-182-52-89-270-262-304-342-57-135-20-235 80-337 123-126 447-122 644-55l-41 204c-100-44-189-66-267-66-116 0-198 87-138 178 62 95 234 210 290 308 25 44 40 90 40 143" id="ab"/><path d="M556-280c-2 117 135 117 225 76L742-10C674 9 608 19 543 19c-182 0-293-83-293-227 0-35 6-85 19-150l110-555H231l37-185h148l37-185 304-40-45 225h228l-37 185H675L569-377c-9 41-13 74-13 97" id="ac"/><path d="M549-562c2 237 141 377 376 377 117 0 282-34 497-103l-45 226C1162 4 968 37 796 37c-359 0-587-200-587-555 0-377 226-703 473-862 254-163 611-167 954-81l-46 240c-274-103-506-144-727 2-160 106-316 399-314 657" id="ad"/><path d="M581-1012c158-101 297-139 483-86h296L1141 0H845l91-456c-71 136-156 250-254 342S490 25 400 25c-137 0-232-145-232-271 0-288 229-648 413-766zM471-322c1 38 17 81 59 81 53 0 128-56 224-168s173-215 234-310l37-182c-108-58-225-47-319 40-57 53-113 135-162 253s-73 213-73 286" id="ae"/><g id="m"><use transform="matrix(0.013020833333333334,0,0,0.013020833333333334,0,0)" xlink:href="#Z"/><use transform="matrix(0.013020833333333334,0,0,0.013020833333333334,18.4765625,0)" xlink:href="#aa"/><use transform="matrix(0.013020833333333334,0,0,0.013020833333333334,33.671875,0)" xlink:href="#ab"/><use transform="matrix(0.013020833333333334,0,0,0.013020833333333334,47.161458333333336,0)" xlink:href="#ac"/><use transform="matrix(0.013020833333333334,0,0,0.013020833333333334,58.0859375,0)" xlink:href="#ad"/><use transform="matrix(0.013020833333333334,0,0,0.013020833333333334,77.05729166666667,0)" xlink:href="#ae"/><use transform="matrix(0.013020833333333334,0,0,0.013020833333333334,94.16666666666667,0)" xlink:href="#ab"/><use transform="matrix(0.013020833333333334,0,0,0.013020833333333334,107.65625,0)" xlink:href="#aa"/></g><path d="M17 0l587-1480h208L1390 0h-227l-161-410H375L212 0H17zm419-566h505l-252-638" id="af"/><path d="M422 0L18-1086h197l316 845 333-845h184L619 0H422" id="ag"/><path d="M714 25c-159-3-241-52-320-148L370 12H197v-1591h197v697c72-134 176-226 363-228 282-4 421 242 421 534 0 313-163 607-464 601zm2-963c-149 0-235 83-322 179v500c113 94 140 136 290 136 212 0 284-210 284-433 0-207-60-382-252-382" id="ah"/><g id="n"><use transform="matrix(0.013020833333333334,0,0,0.013020833333333334,0,0)" xlink:href="#Y"/><use transform="matrix(0.013020833333333334,0,0,0.013020833333333334,7.708333333333334,0)" xlink:href="#A"/><use transform="matrix(0.013020833333333334,0,0,0.013020833333333334,21.302083333333336,0)" xlink:href="#af"/><use transform="matrix(0.013020833333333334,0,0,0.013020833333333334,39.700520833333336,0)" xlink:href="#ag"/><use transform="matrix(0.013020833333333334,0,0,0.013020833333333334,53.50260416666667,0)" xlink:href="#F"/><use transform="matrix(0.013020833333333334,0,0,0.013020833333333334,68.22916666666667,0)" xlink:href="#Y"/><use transform="matrix(0.013020833333333334,0,0,0.013020833333333334,75.9375,0)" xlink:href="#X"/><use transform="matrix(0.013020833333333334,0,0,0.013020833333333334,83.64583333333333,0)" xlink:href="#F"/><use transform="matrix(0.013020833333333334,0,0,0.013020833333333334,98.37239583333333,0)" xlink:href="#ah"/><use transform="matrix(0.013020833333333334,0,0,0.013020833333333334,115.15625,0)" xlink:href="#X"/><use transform="matrix(0.013020833333333334,0,0,0.013020833333333334,122.86458333333334,0)" xlink:href="#z"/></g><g id="o"><use transform="matrix(0.013020833333333334,0,0,0.013020833333333334,0,0)" xlink:href="#Y"/><use transform="matrix(0.013020833333333334,0,0,0.013020833333333334,7.708333333333334,0)" xlink:href="#A"/><use transform="matrix(0.013020833333333334,0,0,0.013020833333333334,21.302083333333336,0)" xlink:href="#R"/><use transform="matrix(0.013020833333333334,0,0,0.013020833333333334,39.778645833333336,0)" xlink:href="#E"/><use transform="matrix(0.013020833333333334,0,0,0.013020833333333334,56.328125,0)" xlink:href="#F"/><use transform="matrix(0.013020833333333334,0,0,0.013020833333333334,71.0546875,0)" xlink:href="#ag"/><use transform="matrix(0.013020833333333334,0,0,0.013020833333333334,84.85677083333333,0)" xlink:href="#F"/><use transform="matrix(0.013020833333333334,0,0,0.013020833333333334,99.58333333333333,0)" xlink:href="#Y"/><use transform="matrix(0.013020833333333334,0,0,0.013020833333333334,107.29166666666664,0)" xlink:href="#X"/><use transform="matrix(0.013020833333333334,0,0,0.013020833333333334,114.99999999999999,0)" xlink:href="#F"/><use transform="matrix(0.013020833333333334,0,0,0.013020833333333334,129.7265625,0)" xlink:href="#ah"/><use transform="matrix(0.013020833333333334,0,0,0.013020833333333334,146.51041666666666,0)" xlink:href="#X"/><use transform="matrix(0.013020833333333334,0,0,0.013020833333333334,154.21875,0)" xlink:href="#z"/></g><g id="p"><use transform="matrix(0.013020833333333334,0,0,0.013020833333333334,0,0)" xlink:href="#I"/><use transform="matrix(0.013020833333333334,0,0,0.013020833333333334,9.973958333333334,0)" xlink:href="#z"/><use transform="matrix(0.013020833333333334,0,0,0.013020833333333334,24.830729166666668,0)" xlink:href="#F"/><use transform="matrix(0.013020833333333334,0,0,0.013020833333333334,39.55729166666667,0)" xlink:href="#y"/><use transform="matrix(0.013020833333333334,0,0,0.013020833333333334,50.46875000000001,0)" xlink:href="#T"/><use transform="matrix(0.013020833333333334,0,0,0.013020833333333334,70.44270833333334,0)" xlink:href="#B"/><use transform="matrix(0.013020833333333334,0,0,0.013020833333333334,86.82291666666669,0)" xlink:href="#U"/><use transform="matrix(0.013020833333333334,0,0,0.013020833333333334,107.3697916666667,0)" xlink:href="#E"/></g><path d="M1190-1113c0 201-129 357-287 422L1387 0h-375L645-605H475V0H185v-1480h554c216 0 320 46 399 172 36 57 52 122 52 195zM546-808c219 9 335-96 335-271 0-61-23-106-59-145-44-48-216-57-347-53v469h71" id="ai"/><path d="M1221-549c0 354-203 574-568 574C289 25 86-195 86-549s203-574 567-574c365 0 568 220 568 574zm-820 0c0 196 68 389 252 389 185 0 253-193 253-389s-68-389-253-389c-183 0-252 194-252 389" id="aj"/><path d="M886-853c-182-67-334 27-405 156V0H185v-1098h296v207c67-135 206-256 405-226v264" id="ak"/><path d="M400-552c0 215 105 381 321 381 89 0 180-19 274-58v205C709 58 382 46 228-142 136-255 86-389 86-550c1-349 221-573 591-573 89 0 192 14 309 43v214c-121-39-218-59-290-59-201 0-296 189-296 373" id="al"/><g id="q"><use transform="matrix(0.013020833333333334,0,0,0.013020833333333334,0,0)" xlink:href="#K"/><use transform="matrix(0.013020833333333334,0,0,0.013020833333333334,18.3984375,0)" xlink:href="#L"/><use transform="matrix(0.013020833333333334,0,0,0.013020833333333334,34.0234375,0)" xlink:href="#M"/><use transform="matrix(0.013020833333333334,0,0,0.013020833333333334,49.1015625,0)" xlink:href="#N"/><use transform="matrix(0.013020833333333334,0,0,0.013020833333333334,59.90885416666667,0)" xlink:href="#ai"/><use transform="matrix(0.013020833333333334,0,0,0.013020833333333334,78.30729166666667,0)" xlink:href="#L"/><use transform="matrix(0.013020833333333334,0,0,0.013020833333333334,93.93229166666667,0)" xlink:href="#M"/><use transform="matrix(0.013020833333333334,0,0,0.013020833333333334,109.01041666666667,0)" xlink:href="#aj"/><use transform="matrix(0.013020833333333334,0,0,0.013020833333333334,126.04166666666667,0)" xlink:href="#P"/><use transform="matrix(0.013020833333333334,0,0,0.013020833333333334,143.5546875,0)" xlink:href="#ak"/><use transform="matrix(0.013020833333333334,0,0,0.013020833333333334,155.67708333333334,0)" xlink:href="#al"/><use transform="matrix(0.013020833333333334,0,0,0.013020833333333334,169.86979166666669,0)" xlink:href="#L"/></g><g id="r"><use transform="matrix(0.013020833333333334,0,0,0.013020833333333334,0,0)" xlink:href="#S"/><use transform="matrix(0.013020833333333334,0,0,0.013020833333333334,16.783854166666668,0)" xlink:href="#F"/><use transform="matrix(0.013020833333333334,0,0,0.013020833333333334,31.510416666666668,0)" xlink:href="#A"/><use transform="matrix(0.013020833333333334,0,0,0.013020833333333334,45.10416666666667,0)" xlink:href="#A"/><use transform="matrix(0.013020833333333334,0,0,0.013020833333333334,58.69791666666667,0)" xlink:href="#z"/><use transform="matrix(0.013020833333333334,0,0,0.013020833333333334,73.5546875,0)" xlink:href="#G"/></g><path d="M600-1456c-133 0-173 56-168 219v151h271v148H432V0H234v-938H80v-148h154c-1-122-2-267 34-340 51-104 157-178 319-178 67 0 142 11 226 33v156c-89-27-160-41-213-41" id="am"/><g id="s"><use transform="matrix(0.013020833333333334,0,0,0.013020833333333334,0,0)" xlink:href="#am"/><use transform="matrix(0.013020833333333334,0,0,0.013020833333333334,9.8046875,0)" xlink:href="#F"/><use transform="matrix(0.013020833333333334,0,0,0.013020833333333334,24.53125,0)" xlink:href="#Y"/><use transform="matrix(0.013020833333333334,0,0,0.013020833333333334,32.239583333333336,0)" xlink:href="#X"/><use transform="matrix(0.013020833333333334,0,0,0.013020833333333334,39.94791666666667,0)" xlink:href="#C"/><use transform="matrix(0.013020833333333334,0,0,0.013020833333333334,56.49739583333335,0)" xlink:href="#y"/><use transform="matrix(0.013020833333333334,0,0,0.013020833333333334,67.40885416666667,0)" xlink:href="#z"/><use transform="matrix(0.013020833333333334,0,0,0.013020833333333334,82.265625,0)" xlink:href="#A"/></g><g id="t"><use transform="matrix(0.013020833333333334,0,0,0.013020833333333334,0,0)" xlink:href="#z"/><use transform="matrix(0.013020833333333334,0,0,0.013020833333333334,14.856770833333334,0)" xlink:href="#y"/><use transform="matrix(0.013020833333333334,0,0,0.013020833333333334,25.768229166666668,0)" xlink:href="#y"/><use transform="matrix(0.013020833333333334,0,0,0.013020833333333334,36.6796875,0)" xlink:href="#B"/><use transform="matrix(0.013020833333333334,0,0,0.013020833333333334,53.059895833333336,0)" xlink:href="#y"/><use transform="matrix(0.013020833333333334,0,0,0.013020833333333334,63.97135416666667,0)" xlink:href="#A"/></g><g id="u"><use transform="matrix(0.013020833333333334,0,0,0.013020833333333334,0,0)" xlink:href="#G"/><use transform="matrix(0.013020833333333334,0,0,0.013020833333333334,16.783854166666668,0)" xlink:href="#C"/><use transform="matrix(0.013020833333333334,0,0,0.013020833333333334,33.333333333333336,0)" xlink:href="#y"/><use transform="matrix(0.013020833333333334,0,0,0.013020833333333334,44.24479166666667,0)" xlink:href="#F"/><use transform="matrix(0.013020833333333334,0,0,0.013020833333333334,58.97135416666667,0)" xlink:href="#I"/><use transform="matrix(0.013020833333333334,0,0,0.013020833333333334,68.9453125,0)" xlink:href="#Y"/><use transform="matrix(0.013020833333333334,0,0,0.013020833333333334,76.65364583333333,0)" xlink:href="#B"/><use transform="matrix(0.013020833333333334,0,0,0.013020833333333334,93.03385416666666,0)" xlink:href="#E"/><use transform="matrix(0.013020833333333334,0,0,0.013020833333333334,109.58333333333334,0)" xlink:href="#A"/></g><path d="M185 0v-1579h296V0H185" id="an"/><g id="v"><use transform="matrix(0.013020833333333334,0,0,0.013020833333333334,0,0)" xlink:href="#K"/><use transform="matrix(0.013020833333333334,0,0,0.013020833333333334,18.3984375,0)" xlink:href="#L"/><use transform="matrix(0.013020833333333334,0,0,0.013020833333333334,34.0234375,0)" xlink:href="#M"/><use transform="matrix(0.013020833333333334,0,0,0.013020833333333334,49.1015625,0)" xlink:href="#N"/><use transform="matrix(0.013020833333333334,0,0,0.013020833333333334,59.90885416666667,0)" xlink:href="#ai"/><use transform="matrix(0.013020833333333334,0,0,0.013020833333333334,78.30729166666667,0)" xlink:href="#L"/><use transform="matrix(0.013020833333333334,0,0,0.013020833333333334,93.93229166666667,0)" xlink:href="#M"/><use transform="matrix(0.013020833333333334,0,0,0.013020833333333334,109.01041666666667,0)" xlink:href="#P"/><use transform="matrix(0.013020833333333334,0,0,0.013020833333333334,126.5234375,0)" xlink:href="#an"/><use transform="matrix(0.013020833333333334,0,0,0.013020833333333334,135.1953125,0)" xlink:href="#N"/></g><g id="w"><use transform="matrix(0.013020833333333334,0,0,0.013020833333333334,0,0)" xlink:href="#I"/><use transform="matrix(0.013020833333333334,0,0,0.013020833333333334,9.973958333333334,0)" xlink:href="#z"/><use transform="matrix(0.013020833333333334,0,0,0.013020833333333334,24.830729166666668,0)" xlink:href="#A"/><use transform="matrix(0.013020833333333334,0,0,0.013020833333333334,38.42447916666667,0)" xlink:href="#I"/><use transform="matrix(0.013020833333333334,0,0,0.013020833333333334,48.39843750000001,0)" xlink:href="#A"/></g><g id="x"><use transform="matrix(0.013020833333333334,0,0,0.013020833333333334,0,0)" xlink:href="#z"/><use transform="matrix(0.013020833333333334,0,0,0.013020833333333334,14.856770833333334,0)" xlink:href="#y"/><use transform="matrix(0.013020833333333334,0,0,0.013020833333333334,25.768229166666668,0)" xlink:href="#y"/><use transform="matrix(0.013020833333333334,0,0,0.013020833333333334,36.6796875,0)" xlink:href="#B"/><use transform="matrix(0.013020833333333334,0,0,0.013020833333333334,53.059895833333336,0)" xlink:href="#y"/><use transform="matrix(0.013020833333333334,0,0,0.013020833333333334,63.97135416666667,0)" xlink:href="#A"/></g></defs></g></svg>